<?xml version="1.0" encoding="UTF-8"?>
<svg id="Layer_2" data-name="Layer 2" xmlns="http://www.w3.org/2000/svg" viewBox="0 0 857.44 1023.86">
  <defs>
    <style>
      .cls-1 {
        fill: none;
      }

      .cls-1, .cls-2, .cls-3, .cls-4, .cls-5 {
        stroke-width: 0px;
      }

      .cls-2 {
        fill: #0b6623;
      }

      .cls-3 {
        fill: #ffffa7;
      }

      .cls-4 {
        fill: gold;
      }

      .cls-5 {
        fill: #038c3e;
      }
    </style>
  </defs>
  <g id="Layer_1-2" data-name="Layer 1">
    <g>
      <rect class="cls-1" width="857.44" height="1023.86"/>
      <g>
        <g>
          <path class="cls-2" d="m440.17,192.03c-45.66,3.3-88.65,18.38-129.66,38.13,1.56-67.43-37.63-122.85-89.75-169.89,52.75-42.21,252.85,85.39,219.41,131.76Z"/>
          <path class="cls-2" d="m627.99,57.87c-35.77,30.14-56.77,60.73-67.85,106.96-34.09,13.68-68.03,27.74-102.07,41.55,5.23-27.55,10.42-55.11,15.86-82.62,34.4-57.39,86.45-94.31,154.06-65.9Z"/>
        </g>
        <path class="cls-5" d="m542.47,342.07c-.38.06-209.27.45-233.67,3.41-24.2-30.73-15.24-12.4-18.55-53.47-3.31-41.07-45.13-98.65-85.71-124.87,38.04-29.64,121.47,19.88,153.3,40.52-.03-.7.04-1.86.07-2.77.02-.47,0-.95.03-1.42,2.43-35.31,8.07-70,18.89-103.92,11.47-35.99,29.67-68.79,52.37-99.12,43.56,51.92,64.82,121.52,67.86,188.73,42.63-21.61,124.2-50.74,171.66-19.17-118.27,39.9-114.83,170.15-126.25,172.08Z"/>
        <path class="cls-2" d="m571.62,406.96c-33.03-3.85-65.2-9.5-94.65-25.73-41.38-.4-82.75.11-124.11,1.16.03-.94.04-1.89.06-2.83-27.97,8.13-54.33,19.81-80.09,33.32-.96-61.4-37.64-94.93-83.31-129.65,46.65-24.99,127.41,14.73,166.76,41.93,4.79-33.05,13.75-65.02,25.42-96.25,1.77-4.73,3.58-9.15,5.7-13.74,4.3-9.3,8.42-18.22,13.58-27.25,8.85-15.45,19.16-30.32,30.06-44.52,2.56,3.69,5.28,7.3,7.59,11.14,9,15.04,17.29,30.3,24.63,46.23,2.94,6.37,5.26,13.01,7.77,19.58,1.05,2.76,1.96,5.62,2.89,8.43,1.22,3.71,2.43,7.43,3.49,11.2,5.69,20.35,10.05,41.01,13.72,61.77,29.22-17.71,64.29-30.59,97.6-34.34,33.31-3.74,59.22.92,87.78,16.77-66.76,22.46-101.59,48.45-104.88,122.79Z"/>
        <path class="cls-2" d="m686.66,198.45c-141.96-1.67-209.64,78.52-213.76,228.77l65.65,26.76c-10.06-124.59,54.3-201.55,148.11-255.53Z"/>
        <path class="cls-2" d="m170.78,182.92c120.55-1.42,178.02,66.82,181.51,194.68l-55.75,22.77c8.55-106.02-46.11-171.52-125.77-217.45Z"/>
        <path class="cls-4" d="m665.36,848.27c-11.11,24.55-22.26,53.99-42.99,82.4-19.88,23-48.82,44.1-81.2,64.48-35,17.95-70.65,26.63-106.78,28.06h-.05c-4.43.18-8.88.24-13.34.2-19.93-1.83-38.82-5.08-56.63-9.82-.04,0-.07-.01-.11-.02-29.72-7.91-56.41-19.93-79.84-36.4-31.68-24.56-56.14-51.41-75.23-79.95-11.55-20.72-19.92-42.21-25.08-64.48-5.48-39.47-4.33-177.85-4.33-177.85-2.02-63.79,1.87-124.17,29.41-170.85,31.1-48.36,70.68-84.51,119.42-107.47.51-.21,1.04-.43,1.58-.64,32.59-13.37,65.15-19,97.67-18.39h.11c.1,0,.2,0,.31.01,12.66.25,25.32,1.44,37.95,3.5,1.62.26,3.25.55,4.87.84-.82-.18-1.65-.36-2.47-.53,27.55,3.69,53.93,10.93,78.52,23.57,52.63,33.47,91.43,75.73,111.06,130.16,25.96,41.7,24.54,294.76,7.16,333.17Z"/>
        <g>
          <path class="cls-3" d="m483.53,362.85c.39.07.79.14,1.18.22-.39-.07-.79-.14-1.18-.22Z"/>
          <path class="cls-3" d="m508.88,368.83c.52.15,1.04.31,1.56.46-.52-.16-1.04-.31-1.56-.46Z"/>
          <path class="cls-3" d="m504.11,367.49c.13.04.26.07.4.1-.13-.04-.26-.07-.4-.1Z"/>
          <path class="cls-3" d="m517.87,371.65c.54.18,1.09.36,1.63.55-.54-.19-1.09-.37-1.63-.55Z"/>
          <path class="cls-3" d="m489.33,363.98c.23.05.47.1.7.15-.23-.05-.47-.1-.7-.15Z"/>
          <path class="cls-3" d="m463.38,359.74l2.97,2.97-39.36,39.36-39.5-39.5,3.76-3.76c-5.52.74-11.04,1.68-16.56,2.81l3.07,3.07-39.36,39.36-21.96-21.96c-2.8,1.5-5.58,3.05-8.32,4.65l21.96,21.96-39.36,39.36-28.07-28.07c-2.31,2.09-4.59,4.22-6.84,6.39l30.08,30.08-39.36,39.36-27.1-27.1c-1.21,1.68-2.4,3.38-3.58,5.09l26.3,26.3-39.36,39.36-11.8-11.8c-.98,3.47-1.88,6.97-2.71,10.53l8.49,8.49-12.52,12.52c-.45,2.9-.86,5.82-1.23,8.76l17.2-17.2,39.5,39.5-39.36,39.36-20.39-20.39c-.13,4.6-.21,9.23-.24,13.9l14.73,14.73-14.35,14.35c.02.61.03,1.23.05,1.84,0,0-.03,3.31-.05,9.04l19.1-19.1,39.5,39.5-39.36,39.36-19.25-19.25c.01,3.08.03,6.24.05,9.46l14.23,14.23-13.95,13.95c.07,4.81.15,9.65.24,14.46l20.49-20.49,39.5,39.5-39.36,39.36-19.51-19.51c.16,3.78.33,7.42.52,10.89l13.43,13.43-11.44,11.44c.07.53.13,1.05.2,1.54.63,2.73,1.31,5.44,2.04,8.14l14.79-14.79,39.5,39.5-31.39,31.39c.04.08.09.16.13.24,1.41,2.11,2.87,4.22,4.34,6.31l31.14-31.14,39.5,39.5-34.56,34.56c1.86,1.87,3.76,3.74,5.69,5.59l35.6-35.6,39.5,39.5-30.91,30.91c2.87,1.69,5.77,3.33,8.72,4.91l28.89-28.89,39.5,39.5-11.41,11.41c3.52.93,7.09,1.79,10.69,2.6l6.19-6.19,9.28,9.28c5.97,1.04,12.06,1.93,18.25,2.68l-20.48-20.48,39.36-39.36,39.5,39.5-20.52,20.52c5.25-.47,10.49-1.11,15.71-1.9l10.71-10.71,7.31,7.31c4.15-.94,8.3-2.01,12.44-3.18l-12.54-12.54,39.36-39.36,28.31,28.31c2.04-1.31,4.06-2.63,6.06-3.95l-30.32-30.32,39.36-39.36,36.12,36.12c2.59-2.25,5.1-4.51,7.53-6.79l-36.53-36.53,39.36-39.36,30.64,30.64c1.47-2.75,2.89-5.48,4.25-8.21l-27.32-27.32,39.36-39.36,11.45,11.45c.54-2.37,1.06-4.97,1.56-7.79l-9.05-9.04,11.94-11.94c.45-4.16.88-8.54,1.27-13.12l-18.05,18.05-39.5-39.5,39.36-39.36,20.67,20.67c.14-3.3.26-6.65.38-10.03l-16.21-16.21,16.92-16.92c.03-3.52.06-7.07.07-10.62l-22.86,22.86-39.5-39.5,39.36-39.36,22.72,22.72c-.09-4.38-.19-8.76-.32-13.11l-15.96-15.96,14.7-14.7c-.22-4.12-.46-8.2-.73-12.21l-18.65,18.65-39.5-39.5,39.36-39.36,14.47,14.47c-1.87-14.21-4.14-26.5-6.83-36.01l-10.99,10.99-39.5-39.5,25.87-25.87c-1.52-2.54-3.09-5.05-4.71-7.54l-24.72,24.72-39.5-39.5,28.36-28.36c-1.71-1.65-3.44-3.28-5.2-4.89l-30.26,30.26-39.5-39.5,25.02-25.02c-.69-.44-1.37-.89-2.06-1.33-1.29-.66-2.59-1.3-3.88-1.94-.61-.3-1.23-.6-1.84-.88-.08-.04-.16-.08-.25-.12l-21.24,21.24-39.5-39.5.47-.47c-4.06-.72-8.15-1.36-12.27-1.91.82.17,1.65.35,2.47.53-1.62-.29-3.25-.57-4.87-.84-1.08-.18-2.16-.34-3.25-.5Zm-35.45,54.95l39.5,39.5-39.36,39.36-39.5-39.5,39.36-39.36Zm.4,261.99l-39.5-39.5,39.36-39.36,39.5,39.5-39.36,39.36Zm45.66-33.27l39.5,39.5-39.36,39.36-39.5-39.5,39.36-39.36Zm-51.65,38.98l-39.36,39.36-39.5-39.5,39.36-39.36,39.5,39.5Zm-39.57-52.24l-39.5-39.5,39.36-39.36,39.5,39.5-39.36,39.36Zm-4.61,5.67l-39.36,39.36-39.5-39.5,39.36-39.36,39.5,39.5Zm-1.19,94.34l-39.36,39.36-39.5-39.5,39.36-39.36,39.5,39.5Zm5.6,4.63l39.5,39.5-39.36,39.36-39.5-39.5,39.36-39.36Zm6.78-6.76l39.36-39.36,39.5,39.5-39.36,39.36-39.5-39.5Zm85.16,5.85l39.5,39.5-39.36,39.36-39.5-39.5,39.36-39.36Zm5.24-5.52l39.36-39.36,39.5,39.5-39.36,39.36-39.5-39.5Zm.37-92.72l39.36-39.36,39.5,39.5-39.36,39.36-39.5-39.5Zm-5.41-5.69l-39.5-39.5,39.36-39.36,39.5,39.5-39.36,39.36Zm-46.77-44.03l-39.5-39.5,39.36-39.36,39.5,39.5-39.36,39.36Zm-44.86-47.55l-39.5-39.5,39.36-39.36,39.5,39.5-39.36,39.36Zm-5.66,7.79l-39.36,39.36-39.5-39.5,39.36-39.36,39.5,39.5Zm-46.04,44.62l-39.36,39.36-39.5-39.5,39.36-39.36,39.5,39.5Zm-.36,92.51l-39.36,39.36-39.5-39.5,39.36-39.36,39.5,39.5Zm-39.27,53.32l39.5,39.5-39.36,39.36-39.5-39.5,39.36-39.36Zm46.64,42.36l39.5,39.5-39.36,39.36-39.5-39.5,39.36-39.36Zm44.03,45.47l39.5,39.5-39.36,39.36-39.5-39.5,39.36-39.36Zm7.36-3.44l39.36-39.36,39.5,39.5-39.36,39.36-39.5-39.5Zm83.65,3.88l39.5,39.5-39.36,39.36-39.5-39.5,39.36-39.36Zm6.25-4.12l39.36-39.36,39.5,39.5-39.36,39.36-39.5-39.5Zm45.48-47.54l39.36-39.36,39.5,39.5-39.36,39.36-39.5-39.5Zm1.78-92.43l39.36-39.36,39.5,39.5-39.36,39.36-39.5-39.5Zm37.23-49.55l-39.5-39.5,39.36-39.36,39.5,39.5-39.36,39.36Zm-45.07-45.62l-39.5-39.5,39.36-39.36,39.5,39.5-39.36,39.36Zm-45-45.44l-39.5-39.5,39.36-39.36,39.5,39.5-39.36,39.36Zm-92.28-171.36l39.5,39.5-39.36,39.36-39.5-39.5,39.36-39.36Zm-43.9,46.07l39.5,39.5-39.36,39.36-39.5-39.5,39.36-39.36Zm-48.56,45.84l39.5,39.5-39.36,39.36-39.5-39.5,39.36-39.36Zm-82.75,85.28l39.36-39.36,39.5,39.5-39.36,39.36-39.5-39.5Zm.86,90.7l39.36-39.36,39.5,39.5-39.36,39.36-39.5-39.5Zm-.69,93l39.36-39.36,39.5,39.5-39.36,39.36-39.5-39.5Zm-.96,90.43l39.36-39.36,39.5,39.5-39.36,39.36-39.5-39.5Zm84.65,85.52l-39.5-39.5,39.36-39.36,39.5,39.5-39.36,39.36Zm45.52,45.4l-39.5-39.5,39.36-39.36,39.5,39.5-39.36,39.36Zm45.38,44.99l-39.5-39.5,39.36-39.36,39.5,39.5-39.36,39.36Zm8.26-87.27l39.36-39.36,39.5,39.5-39.36,39.36-39.5-39.5Zm84.49,86.86l-39.5-39.5,39.36-39.36,39.5,39.5-39.36,39.36Zm45.38-44.18l-39.5-39.5,39.36-39.36,39.5,39.5-39.36,39.36Zm45.38-45.38l-39.5-39.5,39.36-39.36,39.5,39.5-39.36,39.36Zm85.72-86.15l-39.36,39.36-39.5-39.5,39.36-39.36,39.5,39.5Zm-1.08-91.5l-39.36,39.36-39.5-39.5,39.36-39.36,39.5,39.5Zm-.53-90.95l-39.36,39.36-39.5-39.5,39.36-39.36,39.5,39.5Zm-.24-93.75l-39.36,39.36-39.5-39.5,39.36-39.36,39.5,39.5Zm-45.33-44.41l-39.36,39.36-39.5-39.5,39.36-39.36,39.5,39.5Zm-44.5-44.55l-39.36,39.36-39.5-39.5,39.36-39.36,39.5,39.5Zm-84.94-85.64l39.5,39.5-39.36,39.36-39.5-39.5,39.36-39.36Z"/>
          <path class="cls-3" d="m493.9,364.97c.47.11.94.22,1.42.32-.47-.11-.94-.22-1.42-.32Z"/>
          <path class="cls-3" d="m498.58,366.08c.47.11.94.23,1.4.34-.47-.12-.94-.23-1.4-.34Z"/>
          <path class="cls-3" d="m523.48,373.61c.68.25,1.36.51,2.04.77-.68-.26-1.36-.52-2.04-.77Z"/>
          <path class="cls-3" d="m527.68,375.2c.77.3,1.53.6,2.29.91-.76-.31-1.53-.61-2.29-.91Z"/>
          <path class="cls-3" d="m535.14,378.27c1.94.84,3.86,1.71,5.78,2.61-1.92-.9-3.84-1.77-5.78-2.61Z"/>
          <path class="cls-3" d="m531.79,376.86c.82.34,1.64.68,2.46,1.03-.82-.35-1.64-.69-2.46-1.03Z"/>
          <path class="cls-3" d="m513.3,370.17c.59.18,1.18.37,1.77.56-.59-.19-1.18-.37-1.77-.56Z"/>
          <path class="cls-3" d="m368.11,363.06c-.78.18-1.56.38-2.34.57.78-.19,1.56-.38,2.34-.57Z"/>
          <path class="cls-3" d="m374.07,361.74c-.85.18-1.7.37-2.56.56.85-.19,1.7-.38,2.56-.56Z"/>
          <path class="cls-3" d="m392.25,358.68c-.25.03-.5.06-.75.09.25-.03.5-.06.75-.09Z"/>
          <path class="cls-3" d="m398.59,357.95c-.49.05-.98.1-1.46.15.49-.05.98-.1,1.46-.15Z"/>
          <path class="cls-3" d="m362.19,364.53c-.76.2-1.52.4-2.28.61.76-.21,1.52-.41,2.28-.61Z"/>
          <path class="cls-3" d="m417.18,356.77c-.61.02-1.22.03-1.84.05.61-.02,1.22-.03,1.84-.05Z"/>
          <path class="cls-3" d="m356.3,366.15c-.77.22-1.53.44-2.29.67.77-.23,1.53-.45,2.29-.67Z"/>
          <path class="cls-3" d="m404.31,357.43c-.45.03-.89.08-1.34.11.45-.04.89-.08,1.34-.11Z"/>
          <path class="cls-3" d="m410.4,357.03c-.17,0-.34.01-.51.02.17,0,.34-.01.51-.02Z"/>
          <path class="cls-3" d="m422.82,356.69c-.61,0-1.22,0-1.83.02.61,0,1.22-.01,1.83-.02Z"/>
          <path class="cls-3" d="m338.42,372.07c-.67.25-1.35.49-2.02.75.67-.26,1.35-.5,2.02-.75Z"/>
          <path class="cls-3" d="m344.52,369.88c-.76.26-1.52.52-2.28.79.76-.27,1.52-.52,2.28-.79Z"/>
          <path class="cls-3" d="m350.43,367.93c-.77.24-1.54.49-2.32.74.77-.25,1.54-.49,2.32-.74Z"/>
        </g>
      </g>
    </g>
  </g>
</svg>