<?xml version="1.0" encoding="UTF-8"?>
<svg id="Layer_2" data-name="Layer 2" xmlns="http://www.w3.org/2000/svg" viewBox="0 0 857.44 1023.86">
  <defs>
    <style>
      .cls-1 {
        fill: none;
      }

      .cls-1, .cls-2, .cls-3, .cls-4, .cls-5 {
        stroke-width: 0px;
      }

      .cls-2 {
        fill: #9a9992;
      }

      .cls-3 {
        fill: #cd212a;
      }

      .cls-4 {
        fill: #f4f9ff;
      }

      .cls-5 {
        fill: #008c45;
      }
    </style>
  </defs>
  <g id="Layer_1-2" data-name="Layer 1">
    <g>
      <rect class="cls-1" width="857.44" height="1023.86"/>
      <g>
        <path id="flaske" class="cls-3" d="m712.52,553.4c-.56-17.38-3.74-33.88-9.03-48.89-.47-7.98-1.53-16.6-3.22-25.51-1.89-10.03-4.38-19.42-7.23-27.74l-6.24-52.89v-73.16l8.53-65.6c5.16-24.54,8.72-56.34,10.11-91.57.23-5.87.41-11.85.52-17.9v-22.89s0-.27-.01-.77c0-.22,0-.47-.01-.75-.12-5.78-.34-11.46-.62-17-.21-.34-.73-1.92-.73-2.4,0-50.41-24.03-91.6-54.31-94.29-.05.14-8.21-.82-10.92-.82H215.49c-1.57,0-3.12.08-4.65.23h0c0,.16-1.55.38-2.66.42-.15,0-.3.01-.44.01h-.22c-26.54.16-48.84,29.87-55.35,70.15-.82,9.85-1.42,20.18-1.78,30.82-.26,7.65-.4,15.47-.4,23.43,0,37.79,3.01,72.52,8.08,99.9l9.59,81.34c.08.7.21,1.38.38,2.05v65.71l-9.62,81.6c-.19,1.62-.14,3.2.15,4.72-1.09,6.86-1.81,13.47-2.15,19.7-8.05,19.52-12.28,42.01-11.51,65.82.96,29.61,9.5,56.67,23.13,78.17v-.29s0,.01.01.01c.01.01.01.03.03.04.36.68.75,1.37,1.15,2.07,6.58,11.7,14.85,24.43,24.4,37.33,12.95,17.48,26.29,32.59,38.27,43.84,6.94,8.77,13.89,16.36,20.23,22.2,3.15,2.9,6.13,5.38,8.9,7.36.03.01.05.04.08.04,1.78,1.07,3.45,2.14,5,3.19,3.39,1.85,12.5,10.32,14.59,14.33,0,.01.01.01.01.03.7,1.37,1.38,2.71,2.08,4.05.1.22.22.44.33.66,0,.01.01.01.03.03,7.08,13.87,13.45,26.76,18.6,37.91,2.01,12.92,6.02,31.85,11.37,59.22,0,.68.04,1.36.12,2.01h0c.56,4.49,2.93,8.4,6.34,11.02,2.76,2.14,6.23,3.39,9.96,3.39,65.48,12.02,132.18,11.14,199.83,0,2.61,0,5.09-.62,7.3-1.72,5.35-2.67,9.06-8.18,9.13-14.54v-.16c2.24-29,11.84-55.32,13.43-70.85,3.76-8.88,8.73-19.41,14.48-31.03.7-1.44,1.42-2.87,2.15-4.35h0c13.78-9.84,30.19-23.87,46.8-40.47,14.91-14.91,27.73-29.63,37.31-42.46,0,0,.01,0,.01-.01.15-.19.29-.38.42-.57,0,0,.03-.04.1-.12.96-1.16,8.77-10.74,16.63-20.67.03-.03.05-.05.08-.1.03-.03.05-.05.08-.07.56-.57,1-1.01,1.23-1.23.1-.07.15-.12.18-.14.73-.31,1.4-.83,1.9-1.52l8.45-11.55c.3-.41.52-.85.67-1.3.01-.03.01-.04.03-.05.59-.92,1.18-1.85,1.74-2.79.03-.03.04-.05.07-.1.88-1.45,1.72-2.93,2.56-4.43,12.44-22.45,19.35-50.25,18.38-80.13Zm-131.11,45.67l-10.27,8.21c-40.16,6.71-282.64,2.74-282.64,2.74,0,0-8.43-5.05-8.68-5.16-.51-.22-1-.62-1.51-1.16h0c-7.9-9.06-14.67-61.57-23.38-129.15-7.9-61.29-17.4-134.97-30.77-199.86,7.9-112.73,97.14-150.71,204.62-148.9,111.1,1.86,197.6,37.12,204.62,144.8-14.86,96.24-52.01,328.49-52.01,328.49Z"/>
        <path class="cls-4" d="m564.05,895.6v93.22c-35.04,11.81-76.87,15.93-121.54,16.84-.29.01-.58.01-.86.03-4,.08-8.02.12-12.06.16h-.84c-4.07-.05-8.1-.12-12.1-.21-48.99-.96-93.47-4.28-122.76-15.49v-94.55c88.16,23.93,178.33,22.47,270.16,0Z"/>
        <path class="cls-2" d="m564.36,877.94c-5.5-6.79-12.74-10.62-18.55-10.43-.07,6.35-3.78,11.87-9.13,14.54-2.2,1.11-4.68,1.72-7.3,1.72-67.66,11.14-134.35,12.02-199.83,0-3.74,0-7.2-1.26-9.96-3.39-3.41-2.61-5.78-6.53-6.34-11h0c-6.13-2.11-15.15,1.81-21.71,9.88-6.1,7.54-8.23,16.42-5.79,22.09-1.47,25.18-1.16,54.9,0,86.8.03.31.05.62.12.92,0,.03,0,.05.01.1h-.04c-.07.23-.1.45-.1.68,0,29.47,267.78,30.36,283.92,2.67.03-.03.04-.04.04-.05s.01-.01.01-.03c.48-.83.73-1.7.73-2.59,0-.23-.03-.45-.1-.68h.1v-89.93c1.93-5.68-.26-14.1-6.09-21.3Zm-.31,110.88c-35.04,11.81-76.87,15.93-121.54,16.84-.29.01-.58.01-.86.03-4,.08-8.02.12-12.06.16h-.84c-4.07-.05-8.1-.12-12.1-.21-48.99-.96-93.47-4.28-122.76-15.49v-94.55c88.16,23.93,178.33,22.47,270.16,0v93.22Z"/>
        <path class="cls-4" d="m311.68,875.07c-6.38.03-11.8,2.44-16.42,6.84-2.43,2.82-2.46,4.54,0,5.14,79.4,22.41,174.05,23.55,262.8.34,4.39-2.5,4.96-5.17,0-8.08-4.01-2.47-7.77-4.11-11.07-4.23-4.42,15.78-75.07,20.64-118.02,20.53-51.48-.13-121.74-6.33-117.29-20.53Z"/>
        <path class="cls-4" d="m428.79,125.78c-107.49-1.81-196.73,36.18-204.62,148.9,13.37,64.89,22.87,138.57,30.77,199.86,8.7,67.59,15.48,120.09,23.38,129.14h0c.51.56,1,.96,1.51,1.18.25.11,8.68,5.16,8.68,5.16h86.74c77.74,2.9,158.68,3.12,195.91-2.74l10.27-8.21s37.15-232.26,52.01-328.49c-7.02-107.68-93.53-142.94-204.62-144.8Zm37.91,155.41c13.55,11.68,18.25,29.15,18.12,49.81-41.58-54.22-83.75-56.47-126.61,2.05,3.75-17.88,10.5-33.56,22.46-45.44-5.9-1.83-10.17-5-12.2-9.99-8.42-19.74-7.82-36.5,5.87-48.95,5.73,19.85,23.01,30.29,54.37,29.26,1.4-12.52-1.59-24.9-8.91-37.12-4.05-5.35-8.13-9.85-12.32-12.32,1.67-5.43,4.98-8.87,9.96-10.24,21.41,6.46,26.33,30.55,26.58,59.68,25.47-1.18,50.37-11.22,75.01-25.49-6.38,22.99-26.65,37.52-52.34,48.74Z"/>
        <path class="cls-5" d="m305.6,569.11c76.9,3.84,156.71,3.59,238.89,0,6.87-3.05,11.64-8.01,14.35-14.85,18.08-74.46,35.69-165.28,46.43-269.07-.76-57.59-30.1-96.62-85.82-118.5-64.14-16.64-127.51-16.91-189.93,2.79-42.6,16.95-69.3,50.85-77.38,104.56,9.11,95.89,24.96,188.26,45.02,278.83.77,3.92,3.95,9.61,8.44,16.25Z"/>
        <path class="cls-4" d="m312.08,559.65c72.43,3.66,147.6,3.43,225,0,6.47-2.91,10.97-7.64,13.51-14.17,17.03-71.04,33.62-157.69,43.73-256.72-.71-54.95-28.35-92.18-80.83-113.06-60.41-15.88-120.1-16.13-178.89,2.66-40.12,16.17-65.27,48.51-72.88,99.76,8.58,91.49,23.5,179.62,42.4,266.03.73,3.74,3.72,9.16,7.95,15.5Z"/>
        <ellipse class="cls-3" cx="428.71" cy="367.61" rx="120.45" ry="112.58"/>
        <path class="cls-5" d="m466.7,279.07c13.55,12.15,18.25,30.34,18.12,51.84-41.58-56.43-83.75-58.78-126.61,2.14,3.75-18.61,10.5-34.93,22.46-47.3-5.9-1.91-10.17-5.2-12.2-10.4-8.42-20.54-7.82-37.99,5.87-50.94,5.73,20.66,23.01,31.53,54.37,30.46,1.4-13.04-1.59-25.91-8.91-38.64-4.05-5.57-8.13-10.26-12.32-12.82,1.67-5.66,4.98-9.23,9.96-10.66,21.41,6.72,26.33,31.8,26.58,62.11,25.47-1.23,50.37-11.68,75.01-26.53-6.38,23.93-26.65,39.05-52.34,50.73Z"/>
        <ellipse class="cls-4" cx="343.85" cy="348.79" rx="19.16" ry="12.32" transform="translate(-114.61 521.14) rotate(-66.01)"/>
        <circle class="cls-4" cx="355.48" cy="385.06" r="6.84"/>
      </g>
    </g>
  </g>
</svg>