<?xml version="1.0" encoding="UTF-8"?>
<svg id="Layer_2" data-name="Layer 2" xmlns="http://www.w3.org/2000/svg" viewBox="0 0 857.44 1023.86">
  <defs>
    <style>
      .cls-1 {
        fill: none;
      }

      .cls-1, .cls-2, .cls-3, .cls-4, .cls-5, .cls-6 {
        stroke-width: 0px;
      }

      .cls-2 {
        fill: #a3835a;
      }

      .cls-3 {
        fill: #ca9d5f;
      }

      .cls-4 {
        fill: #bf9d73;
      }

      .cls-5 {
        fill: #eed9c4;
      }

      .cls-6 {
        fill: #e4c2a3;
      }
    </style>
  </defs>
  <g id="Layer_1-2" data-name="Layer 1">
    <g>
      <rect class="cls-1" width="857.44" height="1023.86"/>
      <g>
        <path class="cls-6" d="m498.61,964.49c0,25.1-20.16,45.44-45.04,45.44-11.18,0-21.42-4.11-29.28-10.92-13.49-6.41-29.4-4.66-36.2-1.51-1.4.65-2.4,1.34-2.93,2.06-6.51,4.16-14.15,6.53-22.31,6.53-23.83,0-43.14-20.33-43.14-45.42,0-9.39,2.7-18.12,7.33-25.35.32-.49.63-.98.96-1.45,2.88-4.16,6.42-7.78,10.45-10.7-.44.46-.9.93-1.34,1.38-2.56,2.61-5.14,5.24-7.73,7.89-.01.01-.03.01-.01.03-.65.88-1.26,1.78-1.83,2.7-3.51,5.7-5.52,12.27-5.52,19.26,0,21.72,19.31,39.33,43.14,39.33,11.83,0,22.55-4.34,30.34-11.38,6.89-.91,15.86-.3,23.87,3.69,7.03,6.38,16.16,10.23,26.14,10.23,22.2,0,40.2-19.04,40.2-42.53,0-10.59-3.65-20.28-9.71-27.72-1.38-1.69-2.88-3.26-4.49-4.71-.01-.01-.03-.01-.03-.03-7.85-9.26-13.93-20.69-17.31-30.49l-2.63-4.62-.06-.61c-.14-1.37-.51-4.8-.88-7.37v-92.8c-.27,0-.52,0-.79-.01h-.71c-6.14-1.52-12.08-3.43-17.51-6.22,1.41.67,2.91,1.28,4.5,1.84.41.14.81.28,1.23.41.11.04.27.08.44.14,1.14.37,2.31.7,3.51.98.14.04.27.08.38.1.08.01.14.04.2.05.05.01.09.03.13.04.62.15,1.26.29,1.89.43.03,0,.05.01.09.01,4.22.86,8.81,1.38,13.61,1.48h.8c.29.01.58.01.88.01v99.13c.42,2.73.82,6.39.99,7.87l.06.65,2.94,4.94c3.78,10.47,10.59,22.67,19.4,32.57,0,.01.01.01.03.03,1.8,1.54,3.49,3.22,5.04,5.02,6.78,7.96,10.87,18.3,10.87,29.6Z"/>
        <path class="cls-5" d="m485.71,953.77c0,23.49-17.99,42.53-40.2,42.53-9.97,0-19.11-3.84-26.14-10.23-8.01-4-16.98-4.61-23.87-3.69-7.79,7.04-18.51,11.38-30.34,11.38-23.83,0-43.14-17.61-43.14-39.33,0-6.99,2-13.56,5.52-19.26.57-.93,1.18-1.83,1.83-2.7-.01-.01,0-.01.01-.03,2.18-2.94,4.78-5.6,7.73-7.89.44-.46.9-.93,1.34-1.38.3-.3.61-.61.9-.9,4.24-3.51,8.32-7.71,12.14-12.28l.06.49c.93-1.33,1.85-2.68,2.78-4.02,6.33-8.13,11.75-17.13,15.63-25.45.01-.04.04-.09.06-.14,4-7.88,6.38-14.88,5.84-19.96v-75.48c-.06-4.19.27-8.18,1.26-11.85.1-.34.19-.67.29-1,.17-.52.34-1.04.53-1.56.14-.36.28-.7.43-1.04,1.27-2.97,3.12-5.65,5.73-7.94.41-.33.74-.61.88-.74.01-.03.04-.04.05-.05,6.31-8.2,19.81-8.48,29.19-2.97,2.78,3.22,4.54,5.63,5.6,7.5,0,0,.01.01.01.03,1.48,2.6,1.6,4.12,1.26,5.29,0,.05.01.09.01.14h0c.9,1.26,2.03,2.44,3.36,3.55.34.28.69.56,1.05.82,1.71,1.29,3.72,2.49,5.95,3.54.04.03.08.04.11.05,5.43,2.79,11.37,4.69,17.51,6.22h.71c.27.01.52.01.79.01v92.8c.37,2.58.74,6,.88,7.37l.06.61,2.63,4.62c3.38,9.8,9.45,21.23,17.31,30.49,0,.01.01.01.03.03,1.61,1.45,3.11,3.02,4.49,4.71,6.05,7.45,9.71,17.13,9.71,27.72Z"/>
        <path class="cls-2" d="m669.9,289.89c0,87.79-35.82,166.01-91.63,216.56l-3.02,3.72c.37-.63.72-1.27,1.08-1.89-.48.77-.96,1.55-1.43,2.32l.33-.39c-1.17,1.98-2.44,4.03-3.79,6.12-.03.05-.05.1-.09.14-1.4,2.17-2.89,4.38-4.47,6.61-.57.8-1.14,1.61-1.74,2.42-1.61,2.22-3.24,4.36-4.85,6.41-2.65,6.7-5.52,13.35-8.51,19.82-.65,1.26-1.29,2.51-1.92,3.76-2.37,4.67-4.63,9.29-6.8,13.84-31.38,65.76-44.37,121.16-51.74,146.93-.08.24-.15.48-.22.72-.22.75-.32,1.24-.32,1.34.05-.06.11-.29.22-.71l-2.74,17.23-.36,2.23-.37,2.31v.03c.74,8.67-.56,20.11-6.53,29.94h0c-.14.23-.27.46-.42.67-.63.86-2.89,3.74-3.26,4.43-.18.22-.37.43-.56.65-4.22,4.76-9.92,8.82-17.48,11.53-.29,0-.58,0-.88-.01h-.8c-2.39-.05-4.72-.2-6.99-.44v-.74c-.27,0-.52,0-.79-.01h-.71c-6.14-1.52-12.08-3.43-17.51-6.22-.04-.01-.08-.03-.11-.05-2.23-1.05-4.24-2.25-5.95-3.54-.37-.27-.71-.55-1.05-.82-1.33-1.12-2.46-2.3-3.36-3.54h0c0-.06-.01-.1-.01-.15.34-1.17.23-2.69-1.26-5.29,0-.01-.01-.03-.01-.03-1.05-1.87-2.82-4.28-5.6-7.5-9.39-5.51-22.89-5.23-29.19,2.97-.01.01-.04.03-.05.05-.14.13-.47.41-.88.74-.9.75-2.14,1.74-2.17,1.74h-.15s-.05-.01-.08-.01c-.01,0-.01.01-.01.01-.01,0-.01-.01-.01-.01-3.27-.1-6.46-.56-9.52-1.33-5.57-1.42-10.68-3.87-15.12-7.14-10.37-7.65-17.05-19.74-17.05-33.37,7.12-5.68,7-99.75-66.05-213.3-.03-.03-.04-.06-.06-.09-1.03-1.62-2.08-3.25-3.17-4.88-.61-.93-1.23-1.87-1.85-2.8-.01-.03-.03-.04-.04-.06-1.93-3.12-3.64-6.13-5.11-8.94-1.26-1.27-2.49-2.56-3.7-3.86h-.01c-1.52-2.17-3.08-4.33-4.67-6.48-4.11-5.65-8.41-11.32-12.92-17.03l-5.96-8.25c-5.72-8.65-11.01-17.7-15.81-27.11-20.91-40.87-32.89-88.43-32.89-139.21,0-1.76.01-3.53.05-5.28.22-13.6,1.29-26.95,3.17-39.99,3.49-24.16,9.72-47.28,18.32-68.88C234.88,82.57,322.34,13.93,426.29,13.93c.52,0,1.04,0,1.56.01,19.55.13,38.52,2.68,56.58,7.37.58.15,1.17.3,1.75.47,54.18,15.14,101.17,51.23,134.07,100.35.03.04.05.08.08.11,23.46,35.06,39.74,76.76,46.32,122.2,0,.04,0,.08.01.1,1.88,13.04,2.97,26.39,3.18,39.99.04,1.78.05,3.57.05,5.35Z"/>
        <path class="cls-3" d="m534.96,490.74l2.8.09c-20.71,26.04-40.88,48.67-59.67,62.67-13.99,19.06-45.68,31.72-53.29,34.26-7.61,2.54,28.12,6.67,30.45,12.69,2.13,36.91-1.47,70.7-15.23,98.97-44.52,9.07-81.98,10.44-98.66-10.85-7.46-73.23-39.6-141.57-86.04-207.07l5.54.18c-46.77-48.65-76.13-120.66-73.12-200.96C193.2,134.72,293.88,16.35,403.34,15.53c119.06-.89,215.59,118.73,215.59,265.18,0,85.49-32.89,161.54-83.97,210.04Z"/>
        <path class="cls-4" d="m387.95,93.45c3.05-7.61,7.31-13.41,18.28-9.18,15.04,1.38,20.68,9.45,25.14,18.37,2.72,8.79,1.14,13.53-2.29,16.53-9.06,10.55-19.18,19.39-29.71,27.55-4.61,4.14-9.18,4.65-13.71,1.84-3.27-18.59-3.05-36.99,2.29-55.1Z"/>
        <path class="cls-4" d="m319.85,123.8c4.22-9.11,11.67-17.62,23.3-25.38,24.54,21.25,25.98,47.52,12.68,77.01l-47.99,62.68c8.56,36.51,8.85,76.22,4.3,117.8,20.99,18.6,38.18,38.67,52.64,59.82,7,4.54,9.93,19.54,11.95,36.9-.29-11.27,15.99-9.87,33.83-7.28l-10.33,14.95c14.78,2.75,23.87,6.58,21.57,12.55-11.32,9.25-29.62,16.45-51,22.75-8.13-4.12-14.14-9.09-17.19-15.24-28.05,2.69-54.68-7.79-81.89-22.17-5.94-12.48-8.09-23.04.15-28.36l-11.04,5.56c-11.1-7.87-11.95-18.46-9.14-30.02-12.63-13.35-22.04-28.94-15.65-55.52l2.25-30.88c-7.64-15.62-7.31-33.16.66-52.03-6.87-19.16-5.77-39.68,4.51-61.77,3.17-22.43,13.37-40.45,30.29-54.26,9.24-31.23,25.17-38.18,46.09-27.1Z"/>
      </g>
    </g>
  </g>
</svg>