<?xml version="1.0" encoding="UTF-8"?>
<svg id="Layer_2" data-name="Layer 2" xmlns="http://www.w3.org/2000/svg" viewBox="0 0 1920 1082.78">
  <defs>
    <style>
      .cls-1 {
        fill: #4a3728;
      }

      .cls-1, .cls-2, .cls-3, .cls-4, .cls-5, .cls-6, .cls-7, .cls-8, .cls-9, .cls-10 {
        stroke-width: 0px;
      }

      .cls-2 {
        fill: #4e403b;
      }

      .cls-3 {
        fill: #28231d;
      }

      .cls-4 {
        fill: #372f12;
      }

      .cls-5 {
        fill: #cd212a;
      }

      .cls-6 {
        fill: #dbe0e5;
      }

      .cls-7 {
        fill: #bfbfbd;
      }

      .cls-8 {
        fill: #d8d9d7;
      }

      .cls-9 {
        fill: #73706a;
      }

      .cls-10 {
        fill: #f4f9ff;
      }
    </style>
  </defs>
  <g id="baggrund">
    <rect id="bagved" class="cls-10" width="1920" height="1080"/>
    <path id="rund" class="cls-6" d="m566,1079.39h625.48s626.11,0,626.11,0c5.57-183.14.12-343.22-2.43-479.17-13.96-745.75-1172.97-814.46-1248.9.3-5.24,56.23-10.88,200.49-.26,478.87Z"/>
    <path class="cls-6" d="m39,.5v1079h527V.5H39Z"/>
    <g id="pizzaovn">
      <path class="cls-3" d="m251.36,376.31l-1.32-65.17h108.9v64.01c-36-6.02-71.87-6.2-107.58,1.16Z"/>
      <rect class="cls-3" x="234.73" y="255.26" width="138.95" height="55.87" rx="4.36" ry="4.36"/>
      <rect class="cls-7" x="243.15" y="262.71" width="122.11" height="40.97" rx="1.77" ry="1.77"/>
      <path class="cls-7" d="m259.01,372.6l-1.12-59.6h92.63v58.54c-30.62-5.51-61.14-5.67-91.51,1.06Z"/>
      <path class="cls-3" d="m306.31,370.72c-3.81,0-7.61.08-11.37.23-1.64.06-3.27.14-4.92.25-.47.03-.97.06-1.46.09-.47.03-.97.06-1.46.09-.83.06-1.65.12-2.48.19-.19.02-.39.03-.58.05-1.41.11-2.79.25-4.18.37-1.39.14-2.78.28-4.17.44-2.07.23-4.15.5-6.22.78-1.21.17-2.43.34-3.64.53-2.5.37-5.01.78-7.52,1.23-1.46.26-2.9.53-4.36.81-.86.17-1.74.34-2.58.51v.02c-95.51,19.75-166.11,89.83-166.11,173.21h442.12c0-98.74-98.97-178.8-221.06-178.8Zm31.84,53.36v.02l-13.73,47.31-.9,3.14-.02.05c-.47,1.07-1.27,1.99-2.25,2.67l-.02.02c-1.6,1.59-3.94,2.6-6.52,2.6h-19.34c-4.47,0-8.17-2.99-8.7-6.81-.03-.02-.05-.03-.09-.05l-11.51-49.64c-.51-1.03-.79-2.18-.79-3.37.14-1.66.58-3.14,1.37-4.37.09-.14.18-.28.28-.4.18-.23.35-.45.56-.67.19-.2.41-.4.62-.61.18-.16.35-.3.53-.42.18-.12.35-.25.54-.37,1.46-.89,3.38-1.48,5.77-1.71h45.71c.97,0,1.9.12,2.78.36,1.34.48,2.5,1.03,3.48,1.7.04,0,.05.02.09.05,2.04,1.57,3.32,3.89,3.32,6.45,0,1.48-.42,2.86-1.18,4.07Z"/>
      <rect class="cls-9" x="74.73" y="549.53" width="463.17" height="40.97" rx="5" ry="5"/>
      <path class="cls-7" d="m306.31,380.04c-115.11,0-208.4,75.88-208.42,169.48v.02h416.84v-.02c-.02-93.6-93.31-169.48-208.42-169.48Zm-30.66,35.6c.09-.14.18-.28.28-.4.18-.23.35-.45.56-.67.19-.2.41-.4.62-.61.18-.16.35-.3.53-.42.18-.12.35-.25.54-.37,1.46-.89,3.38-1.48,5.77-1.71h45.71c.97,0,1.9.12,2.78.36,1.34.48,2.5,1.03,3.48,1.7.04,0,.05.02.09.05,2.04,1.57,3.32,3.89,3.32,6.45,0,1.48-.42,2.86-1.18,4.07v.02l-13.73,47.31-.9,3.14-.02.05c-.47,1.07-1.27,1.99-2.25,2.67l-.02.02c-1.6,1.59-3.94,2.6-6.52,2.6h-19.34c-4.47,0-8.17-2.99-8.7-6.81-.03-.02-.05-.03-.09-.05l-11.51-49.64c-.51-1.03-.79-2.18-.79-3.37.14-1.66.58-3.14,1.37-4.37Z"/>
      <g id="Sten">
        <path class="cls-9" d="m389.58,453.21c-.34.7-.96,1.24-1.79,1.61h0s-20.77,18.74-20.77,18.74l-1.37,1.25-.02.02c-.59.38-1.37.6-2.25.66h-.02c-1.53.32-3.46.16-5.34-.54l-14.1-5.28c-3.25-1.22-5.28-3.65-4.79-5.61-.02-.02-.03-.03-.05-.05l2.9-26.73c-.14-.63-.08-1.25.19-1.82.48-.75,1.14-1.33,1.99-1.7.1-.04.19-.09.3-.12.18-.06.36-.12.56-.16.19-.04.39-.08.59-.12.16-.03.32-.04.48-.06.16-.01.31-.02.48-.03,1.27-.02,2.8.22,4.59.76l33.32,12.48c.7.26,1.36.58,1.94.93.86.59,1.59,1.17,2.15,1.76.03,0,.03.02.05.05,1.13,1.3,1.54,2.75.95,3.97Z"/>
        <path class="cls-9" d="m435.12,494.24c-.62.53-1.43.82-2.35.87h0s-27.36,10.13-27.36,10.13l-1.81.68h-.03c-.71.16-1.53.09-2.36-.16h-.02c-1.55-.24-3.26-1.05-4.69-2.34l-10.67-9.71c-2.46-2.24-3.26-5.18-1.95-6.82-.01-.02-.02-.04-.03-.06l14.4-23.64c.15-.63.47-1.18.97-1.61.77-.53,1.63-.84,2.58-.88.11,0,.21-.01.32,0,.19,0,.38.01.59.04.19.02.39.06.59.09.16.03.32.07.47.11.15.04.3.09.46.14,1.18.41,2.48,1.16,3.9,2.28l25.22,22.94c.53.49,1,1,1.38,1.52.54.84.95,1.62,1.21,2.36.02.02.02.03.03.06.47,1.59.21,3.07-.86,3.99Z"/>
        <path class="cls-9" d="m178.4,494.51c.62.53,1.43.82,2.35.87h0s27.36,10.13,27.36,10.13l1.81.68h.03c.71.16,1.53.09,2.36-.16h.02c1.55-.24,3.26-1.05,4.69-2.34l10.67-9.71c2.46-2.24,3.26-5.18,1.95-6.82.01-.02.02-.04.03-.06l-14.4-23.64c-.15-.63-.47-1.18-.97-1.61-.77-.53-1.63-.84-2.58-.88-.11,0-.21-.01-.32,0-.19,0-.38.01-.59.04-.19.02-.39.06-.59.09-.16.03-.32.07-.47.11-.15.04-.3.09-.46.14-1.18.41-2.48,1.16-3.9,2.28l-25.22,22.94c-.53.49-1,1-1.38,1.52-.54.84-.95,1.62-1.21,2.36-.02.02-.02.03-.03.06-.47,1.59-.21,3.07.86,3.99Z"/>
        <path class="cls-9" d="m220.86,452.84c.34.7.96,1.24,1.79,1.61h0s20.77,18.74,20.77,18.74l1.37,1.25.02.02c.59.38,1.37.6,2.25.66h.02c1.53.32,3.46.16,5.34-.54l14.1-5.28c3.25-1.22,5.28-3.65,4.79-5.61.02-.02.03-.03.05-.05l-2.9-26.73c.14-.63.08-1.25-.19-1.82-.48-.75-1.14-1.33-1.99-1.7-.1-.04-.19-.09-.3-.12-.18-.06-.36-.12-.56-.16-.19-.04-.39-.08-.59-.12-.16-.03-.32-.04-.48-.06-.16-.01-.31-.02-.48-.03-1.27-.02-2.8.22-4.59.76l-33.32,12.48c-.7.26-1.36.58-1.94.93-.86.59-1.59,1.17-2.15,1.76-.03,0-.03.02-.05.05-1.13,1.3-1.54,2.75-.95,3.97Z"/>
        <path class="cls-9" d="m157.46,546.27c.82.22,1.69.15,2.55-.17h0s29.57-2.01,29.57-2.01l1.96-.12h.03c.71-.16,1.4-.55,2.02-1.1h.01c1.26-.84,2.36-2.25,2.97-3.98l4.5-12.94c1.04-2.99.24-5.92-1.77-6.86,0-.03,0-.04,0-.07l-25-15.24c-.45-.5-1.03-.86-1.7-1.04-.96-.16-1.89-.09-2.76.25-.1.04-.2.07-.29.13-.17.08-.33.17-.5.27-.16.1-.32.21-.48.32-.13.09-.25.19-.36.29-.11.1-.22.2-.33.31-.83.84-1.61,2.04-2.3,3.6l-10.64,30.59c-.23.65-.37,1.29-.45,1.91-.04.97,0,1.83.13,2.59,0,.02,0,.04,0,.07.4,1.6,1.39,2.81,2.82,3.2Z"/>
        <path class="cls-9" d="m453.25,547.18c-.82.22-1.69.15-2.55-.17h0s-29.57-2.01-29.57-2.01l-1.96-.12h-.03c-.71-.16-1.4-.55-2.02-1.1h-.01c-1.26-.84-2.36-2.25-2.97-3.98l-4.5-12.94c-1.04-2.99-.24-5.92,1.77-6.86,0-.03,0-.04,0-.07l25-15.24c.45-.5,1.03-.86,1.7-1.04.96-.16,1.89-.09,2.76.25.1.04.2.07.29.13.17.08.33.17.5.27.16.1.32.21.48.32.13.09.25.19.36.29.11.1.22.2.33.31.83.84,1.61,2.04,2.3,3.6l10.64,30.59c.23.65.37,1.29.45,1.91.04.97,0,1.83-.13,2.59,0,.02,0,.04,0,.07-.4,1.6-1.39,2.81-2.82,3.2Z"/>
        <path class="cls-9" d="m339.33,420.01c0,1.48-.42,2.86-1.18,4.07v.02l-13.73,47.31-.9,3.14-.02.05c-.47,1.07-1.27,1.99-2.25,2.67l-.02.02c-1.6,1.59-3.94,2.6-6.52,2.6h-19.34c-4.47,0-8.17-2.99-8.7-6.81-.03-.02-.05-.03-.09-.05l-11.51-49.64c-.51-1.03-.79-2.18-.79-3.37.14-1.66.58-3.14,1.37-4.37.09-.14.18-.28.28-.4.18-.23.35-.45.56-.67.19-.2.41-.4.62-.61.18-.16.35-.3.53-.42.18-.12.35-.25.54-.37,1.46-.89,3.38-1.48,5.77-1.71h45.71c.97,0,1.9.12,2.78.36,1.34.48,2.5,1.03,3.48,1.7.04,0,.05.02.09.05,2.04,1.57,3.32,3.89,3.32,6.45Z"/>
      </g>
    </g>
    <g id="Køkken">
      <rect class="cls-2" x="566.63" y="612.16" width="384.02" height="470.59" rx="3.32" ry="3.32"/>
      <g id="skuffer">
        <rect class="cls-7" x="583.22" y="629.94" width="352.27" height="81.2" rx="3.32" ry="3.32"/>
        <rect class="cls-7" x="583.29" y="916.82" width="352.27" height="149.8" rx="3.32" ry="3.32"/>
        <rect class="cls-7" x="583.29" y="740.25" width="352.27" height="149.8" rx="3.32" ry="3.32"/>
      </g>
      <rect class="cls-2" x="1433.16" y="612.19" width="384.02" height="470.59" rx="3.32" ry="3.32"/>
      <g id="skuffer-2" data-name="skuffer">
        <rect class="cls-7" x="1448.61" y="629.97" width="352.27" height="81.2" rx="3.32" ry="3.32"/>
        <rect class="cls-7" x="1448.68" y="916.85" width="352.27" height="149.8" rx="3.32" ry="3.32"/>
        <rect class="cls-7" x="1448.68" y="740.28" width="352.27" height="149.8" rx="3.32" ry="3.32"/>
      </g>
      <rect class="cls-2" x="612.5" y="663.72" width="291.11" height="14.61" rx="2.5" ry="2.5"/>
      <rect class="cls-2" x="608.88" y="810.45" width="291.11" height="14.61" rx="2.5" ry="2.5"/>
      <rect class="cls-2" x="609.23" y="984.59" width="291.11" height="14.61" rx="2.5" ry="2.5"/>
      <rect class="cls-2" x="1481.19" y="984.31" width="291.11" height="14.61" rx="2.5" ry="2.5"/>
      <rect class="cls-2" x="1480.07" y="808.81" width="291.11" height="14.61" rx="2.5" ry="2.5"/>
      <rect class="cls-2" x="1481.68" y="663.95" width="291.11" height="14.61" rx="2.5" ry="2.5"/>
    </g>
    <g id="ovn">
      <rect id="pizzaovn_" data-name="pizzaovn&amp;apos;" class="cls-3" x="950.65" y="612.16" width="483.12" height="470.59" rx="3.32" ry="3.32"/>
      <rect class="cls-8" x="966.14" y="720.31" width="452.15" height="344.91"/>
      <rect class="cls-8" x="966.14" y="626.78" width="452.15" height="78.92"/>
      <rect class="cls-3" x="1015.69" y="796.31" width="353.05" height="213.38" rx="2.53" ry="2.53"/>
      <rect class="cls-3" x="1120.98" y="644.32" width="142.46" height="43.84"/>
      <rect class="cls-9" x="1136.47" y="658.93" width="111.49" height="17.54"/>
      <rect class="cls-9" x="1031.17" y="810.92" width="322.08" height="184.15"/>
      <rect class="cls-3" x="1046.66" y="962.92" width="291.11" height="14.61" rx="2.5" ry="2.5"/>
      <rect class="cls-3" x="990.91" y="734.93" width="402.6" height="14.61" rx="2.5" ry="2.5"/>
      <g id="knapper">
        <ellipse class="cls-3" cx="1079.17" cy="666.24" rx="23.23" ry="21.92"/>
        <ellipse class="cls-8" cx="1079.17" cy="666.24" rx="7.74" ry="7.31"/>
        <ellipse class="cls-3" cx="1014.14" cy="666.24" rx="23.23" ry="21.92"/>
        <ellipse class="cls-8" cx="1014.14" cy="666.24" rx="7.74" ry="7.31"/>
        <ellipse class="cls-3" cx="1305.25" cy="666.24" rx="23.23" ry="21.92"/>
        <ellipse class="cls-8" cx="1305.25" cy="666.24" rx="7.74" ry="7.31"/>
        <ellipse class="cls-3" cx="1370.28" cy="666.24" rx="23.23" ry="21.92"/>
        <ellipse class="cls-8" cx="1370.28" cy="666.24" rx="7.74" ry="7.31"/>
      </g>
    </g>
    <rect class="cls-3" x="88.31" y="589.51" width="429.59" height="490.18" rx="12" ry="12"/>
    <g id="pynt">
      <path class="cls-1" d="m314.61,195.89c-41.62,25.65-96.84,19.21-123.32-14.41-26.5-33.62-14.24-81.68,27.39-107.35,32.68-20.16,73.76-20.5,102.71-3.43,6.84,4.02,13,9.03,18.19,14.96.85.94,1.64,1.89,2.42,2.88,26.49,33.62,14.22,81.68-27.39,107.35Z"/>
      <path class="cls-4" d="m422.75,34.38l-83.18,51.28c-5.19-5.93-11.35-10.94-18.19-14.96.89-1.3,2.1-2.46,3.59-3.39l83.27-51.34c2.21-1.36,4.72-2.01,7.23-2.01,4.01,0,7.97,1.68,10.43,4.79,3.99,5.07,2.57,12.1-3.16,15.63Z"/>
      <path class="cls-8" d="m305.14,184.73c-34.1,21.01-79.33,15.73-101.02-11.81-21.71-27.54-11.66-66.91,22.43-87.94,26.77-16.51,60.42-16.8,84.14-2.81,5.61,3.29,10.65,7.39,14.9,12.26.69.77,1.34,1.55,1.98,2.36,21.7,27.54,11.65,66.91-22.43,87.94Z"/>
    </g>
    <rect class="cls-7" x="109.02" y="611.27" width="390.77" height="445.88" rx="12" ry="12"/>
    <rect class="cls-3" x="168.14" y="675.07" width="274.71" height="322.45" rx="12" ry="12"/>
    <polygon class="cls-5" points="304.97 488.52 317.88 530.33 352.93 513.11 337.56 538.32 364 536.48 349.24 549.39 260.09 549.39 244.71 535.86 272.08 537.4 255.48 512.19 291.14 530.64 304.97 488.52"/>
  </g>
</svg>