<?xml version="1.0" encoding="UTF-8"?>
<svg id="Layer_2" data-name="Layer 2" xmlns="http://www.w3.org/2000/svg" viewBox="0 0 857.44 1023.86">
  <defs>
    <style>
      .cls-1 {
        fill: none;
      }

      .cls-1, .cls-2, .cls-3, .cls-4, .cls-5, .cls-6, .cls-7 {
        stroke-width: 0px;
      }

      .cls-2 {
        fill: #0b6623;
      }

      .cls-3 {
        fill: #111820;
      }

      .cls-4 {
        fill: #dac484;
      }

      .cls-5 {
        fill: #cdb663;
      }

      .cls-6 {
        fill: #736026;
      }

      .cls-7 {
        fill: #69713e;
      }
    </style>
  </defs>
  <g id="Layer_1-2" data-name="Layer 1">
    <g>
      <rect class="cls-1" width="857.44" height="1023.86"/>
      <g>
        <path class="cls-6" d="m637.11,231.06v747.66c0,24.59-22.88,44.7-50.85,44.7h-315.09c-27.96,0-50.85-20.12-50.85-44.7V231.06c0-24.59,22.89-44.7,50.85-44.7h97.22l-.58-55.1c-.61-27.51,121.42-26.75,121.6,0v55.1h96.85c27.97,0,50.85,20.12,50.85,44.7Z"/>
        <path class="cls-3" d="m573.22,352.99c.01.18.01.34.01.52v474.58c0,.6-.04,1.18-.12,1.76.08.59.12,1.18.12,1.78,0,24.78-64.48,44.86-144.03,44.86s-144.03-20.08-144.03-44.86c0-.6.04-1.19.12-1.78-.08-.58-.12-1.16-.12-1.76v-474.58c0-.18,0-.34.01-.52-.01-.22-.01-.44-.01-.66,0-24.78,64.48-44.86,144.03-44.86s144.03,20.08,144.03,44.86c0,.22,0,.44-.01.66Z"/>
        <path class="cls-5" d="m494.72,54.83h-.01c.01.2.01.39.01.59,0,7.84-3.31,15.17-9.08,21.46.15.71.22,1.43.22,2.15,0,1.96-.57,3.86-1.63,5.69,6.27,4.69,9.89,10.22,9.89,16.15v16.53l-.59.02v4.72h-10.97c-3.84-11.4-103.28-12.25-108.66-.02h-12.01v-21.25c0-5.67,3.32-10.98,9.09-15.54-1.31-2.01-2.01-4.12-2.01-6.3,0-1.25.22-2.48.67-3.68-4.96-5.95-7.76-12.73-7.76-19.93,0-.2,0-.4.01-.59h-.01v-24.2c0-13.36,29.73-24.2,66.41-24.2s66.41,10.84,66.41,24.2v24.2Z"/>
        <g>
          <path class="cls-7" d="m480.81,669.67c-2.52,11.69-10.09,20.4-19.77,21.26-12.93,1.15-24.71-12.15-26.32-29.71-1.46-15.96,5.98-29.93,17.05-33.21h0c1.11-.33,2.26-.55,3.43-.65,1.9-.17,3.77-.03,5.59.4,10.58,2.45,19.36,14.33,20.73,29.31.41,4.41.13,8.68-.72,12.6Z"/>
          <path class="cls-7" d="m499.42,670.83c-5.71,2.68-12.38,2.04-18.61-1.15.85-3.92,1.13-8.19.72-12.6-1.37-14.98-10.15-26.86-20.73-29.31.63-2.84,1.67-5.45,3.09-7.7v-.02c.44-.67.9-1.32,1.39-1.92v-.02s.02,0,.02,0l.02-.02c1.69-2.06,3.77-3.73,6.22-4.88,11.72-5.5,27.46,2.95,35.16,18.86,7.7,15.91,4.44,33.27-7.28,38.76Z"/>
          <path class="cls-7" d="m439.95,632.69c-8.38,14.29-24.29,20.69-35.53,14.31-11.24-6.39-13.56-23.15-5.18-37.44,7.67-13.08,21.64-19.55,32.57-15.66,1.01.36,2,.81,2.96,1.36.06.03.13.07.18.11,11.08,6.46,13.32,23.12,4.99,37.33Z"/>
          <path class="cls-6" d="m465.66,617.61l-.34.47-.02.02h0s-.01.02-.01.02c-.5.61-.96,1.25-1.38,1.92v.02s-.94,1.29-.94,1.29c-1.14-5.31-8.84-10.16-9.99-9.41-1.08,0-.52,10.62,2.24,15.42-1.18.1-2.32.33-3.43.65h0l-1.06.2c-1.55-3.53-2.18-9.62-2.46-16.66-.98-8.42-4.47-16.99-11.41-22.46-.92,1.87-1.41,3.99-1.88,6.26-.06-.04-.12-.08-.18-.11-.96-.54-1.94-.99-2.96-1.36t0,0c2.12-5.44,2.58-10.28-5.2-12.14-2.17,1.13-4.98,3.78-7.87,6.58-1.99,1.44-4.27,2.41-7.47,1.94-3.77.71-7.38,2.74-10.9,5.46v-.14c4.21-3.51,6.55-7.02,6.01-10.03-.2-1.12-.8-2.16-1.74-3.13,3.64,2.02,6.88,2.99,9.62,2.65,2.38-.3,4.39-1.58,5.96-4.04.63-.99,1.19-2.17,1.68-3.55-3.04-7.27-11.66-12.94-31.08-15.49-1.68-2.46-1.01-4.36,1.57-5.81,13.19.42,24.84,6.96,35.8,16.27,3.47-1,6.85-1.34,9.69-1.66.12,1.01.72,1.97,1.71,2.86l.25.41c-3.54-.07-6.66.52-9.28,1.87l9.05,5.81c7.48,1.88,15.36,2.19,23.54,1.3l-.1.05h0c-4.19.78-7.32,1.87-8.77,3.19-.81.74-1.35,1.48-1.64,2.22-2.56-2.68-5.76-2.97-9.49-1.34,4.73,6.11,7.99,12.66,9.44,19.75,5.16,2.85,9.44,6.48,13.08,10.7Z"/>
          <path class="cls-2" d="m487.01,581.14c-18.51,1.28-41.09-1.79-47.43-7.49-.99-.89-1.59-1.85-1.71-2.86-.91-7.55,24.62-17.5,47.17-19.75,24.22-2.41,52.75,3.3,53.21,11.03.47,7.76-27.31,17.42-51.25,19.07Z"/>
          <path class="cls-2" d="m400.37,595.58c-8.74,7.28-25.5,14.55-41.14,17.3-20.7,3.64-47.63.79-49.68-8.11-2.07-8.97,21.35-23.12,43.06-27.79,17.19-3.69,37.35-2.3,47.42,2.39,1.52.7,2.81,1.48,3.82,2.34.28.23.54.47.78.72.94.97,1.54,2.01,1.74,3.13.54,3.01-1.8,6.52-6.01,10.03Z"/>
          <path class="cls-2" d="m545.79,603.68c-8.47,15.36-99.18-.29-93.17-15.18.3-.74.84-1.48,1.64-2.22,1.45-1.32,4.58-2.41,8.77-3.19h0c9.6-1.78,24.78-1.92,38.31.46,21.12,3.71,47.21,15.12,44.45,20.13Z"/>
        </g>
        <g id="tekst">
          <path class="cls-4" d="m326.15,425.74c0-9.3,6.56-15.96,15.77-15.96s15.72,6.61,15.72,15.91-6.56,15.96-15.77,15.96-15.72-6.61-15.72-15.91Zm24.6,0c0-5.76-3.64-9.77-8.88-9.77s-8.83,3.87-8.83,9.73,3.64,9.77,8.88,9.77,8.83-3.92,8.83-9.73Z"/>
          <path class="cls-4" d="m365.72,440.99c-2.27,0-3.64-1.37-3.64-3.82v-23.75c0-2.12,1.04-3.16,2.93-3.16h.99c2.03,0,3.07,1.04,3.07,3.16v21.43h11.43c2.12,0,3.26.99,3.26,2.93v.19c0,1.94-1.13,3.02-3.26,3.02h-14.78Z"/>
          <path class="cls-4" d="m387.73,413.42c0-2.12,1.04-3.16,2.97-3.16h.94c2.03,0,3.07,1.04,3.07,3.16v24.6c0,2.08-1.04,3.16-3.07,3.16h-.94c-1.94,0-2.97-1.09-2.97-3.16v-24.6Z"/>
          <path class="cls-4" d="m409.02,438.63l-10.67-26.06c-.28-.61,1.94-2.31,4.2-2.31,1.8,0,3.26,1.09,3.92,3.21l6.71,19.36,6.7-19.36c.71-2.31,2.27-3.21,3.78-3.21,2.17,0,4.3,1.7,4.06,2.31l-10.53,26.06c-.76,1.84-1.84,2.64-4.11,2.64s-3.21-.71-4.06-2.64Z"/>
          <path class="cls-4" d="m434.67,440.99c-2.27,0-3.64-1.37-3.64-3.82v-22.85c0-2.46,1.37-3.87,3.64-3.87h17.04c2.17,0,3.21.94,3.21,2.79v.24c0,1.89-1.04,2.74-3.21,2.74h-13.69v6.56h10.01c2.27,0,3.21.8,3.21,2.55v.14c0,1.84-.99,2.69-3.21,2.69h-10.01v7.13h13.93c2.22,0,3.21.8,3.21,2.6v.24c0,1.94-.99,2.88-3.21,2.88h-17.28Z"/>
          <path class="cls-4" d="m466.26,425.74c0-9.3,6.56-15.96,15.77-15.96s15.72,6.61,15.72,15.91-6.56,15.96-15.77,15.96-15.72-6.61-15.72-15.91Zm24.6,0c0-5.76-3.64-9.77-8.88-9.77s-8.83,3.87-8.83,9.73,3.64,9.77,8.88,9.77,8.83-3.92,8.83-9.73Z"/>
          <path class="cls-4" d="m502.57,413.42c0-2.12,1.04-3.16,2.97-3.16h.94c2.03,0,3.07,1.04,3.07,3.16v24.6c0,2.08-1.04,3.16-3.07,3.16h-.94c-1.94,0-2.97-1.09-2.97-3.16v-24.6Z"/>
          <path class="cls-4" d="m519.05,440.99c-2.27,0-3.64-1.37-3.64-3.82v-23.75c0-2.12,1.04-3.16,2.93-3.16h.99c2.03,0,3.07,1.04,3.07,3.16v21.43h11.43c2.12,0,3.26.99,3.26,2.93v.19c0,1.94-1.13,3.02-3.26,3.02h-14.78Z"/>
        </g>
      </g>
    </g>
  </g>
</svg>