<?xml version="1.0" encoding="UTF-8"?>
<svg id="Layer_2" data-name="Layer 2" xmlns="http://www.w3.org/2000/svg" viewBox="0 0 857.44 1023.86">
  <defs>
    <style>
      .cls-1 {
        fill: none;
      }

      .cls-1, .cls-2, .cls-3, .cls-4, .cls-5, .cls-6, .cls-7 {
        stroke-width: 0px;
      }

      .cls-2 {
        fill: #9a9992;
      }

      .cls-3 {
        fill: #dfe5eb;
      }

      .cls-4 {
        fill: #cd212a;
      }

      .cls-5 {
        fill: #85807d;
      }

      .cls-6 {
        fill: #f4f9ff;
      }

      .cls-7 {
        fill: #008c45;
      }
    </style>
  </defs>
  <g id="Layer_1-2" data-name="Layer 1">
    <g>
      <rect class="cls-1" width="857.44" height="1023.86"/>
      <g>
        <path class="cls-3" d="m119.35,936.35V104.95c.11.85.28,1.67.51,2.49v313.12c98.08,55.76,197.98,83.59,299.62,84.14,1.05.02,2.09.02,3.14.02,1.62,0,3.23-.02,4.86-.03,102-.87,205.76-29.13,311.2-84.13v515.79c9.03,114.11-610.3,114.11-619.33,0Z"/>
        <path class="cls-2" d="m738.68,936.35c-203.34,80.46-409.7,78.22-618.82,0,7.65,60.98,173.5,84.9,315.93,85.09,146.57.19,303.01-27.07,302.89-85.09Z"/>
        <path class="cls-6" d="m738.2,54.28c-9.75,58.85-610.32,59.18-617.92-.24-.54,2.43-.87,4.9-.93,7.43v78.7c.11,1.44.28,2.83.51,4.22v529.87c98.08,94.35,197.98,141.45,299.62,142.39,1.05.03,2.09.03,3.14.03,1.62,0,3.23-.03,4.86-.05,102-1.47,205.76-49.3,311.2-142.36V61.48c.06-2.43-.09-4.84-.48-7.2Z"/>
        <path class="cls-5" d="m738.68,51.43c0,.93-.15,1.84-.48,2.75-8.9,26.05-143.81,46.75-308.93,46.75S128.76,80.16,120.28,54.05c-.28-.87-.42-1.73-.42-2.61C119.86,24.1,258.38,1.93,429.27,1.93h2.24c1.92,0,3.84.02,5.74.02,72.82.29,139.39,4.61,191.32,11.62.12.02.23.03.36.05,67.13,9.08,109.75,22.66,109.75,37.83Z"/>
        <path class="cls-1" d="m628.58,13.56c-51.93-7.01-118.5-11.32-191.32-11.62,68.87.12,137.19,3.98,191.32,11.62Z"/>
        <path class="cls-2" d="m119.86,54.69c26,34.59,188.18,46.54,309.41,46.25,126.35-.31,288.84-13.66,308.77-46.33l.87,32.92c-206.18,64.47-624.25,12.03-620.37,0l1.31-32.83Z"/>
        <path class="cls-4" d="m674.71,621.28c-168.22,142.13-334.24,140.3-498.15,0V184.72h498.15v436.56Z"/>
        <path class="cls-6" d="m622.1,586.5c-132.16,111.67-262.6,110.23-391.39,0V243.5h391.39v343Z"/>
        <ellipse class="cls-4" cx="426.15" cy="491.82" rx="136.14" ry="127.24"/>
        <path class="cls-7" d="m469.09,391.75c15.32,13.74,20.62,34.3,20.48,58.6-47-63.78-94.66-66.44-143.1,2.42,4.24-21.03,11.87-39.48,25.39-53.46-6.67-2.16-11.49-5.88-13.78-11.75-9.51-23.22-8.83-42.94,6.64-57.58,6.48,23.35,26.01,35.63,61.45,34.43,1.58-14.73-1.79-29.29-10.07-43.67-4.58-6.3-9.19-11.59-13.92-14.49,1.89-6.39,5.63-10.43,11.26-12.04,24.2,7.6,29.77,35.94,30.04,70.2,28.79-1.38,56.93-13.2,84.78-29.98-7.21,27.05-30.12,44.14-59.16,57.34Z"/>
        <ellipse class="cls-6" cx="330.23" cy="470.55" rx="21.66" ry="13.92" transform="translate(-233.93 580.96) rotate(-66.01)"/>
        <circle class="cls-6" cx="343.38" cy="511.55" r="7.74"/>
        <g id="tekst">
          <path class="cls-4" d="m205.78,873.27c-.11,10.68.11,22.11-.07,32.58-.05,3.12-2.23,4.47-4.74,4.46-2.51,0-4.7-1.42-4.76-4.46-.21-10.49.04-21.89-.09-32.59-2.63-.12-6.11.11-8.58-.06-2.47-.17-3.97-1.94-3.93-4.18.04-2.24,1.2-4.19,3.95-4.22,8.52-.1,18.27-.1,26.79,0,2.74.03,3.91,1.98,3.95,4.22.04,2.24-1.46,4.01-3.93,4.18-2.47.17-5.95-.06-8.58.06Z"/>
          <path class="cls-4" d="m243.76,864.59c13.04,0,22.68,9.95,22.68,22.92,0,12.97-9.7,22.81-22.67,22.81-12.97,0-22.61-9.86-22.62-22.8,0-12.93,9.57-22.93,22.61-22.93Zm0,36.53c7.74,0,13.22-5.96,13.22-13.61,0-7.64-5.46-13.72-13.23-13.72-7.76,0-13.16,6.1-13.16,13.73,0,7.63,5.43,13.6,13.16,13.6Z"/>
          <path class="cls-4" d="m312.24,867.5c1.47-3.05,1.98-2.46,4.43-3.12.33-.09.71-.05.97.01,2.41.55,3.91,1.49,4.27,4.37,1.48,11.87,3.23,24.85,4.49,36.73.32,2.96-1.88,4.6-4.36,4.78-2.48.18-4.66-1.04-5.08-4.08-.99-7.32-1.83-15.74-2.8-23.28-3.03,6.06-6.02,12.54-9.02,18.57-1.18,2.37-2.69,3.97-5.33,3.97-2.64,0-4.09-1.61-5.26-3.97-3.01-6.02-6.04-12.5-9.09-18.55-.97,7.54-1.8,15.96-2.79,23.29-.41,3.04-2.6,4.26-5.07,4.08-2.48-.18-4.7-1.8-4.36-4.77,1.37-11.87,3.03-24.86,4.48-36.74.35-2.88,1.86-3.82,4.26-4.37.27-.06.65-.1.97-.01,2.44.64,2.99.07,4.43,3.11,3.87,8.16,8.35,17.93,12.44,26.4,4.05-8.48,8.52-18.28,12.42-26.41Z"/>
          <path class="cls-4" d="m343.42,899.34c-1.06,2.57-2.01,5.78-3.12,8.22-1.11,2.44-3.65,3.39-6,2.46-2.35-.93-3.85-3.1-2.84-5.97,4-11.38,8.7-23.83,13-35.1,1.35-3.54,3.3-4.04,6.53-4.61.1-.02.29-.02.39,0,3.23.57,5.18,1.06,6.53,4.6,4.29,11.27,9.01,23.72,13.01,35.09,1.01,2.87-.49,5.04-2.84,5.97-2.35.93-4.89-.01-6-2.45-1.11-2.44-2.06-5.65-3.12-8.22-5.17-.02-10.36-.02-15.54,0Zm12.38-8.38c-1.53-5.27-3.08-10.54-4.61-15.8-1.54,5.27-3.07,10.54-4.61,15.81,3.07,0,6.15,0,9.22,0Z"/>
          <path class="cls-4" d="m391.98,873.18c-.11,10.68.1,22.11-.07,32.58-.05,3.12-2.23,4.47-4.74,4.46-2.51,0-4.7-1.42-4.76-4.46-.21-10.49.04-21.89-.09-32.58-2.63-.12-6.11.11-8.58-.05-2.47-.17-3.97-1.94-3.93-4.18.04-2.24,1.2-4.19,3.95-4.23,8.52-.1,18.27-.1,26.79-.01,2.74.03,3.91,1.98,3.95,4.22.04,2.24-1.46,4.01-3.93,4.18-2.47.17-5.95-.06-8.58.06Z"/>
          <path class="cls-4" d="m429.96,864.51c13.04,0,22.68,9.95,22.68,22.92,0,12.97-9.7,22.81-22.67,22.81-12.97,0-22.61-9.87-22.62-22.8,0-12.93,9.57-22.93,22.61-22.93Zm0,36.53c7.74,0,13.22-5.96,13.22-13.6s-5.46-13.73-13.23-13.72c-7.76,0-13.16,6.1-13.16,13.73,0,7.63,5.43,13.6,13.16,13.6Z"/>
          <path class="cls-4" d="m477.6,895.55c2.22-.84,4.49-.11,5.9,2.31,1.4,2.42,4.11,4.32,7.26,4.13,3.15-.18,6.36-.93,6.56-4.86.14-2.7-2.59-4.36-5.5-5.03-.86-.2-4.37-1.33-5.24-1.51-6.38-1.28-11.88-7.32-11.66-12.46.43-10.2,7.19-13.1,15.39-13.84,6.14-.55,10.76,2.67,13.78,7.35,1.38,2.15.2,4.14-1.34,5.3-2.22,1.67-4.55.63-5.99-.99-1.76-1.98-4.26-3.31-6.38-3.14-3.49.28-5.55.97-5.92,4.82-.17,1.69,2.44,4.09,4.92,4.41.76.1,4.31,1.45,5.16,1.58,6.9,1.05,12.65,8,12.41,13.12-.5,10.63-8.18,13.1-16,13.64-7.82.54-12.89-3.26-15.84-9.49-1.15-2.43.28-4.52,2.51-5.36Z"/>
          <path class="cls-4" d="m522.7,899.31c-1.06,2.57-2.01,5.78-3.12,8.22-1.11,2.44-3.65,3.39-6,2.46-2.35-.93-3.85-3.1-2.84-5.97,4-11.38,8.7-23.82,13.01-35.09,1.35-3.54,3.29-4.03,6.53-4.6.1-.02.29-.02.39,0,3.23.57,5.18,1.06,6.53,4.6,4.29,11.27,9,23.72,13.01,35.09,1.01,2.87-.49,5.04-2.84,5.97-2.35.93-4.89-.01-6-2.46-1.11-2.44-2.06-5.65-3.12-8.22-5.17-.02-10.36-.02-15.54,0Zm12.38-8.38c-1.53-5.27-3.07-10.54-4.61-15.8-1.54,5.27-3.07,10.54-4.61,15.8,3.07,0,6.15,0,9.22,0Z"/>
          <path class="cls-4" d="m573.59,910.65c-10.11-1.57-16.75-5.7-17.51-17.17-.46-6.96-.09-17.19-.05-24.59.01-2.81,2.25-4.47,4.75-4.47,2.5,0,4.64,1.55,4.74,4.47.26,7.48-.21,17.49.12,24.6.25,5.33,3.45,7.82,7.95,7.8,4.5-.02,7.58-2.51,7.83-7.81.33-7.08-.14-17.12.12-24.59.1-2.92,2.24-4.47,4.74-4.47,2.5,0,4.74,1.66,4.76,4.47.04,7.39.42,17.63-.05,24.59-.78,11.46-7.41,15.6-17.51,17.17,0-.06.1-.06.1,0Z"/>
          <path class="cls-4" d="m621.41,864.32c6.41-.45,11.45,2.21,16.08,6.15,1.93,1.64,1.2,4.91-.58,6.47-1.79,1.56-4.21,1.5-6.12.1-2.84-2.08-5.59-3.74-9.34-3.45-7.64.61-12.93,5.92-12.93,13.79,0,7.88,5.29,13.19,12.93,13.79,3.75.3,6.5-1.37,9.34-3.45,1.91-1.4,4.34-1.46,6.12.1,1.79,1.56,2.51,4.83.58,6.47-4.63,3.93-9.66,6.6-16.08,6.15-12.9-.91-22.36-9.63-22.36-23.06,0-13.43,9.47-22.15,22.36-23.06Z"/>
          <path class="cls-4" d="m670,864.71c2.65,0,3.96,2,3.94,4.22-.02,2.22-1.35,4.07-3.94,4.17-4.66.18-10.2-.04-15.04.05-.02,3.45-.03,6.94,0,10.39,4.14.08,9.03-.1,12.99.04,2.63.1,3.94,1.85,3.94,4.1s-1.38,4-3.94,4.11c-3.97.18-8.85-.04-13,.05-.02,3.23-.03,6.5,0,9.73,5.02.07,10.78-.1,15.62.04,2.67.08,3.94,1.95,3.94,4.16,0,2.21-1.36,4.16-3.94,4.17-6.59.04-14.81.24-21.27-.03-2.93-.13-3.82-1.27-3.89-4.12-.31-11.83-.33-25.11,0-36.94.08-2.85.97-3.99,3.89-4.12,6.26-.29,14.29-.05,20.69-.04Z"/>
        </g>
      </g>
    </g>
  </g>
</svg>