<?xml version="1.0" encoding="UTF-8"?>
<svg id="Layer_2" data-name="Layer 2" xmlns="http://www.w3.org/2000/svg" viewBox="0 0 1547.91 177.1">
  <defs>
    <style>
      .cls-1 {
        fill: #cd212a;
        stroke-width: 0px;
      }
    </style>
  </defs>
  <g id="UI">
    <g id="Logo">
      <g>
        <path class="cls-1" d="m15.15,174.65c-9.53,0-15.15-5.62-15.15-16.37V35.66C0,22.96,7.08,15.63,18.81,15.63h41.04c42.01,0,65.22,18.56,65.22,53.5s-22.47,53.25-64.98,53.25h-23.94v35.91c0,10.26-5.37,16.37-15.63,16.37h-5.37Zm44.21-79.39c20.03,0,30.53-9.04,30.53-25.89s-10.51-25.65-30.53-25.65h-23.7v51.54h23.7Z"/>
        <path class="cls-1" d="m161.95,0c11.72,0,19.05,6.84,19.05,17.83s-7.08,17.59-19.05,17.59-19.3-6.6-19.3-17.59S149.73,0,161.95,0Zm-17.59,69.86c0-12.46,6.59-16.61,15.39-16.61h3.66c9.04,0,15.39,3.91,15.39,16.61v88.43c0,12.46-6.35,16.37-15.39,16.37h-3.42c-9.28,0-15.63-3.66-15.63-16.37v-88.43Z"/>
        <path class="cls-1" d="m197.61,159.51c0-7.82,2.2-10.26,7.57-16.37l53.5-62.05h-46.41c-9.28,0-13.68-3.91-13.68-12.46v-1.71c0-8.06,4.39-12.46,13.68-12.46h76.7c9.53,0,13.19,5.86,13.19,11.97v1.71c0,7.33-1.95,10.02-7.33,15.88l-54.96,63.02h50.81c9.28,0,13.68,3.91,13.68,12.46v1.47c0,8.3-4.4,12.7-13.68,12.7h-79.88c-9.52,0-13.19-6.11-13.19-12.21v-1.95Z"/>
        <path class="cls-1" d="m318.03,159.51c0-7.82,2.2-10.26,7.57-16.37l53.5-62.05h-46.41c-9.28,0-13.68-3.91-13.68-12.46v-1.71c0-8.06,4.39-12.46,13.68-12.46h76.7c9.53,0,13.19,5.86,13.19,11.97v1.71c0,7.33-1.95,10.02-7.33,15.88l-54.96,63.02h50.81c9.28,0,13.68,3.91,13.68,12.46v1.47c0,8.3-4.4,12.7-13.68,12.7h-79.88c-9.52,0-13.19-6.11-13.19-12.21v-1.95Z"/>
        <path class="cls-1" d="m514.91,102.59h3.91c0-1.22,0-2.44-.25-3.42-.49-13.93-9.04-21.5-24.18-21.5-16.61,0-25.16,8.3-29.56,17.34,0,.49-22.23,1.95-22.23-13.68,0-5.37,2.44-10.75,7.33-15.63,8.06-8.3,23.45-13.92,46.65-13.92,37.62,0,56.18,17.34,56.18,49.34v70.35c0,1.71-6.35,3.91-12.95,3.91-8.3,0-14.9-3.42-18.07-11.48-.73-2.2-1.47-4.88-1.71-8.06-8.55,12.95-23.94,20.52-41.77,20.52-24.92,0-40.06-13.68-40.06-33.95,0-26.87,26.14-39.08,76.7-39.82Zm3.91,17.34h-6.6c-27.11.97-41.77,6.11-41.77,19.54,0,9.04,7.08,14.66,18.56,14.66,17.34,0,29.56-10.51,29.8-25.89v-8.3Z"/>
        <path class="cls-1" d="m620.19,32.73c0-11.72,6.6-18.07,17.83-18.07h9.77c11.24,0,14.9,3.42,18.81,12.95l32.24,74.74,32.24-74.74c4.4-10.02,8.3-12.95,18.32-12.95h9.53c11.48,0,18.56,6.35,18.56,18.07v125.56c0,10.75-4.15,16.37-14.66,16.37h-5.37c-10.02,0-14.17-5.62-14.17-16.37V64l-26.38,64.24c-2.69,6.11-4.15,11.24-18.32,11.24s-15.39-5.13-18.08-11.24l-26.38-62.78v92.82c0,10.75-3.91,16.37-14.17,16.37h-5.62c-10.02,0-14.17-5.62-14.17-16.37V32.73Z"/>
        <path class="cls-1" d="m854.19,102.59h3.91c0-1.22,0-2.44-.25-3.42-.49-13.93-9.04-21.5-24.18-21.5-16.61,0-25.16,8.3-29.56,17.34,0,.49-22.23,1.95-22.23-13.68,0-5.37,2.44-10.75,7.33-15.63,8.06-8.3,23.45-13.92,46.65-13.92,37.62,0,56.18,17.34,56.18,49.34v70.35c0,1.71-6.35,3.91-12.95,3.91-8.3,0-14.9-3.42-18.07-11.48-.73-2.2-1.47-4.88-1.71-8.06-8.55,12.95-23.94,20.52-41.77,20.52-24.92,0-40.06-13.68-40.06-33.95,0-26.87,26.14-39.08,76.7-39.82Zm3.91,17.34h-6.6c-27.11.97-41.77,6.11-41.77,19.54,0,9.04,7.08,14.66,18.56,14.66,17.34,0,29.56-10.51,29.8-25.89v-8.3Z"/>
        <path class="cls-1" d="m904.52,114.32c0-37.86,22.47-62.53,55.45-62.53,17.34,0,31.02,7.82,38.11,18.07V7.82c0-.97,6.11-3.91,12.94-3.91,10.26,0,21.5,5.37,21.5,27.6v126.78c0,12.46-6.35,16.37-15.39,16.37h-3.42c-7.82,0-13.68-2.69-14.9-11.97-.25-2.69-.25-5.37-.49-8.3-8.06,13.93-21.25,22.72-38.84,22.72-32.24,0-54.96-25.4-54.96-62.77Zm93.56-15.63c-5.13-11.97-14.9-19.3-29.56-19.3-18.81,0-31.27,13.68-31.27,35.17s12.7,34.93,30.78,34.93c16.37,0,30.05-11.48,30.05-28.58v-22.23Z"/>
        <path class="cls-1" d="m1175.65,100.88v57.41c0,12.46-6.35,16.37-15.15,16.37h-3.66c-9.28,0-15.63-3.66-15.63-16.37v-52.03c0-15.63-8.06-25.4-21.98-25.4-11.97,0-21.5,6.11-26.38,15.39v62.05c0,12.46-6.35,16.37-15.14,16.37h-3.66c-9.28,0-15.63-3.66-15.63-16.37V57.16c0-.98,6.11-3.91,12.95-3.91,9.28,0,18.32,4.64,20.52,20.03,8.55-12.7,21.25-21.49,39.33-21.49,31.27,0,44.46,21.98,44.46,49.09Z"/>
        <path class="cls-1" d="m1256.26,51.79c35.42,0,59.36,24.67,59.36,59.6v2.2c0,5.86-1.96,9.04-8.31,9.04h-82.81l.73,3.91c3.66,15.63,16.85,25.65,34.44,25.65s28.09-7.82,33.47-17.34c.25-.49,16.85.97,16.85,14.9,0,6.35-4.39,13.19-13.19,18.32-8.79,5.13-21.5,9.04-38.1,9.04-39.08,0-64.49-24.42-64.49-62.05s26.14-63.26,62.05-63.26Zm27.6,52.03c-.97-17.34-11.48-28.33-28.09-28.33s-28.58,11.73-30.78,28.33h58.87Z"/>
        <path class="cls-1" d="m1327.1,150.23c0-8.79,9.52-14.17,10.5-13.68,8.06,9.04,21.74,16.12,39.33,16.12,13.43,0,21.01-4.64,21.01-12.21,0-9.28-9.53-10.99-25.4-14.41-16.37-3.66-42.01-8.79-42.01-35.66,0-23.2,18.81-38.59,49.83-38.59,24.18,0,39.08,6.84,45.19,16.12,1.96,2.93,2.93,6.11,2.93,9.52,0,9.04-10.5,15.15-10.99,14.41-8.06-9.28-21.25-16.12-34.93-16.12s-20.52,4.88-20.52,12.46c0,8.55,9.52,10.26,25.4,13.93,17.1,3.66,43.97,9.04,43.97,35.91,0,23.94-19.05,38.35-52.52,38.35-19.05,0-32.49-3.66-41.28-9.04-6.84-4.64-10.5-10.5-10.5-17.1Z"/>
        <path class="cls-1" d="m1443.61,150.23c0-8.79,9.52-14.17,10.5-13.68,8.06,9.04,21.74,16.12,39.33,16.12,13.43,0,21.01-4.64,21.01-12.21,0-9.28-9.53-10.99-25.4-14.41-16.37-3.66-42.01-8.79-42.01-35.66,0-23.2,18.81-38.59,49.83-38.59,24.18,0,39.08,6.84,45.19,16.12,1.96,2.93,2.93,6.11,2.93,9.52,0,9.04-10.5,15.15-10.99,14.41-8.06-9.28-21.25-16.12-34.93-16.12s-20.52,4.88-20.52,12.46c0,8.55,9.52,10.26,25.4,13.93,17.1,3.66,43.97,9.04,43.97,35.91,0,23.94-19.05,38.35-52.52,38.35-19.05,0-32.49-3.66-41.28-9.04-6.84-4.64-10.5-10.5-10.5-17.1Z"/>
      </g>
    </g>
  </g>
</svg>