<?xml version="1.0" encoding="UTF-8"?>
<svg id="Layer_2" data-name="Layer 2" xmlns="http://www.w3.org/2000/svg" viewBox="0 0 857.44 1023.86">
  <defs>
    <style>
      .cls-1 {
        fill: none;
      }

      .cls-1, .cls-2, .cls-3, .cls-4, .cls-5, .cls-6, .cls-7, .cls-8, .cls-9, .cls-10 {
        stroke-width: 0px;
      }

      .cls-11, .cls-12, .cls-13 {
        stroke-miterlimit: 10;
      }

      .cls-11, .cls-13 {
        stroke: #f4f9ff;
      }

      .cls-11, .cls-9 {
        fill: #f4f9ff;
      }

      .cls-12 {
        fill: #dcd9c4;
        stroke: #000;
      }

      .cls-13, .cls-6 {
        fill: #c8c6be;
      }

      .cls-3 {
        fill: #4a3728;
      }

      .cls-4 {
        fill: #372f12;
      }

      .cls-5 {
        fill: #111820;
      }

      .cls-7 {
        fill: #eed9c4;
      }

      .cls-8 {
        fill: #e8ccb0;
      }

      .cls-10 {
        fill: #008c45;
      }
    </style>
  </defs>
  <g id="Layer_1-2" data-name="Layer 1">
    <g>
      <rect class="cls-1" width="857.44" height="1023.86"/>
      <g>
        <path id="bukser" class="cls-4" d="m260.33,786.79c-1.43,62.67,9.01,123.69,24.34,184.27,33.89,6.36,66.88,15.44,97.8,30.94,2.61-28.77,6.32-57.55,16.17-84.85,31.79-48.84,59-48.14,89.54.96,12.51,30.14,13.39,54.68,19.18,85.96,30.47-22.26,58.07-26.14,95.13-28.11,18.59-60.5,26.67-122.17,26.05-185.4-133.54,48.28-234.98,43.7-368.22-3.77Z"/>
        <path class="cls-3" d="m57.18,326.78c8.11,86.63,20.48,206.38,31.64,298.99,6.44,30.54,16.26,37.61,41.96,30.62,21.48-5.84,17.67-11.45,19.09-29.24-2.04-1.36-7.46-12.84-7.52-13.13-1.26-6.66.73-7.75,3.4-12.07.02-.03.06,0,.09-.02,2.11-1.58,4.32-2.48,6.88-3.09,13.59.95,22.12,5.02,29.84,16.42,4.33,13.39,3.28,24.45-1.66,37.52-19.92,31.38-45.97,44.01-82.75,36.09-17.5-9.93-26.98-23.23-35.8-41.21-.06-.11-.62-1.87-.55-2.28-13.72-107.83-24.43-218.91-30.74-327.44,0-.09.04-.2.02-.36-.15-1.55-.37-3.12-.58-4.71,0-.06-.05.03,0-.17.04-.2-.07-.56.1-.89,1.81-13.18,12.93-18.67,24.33-5.64"/>
        <path class="cls-7" d="m209.02,649.81c.29,4.91-1.81,10.36-5.56,14.98-6.36,7.89-17.49,13.37-29.6,9.75-4.9-1.47-9.83-3.47-14.38-5.8-10.36-5.32-18.81-12.37-20.78-18.92-1.66-5.53.97-10.1,6-13.84,6.86-5.09,18.18-8.61,29.16-10.88,3.01-.63,5.9-.84,8.65-.69,15.01.75,25.73,12.01,26.51,25.41Z"/>
        <path id="venstre_sko" data-name="venstre sko" class="cls-5" d="m257.36,1019.52h126.01l-.76-17.58c-30.15-14.62-62.42-25.45-97.78-30.76-19.98,9.06-29.13,25.18-27.47,48.34Z"/>
        <path id="højre_sko" data-name="højre sko" class="cls-5" d="m507.14,1001.94v17.41s128.16.16,128.16.16c-.65-20.32-9.57-36.1-32.96-43.95-37.6,1.11-72.94,2.75-95.2,26.37Z"/>
        <path class="cls-7" d="m760.87,246.66c-9.61-52.75-35.89-100.73-74.05-139.82-.58-.6-1.18-1.21-1.78-1.8-.57-.45-1.11-1-1.62-1.63C622.3,42.73,532.1,4.34,431.5,4.34s-194.65,40.05-255.82,103.01c-37.02,38.1-62.77,84.58-72.86,135.67-3.14,15.8-4.77,32.05-4.77,48.63,0,103.11,63.04,193.54,157.74,244.23l.07.03c28.85,14.17,57.93,25.04,87.25,32.36,11.8,2.94,23.64,5.32,35.53,7.1.05.01.11.01.16.02,17.16,2.35,34.77,3.57,52.7,3.57,9.48,0,18.86-.34,28.15-1.02,23.95-2.34,48.4-7,73.3-13.81-.07.15-.12.32-.19.47,31.68-9.22,63.65-22.87,95.94-41.24,0-.01.01-.01.01-.01,82.61-52.29,136.24-136.6,136.24-231.69,0-15.3-1.38-30.32-4.08-44.98Zm-203.55-167.58l3.96,10.25-80.96,31.26-3.95-10.24,80.96-31.27Zm-260,.42l80.97,31.26-3.96,10.25-80.97-31.26,3.96-10.25Zm388.53,172.04c0,7.25-5.93,13.18-13.18,13.18h-181.28c-.34,0-.68-.01-1.02-.04,24.58,11.58,40.57,30.41,40.57,51.68,0,7.88-2.2,15.43-6.21,22.38,17.73,10.29,33.22,20.67,42.2,31.24,11.44,10.05,19.69,22.11,27.73,34.28,3.05,7.5,4.39,14.28,0,20.79-96.5,62.45-227.04,69.9-323.05,0-3.43-7.97-3.64-15.89,0-23.27,4.18-13.11,13.57-25.29,25.3-37.07,13.05-10.42,28.08-18.93,44.65-25.96.01.01.02.02.03.03-4.03-6.97-6.23-14.52-6.23-22.41,0-21.27,15.99-40.1,40.56-51.68-.33.03-.67.04-1.01.04h-181.28c-7.25,0-13.18-5.93-13.18-13.18v-108.77c0-7.25,5.93-13.18,13.18-13.18h181.28c7.25,0,13.18,5.93,13.18,13.18v33.15c.71-.12,1.45-.19,2.2-.19h82.4c1.96,0,3.82.43,5.49,1.21v-34.17c0-7.25,5.93-13.18,13.18-13.18h181.28c7.25,0,13.18,5.93,13.18,13.18v108.77Z"/>
        <path class="cls-1" d="m378.63,575.36c-44.47-6.1-86-19.79-122.78-39.45,28.85,14.17,57.93,25.04,87.25,32.36,11.8,2.94,23.64,5.32,35.53,7.1Z"/>
        <rect class="cls-1" x="330.33" y="56.85" width="10.99" height="86.8" transform="translate(121.4 377.47) rotate(-68.9)"/>
        <path class="cls-1" d="m628.7,523.34c-28.91,18.29-61.37,32.67-96.32,42.21-16.64,4.56-33.86,8.01-51.53,10.26-7,.9-14.06,1.6-21.2,2.11,23.95-2.34,48.4-7,73.3-13.81-.07.15-.12.32-.19.47,31.68-9.22,63.65-22.87,95.94-41.24Z"/>
        <polygon class="cls-1" points="561.28 89.33 480.31 120.59 476.36 110.35 557.32 79.08 561.28 89.33"/>
        <path class="cls-1" d="m685.04,105.04c-.57-.45-1.11-1-1.62-1.63.55.54,1.09,1.08,1.62,1.63Z"/>
        <path class="cls-7" d="m685.85,142.77v108.77c0,7.25-5.93,13.18-13.18,13.18h-181.28c-.34,0-.68-.01-1.02-.04,24.58,11.58,40.57,30.41,40.57,51.68,0,7.88-2.2,15.43-6.21,22.38,17.73,10.29,33.22,20.67,42.2,31.24,11.44,10.05,19.69,22.11,27.73,34.28,3.05,7.5,4.39,14.28,0,20.79-96.5,62.45-227.04,69.9-323.05,0-3.43-7.97-3.64-15.89,0-23.27,4.18-13.11,13.57-25.29,25.3-37.07,13.05-10.42,28.08-18.93,44.65-25.96.01.01.02.02.03.03-4.03-6.97-6.23-14.52-6.23-22.41,0-21.27,15.99-40.1,40.56-51.68-.33.03-.67.04-1.01.04h-181.28c-7.25,0-13.18-5.93-13.18-13.18v-108.77c0-7.25,5.93-13.18,13.18-13.18h181.28c7.25,0,13.18,5.93,13.18,13.18v33.15c.71-.12,1.45-.19,2.2-.19h82.4c1.96,0,3.82.43,5.49,1.21v-34.17c0-7.25,5.93-13.18,13.18-13.18h181.28c7.25,0,13.18,5.93,13.18,13.18Z"/>
        <g>
          <rect class="cls-3" x="330.33" y="56.85" width="10.99" height="86.8" transform="translate(121.4 377.47) rotate(-68.9)"/>
          <polygon class="cls-3" points="561.28 89.33 480.31 120.59 476.36 110.35 557.32 79.08 561.28 89.33"/>
        </g>
        <path class="cls-2" d="m685.83,142.19v108.77c0,7.25-5.93,13.18-13.18,13.18h-181.28c-.34,0-.68-.01-1.02-.04-2.94-.22-5.61-1.43-7.7-3.27-2.74-2.43-4.46-5.95-4.46-9.87v-34.17c-1.67.78-3.54,1.21-5.49,1.21h-82.4c-.75,0-1.48-.07-2.2-.19v33.15c0,3.91-1.72,7.44-4.46,9.87-2.09,1.85-4.76,3.05-7.7,3.27-.34.03-.68.04-1.02.04h-181.28c-7.25,0-13.18-5.93-13.18-13.18v-108.77c0-7.25,5.93-13.18,13.18-13.18h181.28c7.25,0,13.18,5.93,13.18,13.18v33.15c.71-.12,1.45-.19,2.2-.19h82.4c1.96,0,3.82.43,5.49,1.21v-34.17c0-7.25,5.93-13.18,13.18-13.18h181.28c7.25,0,13.18,5.93,13.18,13.18Z"/>
        <rect class="cls-12" x="193.1" y="142.17" width="175.79" height="107.67" rx="12" ry="12"/>
        <rect class="cls-12" x="497.44" y="144.36" width="175.79" height="107.67" rx="12" ry="12"/>
        <path class="cls-8" d="m530.93,316.36c0,7.88-2.2,15.43-6.21,22.38-13.9,24.15-49.66,41.34-91.58,41.34s-77.64-17.17-91.55-41.31c-4.03-6.97-6.23-14.52-6.23-22.41,0-21.27,15.99-40.1,40.56-51.68,2.49-1.18,5.08-2.27,7.73-3.29,14.51-5.57,31.43-8.76,49.48-8.76s34.97,3.19,49.48,8.76c2.66,1.01,5.23,2.11,7.72,3.29,24.58,11.58,40.57,30.41,40.57,51.68Z"/>
        <path class="cls-10" d="m692.44,653.54c-3.27,9.92-7.98,18.4-14.5,26.54-16.09,5.99-32.31,10.39-49.22,13.35-.12-18.29-.89-36.57,0-54.85,5.79-4.32,10.3-8.49,12.09-15.69-5.14-13.25-13.37-23.98-21.97-35.16,7.07,67.9,12.94,136.03,9.88,204.36-38.74,16.19-79.03,27.21-120.87,30.81-.86.08,1.14-.1-.43.04-1.57.14-6.69.95-8.92,1.36-8.97.41-17.72.68-26.59.84-.5,0-1.01.03-1.48.03-37.18.45-74.22-1.36-110.89-7.81-33.88-5.68-69.38-12.18-98.88-30.76-10.18-49.2-.07-115.39,9.64-164.22-12.69,16.64-28.31,27.67-46.68,37.4-15.03-15.09-26.17-30.56-32.17-51.17,18.55-26.86,39.9-51.1,64.35-72.74.01,0,.05.03.07.04,28.01,13.52,57.14,24.64,87.18,32.31,12.09,3.09,23.44,5.13,35.6,7.15.06,0,.1,0,.16.01,22.79,3.13,45.39,4.33,68.39,3.57.08,0,.14,0,.22,0,11.5-.77,21.93-1.37,33.53-3.18,17.85-2.79,33.97-5.98,52.04-11.29,32.92-9.67,65.49-24.16,95.69-41.11.1-.06.02-.02.05-.04,24.3,29.45,48.35,59.94,63.72,95.17,2.34,11.81,1.71,23.18,0,35.04Z"/>
        <path class="cls-9" d="m432.38,579.61c-16.8,13.57-34.39,27.91-59.36,37.79-15.68-14.28-23.93-30.76-29.92-48.05,28.85,7.67,58.64,10.96,89.28,10.25Z"/>
        <path class="cls-9" d="m532.95,564.12c-.07.15-.12.32-.19.47-.12.33-.25.65-.38.97-8.01,20.22-20,37.7-36.81,51.85-19.81-7.97-39.62-22.74-63.2-37.79,4.91-.11,9.84-.33,14.8-.66.08,0,.15,0,.23-.01,4.06-.26,8.15-.59,12.24-1.01,23.95-2.34,48.4-7,73.3-13.81Z"/>
        <polygon class="cls-10" points="622.58 640.26 628.71 638.59 628.71 693.43 625.88 692.99 622.58 640.26"/>
        <path class="cls-6" d="m164.67,59.34c-8.13-6.53-18.97-10.5-30.87-10.5-12.98,0-24.69,4.72-33,12.32-7.87,7.19-12.7,16.92-12.7,27.65v.21c-24.12,1.11-43.27,18.56-43.27,39.92,0,6,1.52,11.68,4.23,16.8-13.73,6.89-22.97,19.83-22.97,34.67,0,12.49,10.01,21.93,20.9,28.6-7.1,6.43-11.56,15.72-11.56,26.06,0,19.41,15.93,32.42,35.16,35.16,9.81,1.4,25.24-12.73,32.24-27.2,10.1-51.09,35.85-97.56,72.86-135.67,2.48-4.54,3.92-11.33,3.81-18.55-.24-16.6-12.96-27.97-14.82-29.47Z"/>
        <path class="cls-13" d="m810.46,202.56c10.89-6.67,20.9-16.11,20.9-28.6,0-14.84-9.24-27.79-22.97-34.67,2.71-5.12,4.23-10.8,4.23-16.8,0-21.36-19.15-38.81-43.27-39.92v-.21c0-10.73-4.83-20.47-12.7-27.65-8.32-7.59-20.03-12.32-33-12.32-11.9,0-22.74,3.98-30.87,10.5-1.86,1.49-14.58,12.87-14.82,29.47-.13,8.71,1.99,16.79,5.48,21.05.51.63,1.04,1.18,1.62,1.63.24.2.48.37.74.53.21.13.56.56,1.04,1.27,38.16,39.09,64.44,87.07,74.05,139.82,7.78,10.24,18.5,18.17,25.98,17.12,19.22-2.75,35.16-15.74,35.16-35.16,0-10.34-4.46-19.63-11.56-26.06Z"/>
        <path class="cls-11" d="m594.65,425.05c-96.5,62.45-227.04,69.9-323.05,0-3.43-7.97-3.64-15.89,0-23.27,4.18-13.11,13.57-25.29,25.3-37.07,13.05-10.42,28.08-18.93,44.65-25.96.01.01.02.02.03.03,54.57,61.6,148.62,45.27,183.13-.03,17.73,10.29,33.22,20.67,42.2,31.24,11.44,10.05,19.69,22.11,27.73,34.28,3.05,7.5,4.39,14.28,0,20.79Z"/>
        <circle class="cls-9" cx="286.23" cy="196.84" r="26.02"/>
        <circle class="cls-9" cx="571.89" cy="196.84" r="26.02"/>
        <circle class="cls-5" cx="286.17" cy="195.41" r="10.65"/>
        <circle class="cls-5" cx="571.5" cy="196.65" r="10.65"/>
      </g>
    </g>
  </g>
</svg>