<?xml version="1.0" encoding="UTF-8"?>
<svg id="Layer_2" data-name="Layer 2" xmlns="http://www.w3.org/2000/svg" viewBox="0 0 857.44 1023.86">
  <defs>
    <style>
      .cls-1 {
        fill: none;
      }

      .cls-1, .cls-2, .cls-3, .cls-4, .cls-5, .cls-6, .cls-7, .cls-8, .cls-9, .cls-10 {
        stroke-width: 0px;
      }

      .cls-11 {
        fill: #dcd9c4;
        stroke: #000;
        stroke-miterlimit: 10;
      }

      .cls-3 {
        fill: #4a3728;
      }

      .cls-4 {
        fill: #372f12;
      }

      .cls-5 {
        fill: #111820;
      }

      .cls-6 {
        fill: #cd212a;
      }

      .cls-7 {
        fill: #c8c6be;
      }

      .cls-8 {
        fill: #eed9c4;
      }

      .cls-9 {
        fill: #e8ccb0;
      }

      .cls-10 {
        fill: #f4f9ff;
      }
    </style>
  </defs>
  <g id="Layer_1-2" data-name="Layer 1">
    <g>
      <rect class="cls-1" width="857.44" height="1023.86"/>
      <g>
        <path id="bukser" class="cls-4" d="m260.44,782.7c-1.74,62.93,8.98,123.82,24.22,184.66,33.87,6.64,66.7,16.24,97.7,31.58,2.8-28.8,6.62-57.25,16.1-84.71,34.22-49.58,59.16-44.03,89.93,4.48,10.15,25.44,16.42,51.74,20.44,78.79,29.72-16.17,61.81-24.97,95.72-24.69,16.97-60.3,24.79-122.32,24.03-184.93-138.31,48.84-231.8,43.06-368.14-5.17Z"/>
        <path id="venstre_sko" data-name="venstre sko" class="cls-5" d="m257.36,1016.11h126.01l-.76-17.58c-30.15-14.62-62.42-25.45-97.78-30.76-19.98,9.06-29.13,25.18-27.47,48.34Z"/>
        <path id="højre_sko" data-name="højre sko" class="cls-5" d="m507.15,998.54v17.41s128.16.16,128.16.16c-.65-20.32-9.57-36.1-32.96-43.95-40.23.21-76.22.82-95.2,26.37Z"/>
        <path class="cls-3" d="m165.9,999.85c4.3-65.87,7.25-214.56,3.49-305.31-4.95-33.66-17.75-37.54-40.23-33.02-18.8,3.78-20.19,12.34-20.61,27.48,1.57,1.9,6.55,14.43,6.56,14.7.27,6.09-1.73,7.68-4.75,10.93-.02.03-.05,0-.08.03-2.22,1.49-4.52,2.14-7.13,2.47-13.53-1.57-22.23-6.28-28.28-19-3.9-13.5-1.58-24.82,4.97-37.22,21.28-29.72,52.58-40.17,85.59-28.62,17.14,10.2,25.17,25.25,32.06,43.91.04.12.46,2.03.4,2.44,5.67,115.84,2.81,225.62-7.35,329.1,0,.08-.05.2-.06.36-.1,1.58-.11,3.16-.14,4.74,0,.06.03,0-.01.14-.04.15-.08.61-.24.89-4.9,8.73-20.95,14.33-24.77,1.53"/>
        <path class="cls-8" d="m137.61,646.41c2.82,9.43,19.1,19.91,35.16,24.72,19.2,5.76,35.94-11.42,35.16-24.72-.93-15.86-15.75-28.73-35.16-24.72-19.02,3.93-39.08,11.64-35.16,24.72Z"/>
        <path class="cls-6" d="m692.44,650.14c-2.8,9.4-7.49,18.29-14.49,26.54-15.9,6.19-32.3,10.65-49.23,13.34,0-20-1.1-38.67,0-54.85,6.59-4.7,10.99-9.1,12.09-15.69-4.39-13.18-12.91-23.29-21.97-35.16,6.98,66.64,13.18,135.14,9.89,204.35-33.94,14.39-75.49,23.86-120.92,30.82h-.01c-3.1.48-6.21.94-9.35,1.4-8.93.42-17.79.7-26.53.84-.49.02-.98.02-1.47.03-39.38.63-76.67-1.55-110.89-7.81-40.08-6.54-75.77-15.36-98.88-30.76-7.42-32.96-1.94-107.3,9.65-164.21-10.67,15.51-26.97,27.52-46.68,37.39-16.16-15.34-27.72-32.13-32.18-51.17,18.92-27.85,40.49-51.93,64.36-72.74,28.87,14.18,57.98,25.06,87.31,32.39,11.63,2.91,23.3,5.25,35.02,7.02,22.67,3.43,45.47,4.7,68.44,3.71,11.48-.49,22.98-1.56,34.54-3.21,17.13-2.43,34.36-6.14,51.66-11.18,31.67-9.23,63.66-22.89,95.95-41.27,27.08,32.62,51,64.76,63.72,95.17,2.53,10.4,2.07,22.31,0,35.05Z"/>
        <path class="cls-10" d="m432.38,576.2c-16.79,13.58-34.39,27.91-59.35,37.79-15.69-14.28-23.93-30.76-29.92-48.05,28.85,7.67,58.63,10.98,89.27,10.25Z"/>
        <path class="cls-10" d="m532.95,560.71c-.07.16-.12.32-.19.48-.12.32-.25.64-.38.96-8,20.23-19.98,37.7-36.81,51.85-19.8-7.97-39.61-22.73-63.2-37.79,4.7-.11,9.44-.31,14.18-.62,4.38-.27,8.79-.63,13.22-1.07,23.91-2.35,48.31-7.01,73.17-13.81Z"/>
        <g>
          <path class="cls-7" d="m164.67,55.93c-8.13-6.53-18.97-10.5-30.87-10.5-12.97,0-24.69,4.72-33,12.32-7.87,7.19-12.7,16.92-12.7,27.65v.21c-24.12,1.11-43.27,18.56-43.27,39.92,0,6,1.52,11.68,4.23,16.8-13.73,6.89-22.97,19.83-22.97,34.67,0,12.49,10.01,21.93,20.9,28.6-7.1,6.43-11.56,15.72-11.56,26.06,0,19.41,15.94,32.42,35.16,35.16,9.82,1.4,25.24-12.72,32.24-27.19,10.1-51.09,35.85-97.57,72.86-135.68,2.48-4.54,3.92-11.33,3.81-18.55-.24-16.6-12.96-27.97-14.82-29.47Z"/>
          <path class="cls-7" d="m810.46,199.15c10.89-6.67,20.9-16.11,20.9-28.6,0-14.84-9.24-27.79-22.97-34.67,2.71-5.12,4.23-10.8,4.23-16.8,0-21.36-19.15-38.81-43.27-39.92v-.21c0-10.73-4.83-20.47-12.7-27.65-8.32-7.59-20.03-12.32-33-12.32-11.9,0-22.74,3.98-30.87,10.5-1.86,1.49-14.58,12.87-14.82,29.47-.13,8.7,1.99,16.78,5.46,21.04.52.64,1.07,1.19,1.64,1.64.24.2.48.37.74.53.21.13.56.56,1.04,1.27,38.16,39.1,64.44,87.08,74.05,139.83,7.78,10.23,18.5,18.17,25.98,17.11,19.23-2.75,35.16-15.74,35.16-35.16,0-10.34-4.46-19.63-11.56-26.06Z"/>
        </g>
        <path class="cls-8" d="m760.87,243.27c-9.61-52.75-35.89-100.73-74.05-139.83-.58-.6-1.18-1.21-1.78-1.8-.57-.45-1.12-1-1.64-1.64C622.28,39.31,532.08.93,431.5.93s-194.65,40.05-255.82,103.01c-37.01,38.1-62.77,84.59-72.86,135.68-3.14,15.8-4.77,32.05-4.77,48.62,0,103.12,63.05,193.55,157.75,244.23,28.87,14.18,57.98,25.06,87.31,32.39,11.63,2.91,23.3,5.25,35.02,7.02,17.38,2.42,35.2,3.67,53.37,3.67,9.53,0,18.96-.34,28.28-1.02,23.91-2.35,48.31-7.01,73.17-13.81-.07.16-.12.32-.19.48,31.67-9.23,63.66-22.89,95.95-41.27,82.61-52.29,136.24-136.59,136.24-231.69,0-15.3-1.38-30.32-4.08-44.97Zm-75.03,4.87c0,7.25-5.93,13.18-13.18,13.18h-181.28c-.34,0-.68-.01-1.02-.04,24.59,11.58,40.57,30.41,40.57,51.68,0,7.88-2.19,15.41-6.21,22.38,17.73,10.29,33.22,20.67,42.21,31.25,11.43,10.04,19.68,22.09,27.72,34.27,3.05,7.5,4.39,14.28,0,20.79-96.5,62.45-227.03,69.9-323.03,0-3.44-7.97-3.65-15.88,0-23.26,4.16-13.12,13.57-25.3,25.29-37.08,13.05-10.4,28.08-18.92,44.66-25.96-4.02-6.97-6.21-14.5-6.21-22.38,0-21.27,16-40.1,40.57-51.68-.34.03-.68.04-1.02.04h-181.28c-7.25,0-13.18-5.93-13.18-13.18v-108.77c0-7.25,5.93-13.18,13.18-13.18h181.28c7.25,0,13.18,5.93,13.18,13.18v33.15c.71-.12,1.45-.19,2.2-.19h82.4c1.96,0,3.82.43,5.49,1.21v-34.17c0-7.25,5.93-13.18,13.18-13.18h181.28c7.25,0,13.18,5.93,13.18,13.18v108.77Z"/>
        <path class="cls-1" d="m378.13,571.87c-44.3-6.13-85.69-19.79-122.33-39.41,28.87,14.18,57.98,25.06,87.31,32.39,11.63,2.91,23.3,5.25,35.02,7.02Z"/>
        <path class="cls-1" d="m628.71,519.92c-28.91,18.3-61.37,32.69-96.33,42.22-16.57,4.54-33.7,7.98-51.28,10.23-7.04.91-14.15,1.63-21.33,2.14,23.91-2.35,48.31-7.01,73.17-13.81-.07.16-.12.32-.19.48,31.67-9.23,63.66-22.89,95.95-41.27Z"/>
        <path class="cls-8" d="m685.84,139.36v108.77c0,7.25-5.93,13.18-13.18,13.18h-181.28c-.34,0-.68-.01-1.02-.04,24.59,11.58,40.57,30.41,40.57,51.68,0,7.88-2.19,15.41-6.21,22.38,17.73,10.29,33.22,20.67,42.21,31.25,11.43,10.04,19.68,22.09,27.72,34.27,3.05,7.5,4.39,14.28,0,20.79-96.5,62.45-227.03,69.9-323.03,0-3.44-7.97-3.65-15.88,0-23.26,4.16-13.12,13.57-25.3,25.29-37.08,13.05-10.4,28.08-18.92,44.66-25.96-4.02-6.97-6.21-14.5-6.21-22.38,0-21.27,16-40.1,40.57-51.68-.34.03-.68.04-1.02.04h-181.28c-7.25,0-13.18-5.93-13.18-13.18v-108.77c0-7.25,5.93-13.18,13.18-13.18h181.28c7.25,0,13.18,5.93,13.18,13.18v33.15c.71-.12,1.45-.19,2.2-.19h82.4c1.96,0,3.82.43,5.49,1.21v-34.17c0-7.25,5.93-13.18,13.18-13.18h181.28c7.25,0,13.18,5.93,13.18,13.18Z"/>
        <path class="cls-9" d="m530.93,312.95c0,7.88-2.19,15.41-6.21,22.38-13.89,24.16-49.65,41.34-91.58,41.34s-77.68-17.18-91.57-41.34c-4.02-6.97-6.21-14.5-6.21-22.38,0-21.27,16-40.1,40.57-51.68,2.48-1.16,5.05-2.26,7.7-3.27,14.52-5.57,31.44-8.77,49.51-8.77s34.99,3.19,49.51,8.77c2.65,1.01,5.22,2.1,7.7,3.27,24.59,11.58,40.57,30.41,40.57,51.68Z"/>
        <g>
          <path class="cls-2" d="m685.84,139.36v108.77c0,7.25-5.93,13.18-13.18,13.18h-181.28c-.34,0-.68-.01-1.02-.04-2.94-.22-5.61-1.43-7.7-3.27-2.74-2.43-4.46-5.95-4.46-9.87v-34.17c-1.67.78-3.54,1.21-5.49,1.21h-82.4c-.75,0-1.48-.07-2.2-.19v33.15c0,3.91-1.72,7.44-4.46,9.87-2.09,1.85-4.76,3.05-7.7,3.27-.34.03-.68.04-1.02.04h-181.28c-7.25,0-13.18-5.93-13.18-13.18v-108.77c0-7.25,5.93-13.18,13.18-13.18h181.28c7.25,0,13.18,5.93,13.18,13.18v33.15c.71-.12,1.45-.19,2.2-.19h82.4c1.96,0,3.82.43,5.49,1.21v-34.17c0-7.25,5.93-13.18,13.18-13.18h181.28c7.25,0,13.18,5.93,13.18,13.18Z"/>
          <rect class="cls-11" x="193.12" y="139.34" width="175.79" height="107.67" rx="12" ry="12"/>
          <rect class="cls-11" x="497.45" y="141.54" width="175.79" height="107.67" rx="12" ry="12"/>
        </g>
        <path class="cls-10" d="m594.65,421.64c-96.5,62.45-227.03,69.9-323.03,0-3.44-7.97-3.65-15.88,0-23.26,4.16-13.12,13.57-25.3,25.29-37.08,13.05-10.4,28.08-18.92,44.66-25.96,54.57,61.65,148.63,45.32,183.15,0,17.73,10.29,33.22,20.67,42.21,31.25,11.43,10.04,19.68,22.09,27.72,34.27,3.05,7.5,4.39,14.28,0,20.79Z"/>
        <g>
          <path class="cls-5" d="m285.29,238.03s4.23-22.49,34.23-22.49c30.01,0,34.27,22.49,34.27,22.49,0-18.92-15.33-34.25-34.25-34.25-18.92,0-34.25,15.33-34.25,34.25Z"/>
          <path class="cls-5" d="m506.13,238.03s4.23-22.49,34.23-22.49c30.01,0,34.27,22.49,34.27,22.49,0-18.92-15.33-34.25-34.25-34.25-18.92,0-34.25,15.33-34.25,34.25Z"/>
        </g>
      </g>
    </g>
  </g>
</svg>