<?xml version="1.0" encoding="UTF-8"?>
<svg id="Layer_2" data-name="Layer 2" xmlns="http://www.w3.org/2000/svg" viewBox="0 0 879.63 847.93">
  <defs>
    <style>
      .cls-1, .cls-2 {
        fill: none;
      }

      .cls-1, .cls-3, .cls-4, .cls-5, .cls-6, .cls-7, .cls-8, .cls-9, .cls-10, .cls-11, .cls-12, .cls-13, .cls-14, .cls-15, .cls-16, .cls-17, .cls-18, .cls-19 {
        stroke-width: 0px;
      }

      .cls-20 {
        fill: #dcd9c4;
      }

      .cls-20, .cls-2 {
        stroke: #000;
        stroke-miterlimit: 10;
      }

      .cls-4 {
        fill: #4a3728;
      }

      .cls-5 {
        fill: #4e403b;
      }

      .cls-6 {
        fill: #28231d;
      }

      .cls-7 {
        fill: #372f12;
      }

      .cls-8 {
        fill: #111820;
      }

      .cls-9 {
        fill: #c3b9ad;
      }

      .cls-10 {
        fill: #dead75;
      }

      .cls-11 {
        fill: #d8d9d7;
      }

      .cls-12 {
        fill: #b2560d;
      }

      .cls-13 {
        fill: #ffffa7;
      }

      .cls-14 {
        fill: #eed9c4;
      }

      .cls-15 {
        fill: gold;
      }

      .cls-16 {
        fill: #e8ccb0;
      }

      .cls-17 {
        fill: #f4f9ff;
      }

      .cls-18 {
        fill: #6a2b1a;
      }

      .cls-19 {
        fill: #008c45;
      }
    </style>
  </defs>
  <g id="mellemgrund">
    <g id="ramme">
      <g id="ramme-2" data-name="ramme">
        <g>
          <rect class="cls-6" y="126.79" width="879.63" height="721.13"/>
          <rect class="cls-5" x="39.62" y="166.42" width="797.74" height="641.89"/>
          <rect class="cls-9" x="72.64" y="202.08" width="726.42" height="565.29"/>
          <path class="cls-6" d="m467.55,29.06c0,7.13-2.56,13.66-6.82,18.7-3.72,4.44-8.74,7.71-14.48,9.3-2.46.69-5.07,1.06-7.77,1.06-2.91,0-5.71-.42-8.35-1.21-5.81-1.74-10.86-5.23-14.5-9.88-3.88-4.94-6.21-11.17-6.21-17.96,0-16.06,13-29.06,29.06-29.06s29.06,13,29.06,29.06Z"/>
          <path class="cls-6" d="m543.39,126.05l-210.85.24,82.71-76.63h.4c3.64,4.65,8.69,8.14,14.5,9.88l-10.17-.11-67.33,66.04,171.7-.19-67.6-65.48-10.49-.11c5.73-1.58,10.75-4.86,14.48-9.3l82.65,75.65Z"/>
          <path class="cls-17" d="m524.34,125.29l-171.7.19,67.33-66.04,10.17.11c2.64.79,5.44,1.21,8.35,1.21,2.69,0,5.31-.37,7.77-1.06l10.49.11,67.6,65.48Z"/>
        </g>
      </g>
      <g id="mand">
        <path id="bukser" class="cls-7" d="m208.99,683.67c.16,19.74,3.47,41.48,9.26,64.79,13.03,2.27,25.14,5.78,35.81,11.27,1.21-13.74,3.31-23.69,6.04-30.99,11.51-18.89,22.32-17.08,32.6.4,3.67,8.56,5.78,18.05,6.84,28.17,10.69-5.8,24.71-8.19,35.01-7.24,6.58-20.61,9.66-42.43,10.06-65.19-40.08,12.96-84.5,14.61-135.61-1.21Z"/>
        <path id="venstre_sko" data-name="venstre sko" class="cls-8" d="m208.18,766.16h46.15l-.28-6.44c-11.04-5.35-22.86-9.32-35.81-11.27-7.32,3.32-10.67,9.22-10.06,17.71Z"/>
        <path id="højre_sko" data-name="højre sko" class="cls-8" d="m299.67,759.72v6.38s46.94.06,46.94.06c-.24-7.44-3.5-13.22-12.07-16.1-13.97,1.59-26.93,2.25-34.87,9.66Z"/>
        <path class="cls-4" d="m173.17,647.05c.1.55-3.22,90.95-2.41,115.89,6.14,7.28,11.62,7.03,16.5,0,1.99-13.85.55-70.4,0-115.89-1.97-4.29-5.27-6.77-10.06-7.24-5.44-1.45-9.77-4.41-12.88-9.05-4.45-2.14-8.71-1.11-11.36,0-3.33,1.39-5.39,4.8-6.92,8.97-1.05,4.41-1.91,10.78,0,17.93,4.85,8.53,9.07,6.44,12.65-.14.53-4.7-.14-9.25,2.01-12.07,4.75-4.13,8.79-2.66,12.47,1.61Z"/>
        <path class="cls-14" d="m164.32,630.75c1.03,3.45,6.99,7.29,12.88,9.05,7.03,2.11,13.16-4.18,12.88-9.05-.34-5.81-5.77-10.52-12.88-9.05-6.96,1.44-14.31,4.26-12.88,9.05Z"/>
        <path class="cls-19" d="m367.53,632.12c-1.03,3.44-2.74,6.7-5.31,9.72-5.82,2.27-11.83,3.9-18.03,4.89,0-7.32-.4-14.16,0-20.09,2.41-1.72,4.02-3.33,4.43-5.75-1.61-4.83-4.73-8.53-8.05-12.88,2.56,24.41,4.83,49.5,3.62,74.85-12.43,5.27-27.65,8.74-44.29,11.29h0c-1.13.18-2.27.35-3.42.51-3.27.15-6.52.26-9.72.31-.18,0-.36,0-.54.01-14.42.23-28.08-.57-40.62-2.86-14.68-2.39-27.75-5.63-36.22-11.27-2.72-12.07-.71-39.3,3.53-60.14-3.91,5.68-9.88,10.08-17.1,13.69-5.92-5.62-10.15-11.77-11.79-18.74,6.93-10.2,14.83-19.02,23.57-26.64,10.58,5.2,21.24,9.18,31.98,11.86,4.26,1.07,8.54,1.92,12.82,2.57,8.3,1.26,16.66,1.72,25.07,1.36,4.21-.18,8.42-.57,12.65-1.18,6.27-.89,12.58-2.25,18.92-4.1,11.6-3.38,23.32-8.38,35.14-15.11,9.92,11.95,18.68,23.72,23.34,34.86.93,3.81.76,8.17,0,12.84Z"/>
        <path class="cls-17" d="m272.28,605.03c-6.15,4.97-12.6,10.22-21.74,13.84-5.75-5.23-8.76-11.27-10.96-17.6,10.57,2.81,21.47,4.02,32.7,3.75Z"/>
        <path class="cls-17" d="m309.12,599.36c-.02.06-.04.12-.07.18-.04.12-.09.23-.14.35-2.93,7.41-7.32,13.81-13.48,18.99-7.25-2.92-14.51-8.33-23.15-13.84,1.72-.04,3.46-.11,5.2-.23,1.61-.1,3.22-.23,4.84-.39,8.76-.86,17.69-2.57,26.8-5.06Z"/>
        <g>
          <path class="cls-17" d="m174.23,414.48c-2.98-2.39-6.95-3.85-11.31-3.85-4.75,0-9.04,1.73-12.09,4.51-2.88,2.63-4.65,6.2-4.65,10.13v.08c-8.83.41-15.85,6.8-15.85,14.62,0,2.2.56,4.28,1.55,6.15-5.03,2.52-8.41,7.26-8.41,12.7,0,4.58,3.67,8.03,7.65,10.47-2.6,2.35-4.23,5.76-4.23,9.55,0,7.11,5.84,11.88,12.88,12.88,3.6.51,9.24-4.66,11.81-9.96,3.7-18.71,13.13-35.74,26.69-49.69.91-1.66,1.44-4.15,1.4-6.79-.09-6.08-4.75-10.25-5.43-10.79Z"/>
          <path class="cls-17" d="m410.76,466.93c3.99-2.44,7.65-5.9,7.65-10.47,0-5.44-3.38-10.18-8.41-12.7.99-1.88,1.55-3.96,1.55-6.15,0-7.82-7.01-14.21-15.85-14.62v-.08c0-3.93-1.77-7.5-4.65-10.13-3.05-2.78-7.34-4.51-12.09-4.51-4.36,0-8.33,1.46-11.31,3.85-.68.55-5.34,4.71-5.43,10.79-.05,3.19.73,6.14,2,7.71.19.23.39.43.6.6.09.07.18.14.27.19.08.05.21.21.38.47,13.98,14.32,23.6,31.9,27.12,51.21,2.85,3.75,6.78,6.66,9.52,6.27,7.04-1.01,12.88-5.77,12.88-12.88,0-3.79-1.63-7.19-4.23-9.55Z"/>
        </g>
        <path class="cls-14" d="m392.6,483.09c-3.52-19.32-13.15-36.89-27.12-51.21-.21-.22-.43-.44-.65-.66-.21-.17-.41-.37-.6-.6-22.39-22.23-55.42-36.29-92.27-36.29s-71.3,14.67-93.7,37.73c-13.56,13.96-22.99,30.98-26.69,49.69-1.15,5.79-1.75,11.74-1.75,17.81,0,37.77,23.09,70.89,57.78,89.45,10.58,5.2,21.24,9.18,31.98,11.86,4.26,1.07,8.54,1.92,12.82,2.57,6.37.89,12.89,1.34,19.55,1.34,3.49,0,6.95-.12,10.36-.37,8.76-.86,17.69-2.57,26.8-5.06-.02.06-.04.12-.07.18,11.6-3.38,23.32-8.38,35.14-15.11,30.26-19.15,49.9-50.03,49.9-84.86,0-5.61-.51-11.11-1.49-16.47Zm-27.48,1.78c0,2.66-2.17,4.83-4.83,4.83h-66.4c-.12,0-.25,0-.37-.02,9.01,4.24,14.86,11.14,14.86,18.93,0,2.89-.8,5.65-2.27,8.2,6.49,3.77,12.17,7.57,15.46,11.44,4.19,3.68,7.21,8.09,10.15,12.55,1.12,2.75,1.61,5.23,0,7.61-35.34,22.87-83.15,25.6-118.32,0-1.26-2.92-1.34-5.81,0-8.52,1.53-4.8,4.97-9.27,9.26-13.58,4.78-3.81,10.29-6.93,16.36-9.51-1.47-2.55-2.27-5.31-2.27-8.2,0-7.79,5.86-14.69,14.86-18.93-.12.01-.25.02-.37.02h-66.4c-2.66,0-4.83-2.17-4.83-4.83v-39.84c0-2.66,2.17-4.83,4.83-4.83h66.4c2.66,0,4.83,2.17,4.83,4.83v12.14c.26-.04.53-.07.8-.07h30.18c.72,0,1.4.16,2.01.44v-12.52c0-2.66,2.17-4.83,4.83-4.83h66.4c2.66,0,4.83,2.17,4.83,4.83v39.84Z"/>
        <path class="cls-1" d="m252.41,603.45c-16.23-2.25-31.38-7.25-44.8-14.43,10.58,5.2,21.24,9.18,31.98,11.86,4.26,1.07,8.54,1.92,12.82,2.57Z"/>
        <path class="cls-1" d="m344.19,584.42c-10.59,6.7-22.48,11.97-35.28,15.46-6.07,1.66-12.34,2.92-18.78,3.75-2.58.33-5.18.6-7.81.78,8.76-.86,17.69-2.57,26.8-5.06-.02.06-.04.12-.07.18,11.6-3.38,23.32-8.38,35.14-15.11Z"/>
        <path class="cls-14" d="m365.12,445.04v39.84c0,2.66-2.17,4.83-4.83,4.83h-66.4c-.12,0-.25,0-.37-.02,9.01,4.24,14.86,11.14,14.86,18.93,0,2.89-.8,5.65-2.27,8.2,6.49,3.77,12.17,7.57,15.46,11.44,4.19,3.68,7.21,8.09,10.15,12.55,1.12,2.75,1.61,5.23,0,7.61-35.34,22.87-83.15,25.6-118.32,0-1.26-2.92-1.34-5.81,0-8.52,1.53-4.8,4.97-9.27,9.26-13.58,4.78-3.81,10.29-6.93,16.36-9.51-1.47-2.55-2.27-5.31-2.27-8.2,0-7.79,5.86-14.69,14.86-18.93-.12.01-.25.02-.37.02h-66.4c-2.66,0-4.83-2.17-4.83-4.83v-39.84c0-2.66,2.17-4.83,4.83-4.83h66.4c2.66,0,4.83,2.17,4.83,4.83v12.14c.26-.04.53-.07.8-.07h30.18c.72,0,1.4.16,2.01.44v-12.52c0-2.66,2.17-4.83,4.83-4.83h66.4c2.66,0,4.83,2.17,4.83,4.83Z"/>
        <path class="cls-16" d="m308.38,508.62c0,2.89-.8,5.65-2.27,8.2-5.09,8.85-18.18,15.14-33.54,15.14s-28.45-6.29-33.54-15.14c-1.47-2.55-2.27-5.31-2.27-8.2,0-7.79,5.86-14.69,14.86-18.93.91-.43,1.85-.83,2.82-1.2,5.32-2.04,11.52-3.21,18.13-3.21s12.82,1.17,18.13,3.21c.97.37,1.91.77,2.82,1.2,9.01,4.24,14.86,11.14,14.86,18.93Z"/>
        <g>
          <path class="cls-3" d="m365.12,445.04v39.84c0,2.66-2.17,4.83-4.83,4.83h-66.4c-.12,0-.25,0-.37-.02-1.08-.08-2.06-.52-2.82-1.2-1-.89-1.63-2.18-1.63-3.61v-12.52c-.61.29-1.3.44-2.01.44h-30.18c-.27,0-.54-.02-.8-.07v12.14c0,1.43-.63,2.72-1.63,3.61-.76.68-1.74,1.12-2.82,1.2-.12.01-.25.02-.37.02h-66.4c-2.66,0-4.83-2.17-4.83-4.83v-39.84c0-2.66,2.17-4.83,4.83-4.83h66.4c2.66,0,4.83,2.17,4.83,4.83v12.14c.26-.04.53-.07.8-.07h30.18c.72,0,1.4.16,2.01.44v-12.52c0-2.66,2.17-4.83,4.83-4.83h66.4c2.66,0,4.83,2.17,4.83,4.83Z"/>
          <rect class="cls-20" x="184.65" y="445.03" width="64.39" height="39.44" rx="7.57" ry="7.57"/>
          <rect class="cls-20" x="296.12" y="445.83" width="64.39" height="39.44" rx="6.9" ry="6.9"/>
        </g>
        <path class="cls-17" d="m331.72,548.42c-35.34,22.87-83.15,25.6-118.32,0-1.26-2.92-1.34-5.81,0-8.52,1.53-4.8,4.97-9.27,9.26-13.58,4.78-3.81,10.29-6.93,16.36-9.51,19.99,22.58,54.44,16.6,67.08,0,6.49,3.77,12.17,7.57,15.46,11.44,4.19,3.68,7.21,8.09,10.15,12.55,1.12,2.75,1.61,5.23,0,7.61Z"/>
        <g>
          <path class="cls-8" d="m218.41,481.17s1.55-8.24,12.54-8.24c10.99,0,12.55,8.24,12.55,8.24,0-6.93-5.62-12.54-12.54-12.54-6.93,0-12.54,5.62-12.54,12.54Z"/>
          <path class="cls-8" d="m299.29,481.17s1.55-8.24,12.54-8.24c10.99,0,12.55,8.24,12.55,8.24,0-6.93-5.62-12.54-12.54-12.54-6.93,0-12.54,5.62-12.54,12.54Z"/>
        </g>
      </g>
      <g id="dame">
        <g id="Layer_85" data-name="Layer 85">
          <path class="cls-11" d="m527.85,749.54c.04-1.04-.23-1.99-.7-2.87l37.14,1.45c-2.46,3.28-1.96,7.8-.62,12.68l-35.81-11.27Z"/>
          <path class="cls-11" d="m609.28,760.81c.56-4.75.35-8.98-.79-12.59l35.01-1.72c-.27,1.78-.18,3.39.64,4.65l-34.87,9.66Z"/>
        </g>
        <path id="venstre_sko-2" data-name="venstre sko" class="cls-18" d="m517.79,767.25h46.15l-.28-6.44c-11.04-5.35-22.86-9.32-35.81-11.27-7.32,3.32-10.67,9.22-10.06,17.71Z"/>
        <path id="højre_sko-2" data-name="højre sko" class="cls-18" d="m609.28,760.81v6.38s46.94.06,46.94.06c-.24-7.44-3.5-13.22-12.07-16.1-13.97,1.59-26.93,2.25-34.87,9.66Z"/>
        <g id="hoved">
          <path class="cls-14" d="m700.33,525.55c-4.38,2.3-8.92,1.59-13.51-.21-7.71,23.27-25.58,42.82-49.19,54.83-5.33,2.61-10.64,4.82-15.92,6.64,0,0-.02,0-.02.01-1.9.63-3.81,1.22-5.76,1.75,0-.02.02-.05.03-.07-2.88.8-5.73,1.5-8.57,2.1-.01,0-.02.01-.03.01-7.82,1.56-15.99,2.39-24.36,2.39-49.7,0-91.57-29.07-104.14-68.64-7.2,1.83-13.16.63-17.36-4.86-4.7-7.93-5.44-15.42-.3-22.26,1.67.79,3.57,1.2,5.56,1.21,2.23.01,5.44-2.89,7.99-6.5l.38,2.98c.21-3.75.67-7.44,1.39-11.05,2.62-10.18,6.68-20.19,11.89-29.53,6.67-10.46,15.58-19.68,26.17-27.2,8.55-6.07,18.2-11.03,28.65-14.61,3.96-1.36,8.03-2.52,12.21-3.46h.01c1.38-.33,2.78-.62,4.2-.88,7.51-1.44,15.33-2.2,23.35-2.2,9.61,0,18.94,1.09,27.81,3.13,2.47.57,4.9,1.21,7.29,1.93,2,.59,3.96,1.23,5.9,1.92,12.26,4.83,23.73,11.66,33.94,20.08,1.78,1.47,3.52,2.99,5.22,4.55t0,.01c1.37,1.41,2.71,2.87,4,4.37,6.72,7.79,12.35,16.64,16.61,26.36.02.04.04.08.06.13,1.78,3.67,3.38,7.48,4.77,11.44.85,3.41,1.47,6.89,1.87,10.43,1.44-.24,2.88-.29,4.32-.1,2.19,1.62,4.42,2.62,6.21,2.56,12.17,10.68,12.02,22.43-.68,32.74Z"/>
        </g>
        <g id="hår">
          <path class="cls-17" d="m714.17,475.92c1.12,8.32-4.61,14.7-12.24,16.77-.29.08-.6.12-.92.12-1.79.06-4.02-.94-6.21-2.56-1.42-1.03-2.82-2.32-4.08-3.74-.64-2.24-1.34-4.44-2.11-6.59-1.39-3.96-2.99-7.77-4.77-11.44-.02-.05-.04-.09-.06-.13-4.26-9.72-9.89-18.57-16.61-26.36-1.29-1.5-2.63-2.96-4-4.37t0-.01c-1.7-1.56-3.44-3.08-5.22-4.55-10.21-8.42-21.68-15.25-33.94-20.08-1.94-.69-3.9-1.33-5.9-1.92-2.39-.72-4.82-1.36-7.29-1.93-8.87-2.04-18.2-3.13-27.81-3.13-8.02,0-15.84.76-23.35,2.2-1.42.26-2.82.55-4.2.88h-.01c-4.18.94-8.25,2.1-12.21,3.46-10.45,3.58-20.1,8.54-28.65,14.61-10.59,7.52-19.5,16.74-26.17,27.2-5.21,9.34-9.27,19.35-11.89,29.53-.69,2.68-1.28,5.37-1.77,8.07-2.55,3.61-5.76,6.51-7.99,6.5-1.99-.01-3.89-.42-5.56-1.21-3.68-1.73-6.24-5.3-6.16-10.51.06-4.13,1.78-8.04,4.42-10.84-3.96-2.52-7.73-6.39-7.69-11.86.06-6.65,3.79-12.51,9.17-15.46-.97-2.41-1.5-5.09-1.43-7.91.21-8.92,6-15.84,13.32-17.07.28-1.97,1.58-5.63,1.58-5.63,0,0,3.16-5.65,5.43-7.76,3.56-3.32,8.05-5.27,12.69-5.17h.09c-1.62-13.03,9.71-17.61,18.4-17.14,2.39.14,4.57.87,6.47,2.05,3.24-5.31,8.58-8.63,14.14-8.25,3.5.24,6.09,2.67,7.99,5.71.38-.81.82-1.61,1.33-2.39,2.75-4.26,6.79-7.16,11.06-8.37,4-1.14,8.22-.81,11.75,1.28l.07.04c5.23-7.52,14.71-10.21,21.62-6.12,1.94,1.15,3.48,2.72,4.62,4.56,4.85-3.02,10.74-3.46,15.49-.65,3.97,2.37,5.14,7.3,5.25,12.02,1.15-1.72,2.64-3.26,4.4-4.49,3.76-2.64,8.1-3.48,12.04-2.67,3.76.78,7.13,3.05,9.26,6.65l.05.08c7.61-4.62,17.13-2.69,21.51,4.66,1.23,2.07,1.9,4.35,2.08,6.68,5.86-.45,11.56,2.17,14.67,7.36.51.85.87,1.73,1.09,2.64,1.78.48,3.42,1.23,4.86,2.21,3.17,2.19,5.35,5.51,5.8,9.51v.07c9.04-.97,17.09,4.55,18.18,12.79.3,2.35,0,4.66-.78,6.82,5.68,1.97,9.99,6.64,10.82,12.65.72,5.1-2.74,9.51-6.68,12.83,3.17,2.31,5.48,5.99,6.06,10.36Z"/>
        </g>
        <path class="cls-10" d="m593.5,535.5c0,2.76-12,2.76-12,0s2.69-5,6-5,6,2.24,6,5Z"/>
        <path class="cls-12" d="m616.5,560.5c-2.39.3-4.44.06-6-1-.39.86-.82,1.64-1.31,2.35-1.39,2.01-3.23,3.46-5.69,4.65-2.65,1.69-7.73,1.75-14,1-4.72-1.12-8.72-2.8-10.58-6.13-.15-.28-.29-.57-.42-.87-.35-1.79-.04-3.21,3-3,1.77,1.37,3.92,2.63,6.36,3.8.85.41,1.73.81,2.64,1.2,2.66,1.74,6.64,1.21,11,0,.53-.3,1.06-.61,1.56-.95,1.72-1.13,3.25-2.46,4.44-4.05-1.76-.81-2.55-2.29-3-4,.49-1.63,1.37-2.26,3-1,.65,3.91,3.99,5.63,9,6,2,.81,1.59,1.45,0,2Z"/>
        <g id="briller">
          <path class="cls-18" d="m563.5,511.5c0,16.57-13.43,30-30,30s-30-13.43-30-30c0-3.05.46-5.99,1.3-8.77,3.75-12.29,15.18-21.23,28.7-21.23s25.91,9.71,29.13,22.81c.57,2.3.87,4.71.87,7.19Z"/>
          <circle class="cls-18" cx="632.5" cy="511.5" r="30"/>
          <path class="cls-18" d="m602.5,511.5c-12.68-6.93-25.67-6.98-39,0l-.87-7.19c13.75-5.32,27.38-5.43,40.88-.19l-1.01,7.39Z"/>
          <path class="cls-17" d="m560,511.13c0,14.6-11.84,26.44-26.44,26.44s-26.44-11.84-26.44-26.44,11.84-26.44,26.44-26.44c12.42,0,22.84,8.56,25.68,20.1.5,2.03.76,4.15.76,6.34Z"/>
          <path class="cls-17" d="m658.56,511.69c0,14.6-11.84,26.44-26.44,26.44s-26.44-11.84-26.44-26.44,11.84-26.44,26.44-26.44c12.42,0,22.84,8.56,25.68,20.1.5,2.03.76,4.15.76,6.34Z"/>
          <path class="cls-18" d="m476.33,485.01c9.4,3.11,18.91,9.51,28.47,17.72l-1.3,3.77c-10.68-6.78-21.29-13.46-28.75-14.55l1.58-6.94Z"/>
          <path class="cls-18" d="m662.3,508.31c9.4-7.95,18.79-14.21,28.16-17.89l-.62-5.36c-10.11,5.21-19.61,11.44-28.45,18.77l.9,4.47Z"/>
        </g>
        <g id="_øjne" data-name="øjne">
          <ellipse class="cls-6" cx="546.5" cy="512" rx="6" ry="8.5"/>
          <ellipse class="cls-3" cx="618.5" cy="510" rx="6" ry="8.5"/>
        </g>
        <g id="bluse">
          <path class="cls-15" d="m615.93,588.57c-1.3,27.58-.1,62.17,2.07,99.43l47-3c-.12-15.44-1.75-29.99-6-43l10,14c5.84-.7,9.68-3.53,12-8-6.61-31.06-29.74-50.08-65.07-59.43Z"/>
          <line class="cls-2" x1="553.69" y1="588.99" x2="556" y2="687"/>
          <path class="cls-15" d="m556,687c.62-33.13,0-65.86-2.31-98.01-29.94,10.73-53.41,28.84-63.69,56.01.9,4.2,4.7,7.37,10,10,4.88-1.7,8.76-5.63,12-11-3.71,8.35-5.36,25.16-7,42,16.28,2.44,33.25,2.89,51,1"/>
        </g>
        <g id="kjole">
          <path class="cls-13" d="m618,688l47-3c2.11,22.25.86,43.29-5.5,62.5-53.35,1.98-103.05,2.28-145-1-8.49-19.3-11.46-39.5-9.5-60.5,15.12,2.48,32.46,2.42,51,1l-2-79.93c19.44,2.39,40.01,2.74,61.5,1.43l2.5,79.5Z"/>
        </g>
        <g id="hals">
          <path class="cls-14" d="m554,607.07c19.55,2.07,40.11,2.46,61.5,1.43l.43-19.93c-21.49,5.53-42.29,6.12-62.24.42l.3,18.08Z"/>
        </g>
        <g id="arme">
          <path class="cls-14" d="m500,655l-7.09,8.98c-.61,3.37-4.69,7.02-9.41,5.71-4.41-1.24-8.9-4.02-9.72-6.58-1.08-3.39,3.82-5.55,8.78-6.74l-1.06-.87,8.5-10.5,10,10Z"/>
          <path class="cls-14" d="m694.11,664.26c-.82,2.55-5.32,5.33-9.73,6.57-5.27,1.48-9.76-3.29-9.48-6.91.02-.32.07-.63.15-.94l-6.05-6.98,12-8,5.5,9.5-.38.21c4.67,1.24,9.01,3.34,7.99,6.55Z"/>
        </g>
      </g>
    </g>
  </g>
</svg>