<?xml version="1.0" encoding="UTF-8"?>
<svg id="Layer_2" data-name="Layer 2" xmlns="http://www.w3.org/2000/svg" viewBox="0 0 724.16 501.44">
  <defs>
    <style>
      .cls-1 {
        fill: #85807d;
      }

      .cls-1, .cls-2 {
        stroke-width: 0px;
      }

      .cls-2 {
        fill: gold;
      }
    </style>
  </defs>
  <g id="mellemgrund2">
    <g id="lys">
      <path class="cls-1" d="m405.93,159.11h159.03s159.19,0,159.19,0C724.16,71.24,652.92,0,565.04,0c-87.87,0-159.11,71.24-159.11,159.11Z"/>
      <path class="cls-2" d="m526.62,159.11h38.59s38.62,0,38.62,0c0,17.49-17.28,31.66-38.61,31.66-21.32,0-38.61-14.18-38.61-31.66Z"/>
    </g>
    <g id="lys-2" data-name="lys">
      <path class="cls-1" d="m0,469.78h159.03s159.19,0,159.19,0c0-87.87-71.24-159.11-159.11-159.11C71.24,310.67,0,381.9,0,469.78Z"/>
      <path class="cls-2" d="m120.69,469.78h38.59s38.62,0,38.62,0c0,17.49-17.28,31.66-38.61,31.66-21.32,0-38.61-14.18-38.61-31.66Z"/>
    </g>
  </g>
</svg>