<?xml version="1.0" encoding="UTF-8"?>
<svg id="Layer_2" data-name="Layer 2" xmlns="http://www.w3.org/2000/svg" viewBox="0 0 630 219">
  <defs>
    <style>
      .cls-1 {
        opacity: .91;
      }

      .cls-1, .cls-2, .cls-3, .cls-4, .cls-5, .cls-6 {
        stroke-width: 0px;
      }

      .cls-1, .cls-5 {
        fill: #f4f9ff;
      }

      .cls-3 {
        fill: #cd212a;
      }

      .cls-4 {
        fill: #fff;
      }

      .cls-6 {
        fill: #008c45;
      }
    </style>
  </defs>
  <g id="Layer_3" data-name="Layer 3">
    <g id="play_again_knap">
      <g>
        <path id="grøn" class="cls-4" d="m210.25,0v219H18.02c-9.91,0-18.02-8.63-18.02-19.18V19.18C0,8.63,8.11,0,18.02,0h192.23Z"/>
        <rect id="hvid" class="cls-4" x="210.25" width="210.25" height="219"/>
        <path id="rød" class="cls-4" d="m630,19.18v180.64c0,10.55-8.11,19.18-18.02,19.18h-191.48V0h191.48c9.91,0,18.02,8.63,18.02,19.18Z"/>
      </g>
      <g id="play_again_kanp">
        <g>
          <path id="grøn-2" data-name="grøn" class="cls-6" d="m213.43,9.75v199.51H27.03c-9.61,0-17.47-7.86-17.47-17.47V27.22c0-9.61,7.86-17.47,17.47-17.47h186.4Z"/>
          <rect id="hvid-2" data-name="hvid" class="cls-5" x="213.43" y="9.75" width="203.87" height="199.51"/>
          <path id="rød-2" data-name="rød" class="cls-3" d="m620.45,27.22v164.56c0,9.61-7.86,17.47-17.47,17.47h-185.67V9.75h185.67c9.61,0,17.47,7.86,17.47,17.47Z"/>
          <rect class="cls-1" x="30.67" y="61.44" width="562.11" height="100.48" rx="12" ry="12"/>
        </g>
        <g>
          <path class="cls-2" d="m42.96,147.83c-3.92,0-6.23-2.31-6.23-6.73v-50.44c0-5.22,2.91-8.24,7.74-8.24h16.88c17.28,0,26.83,7.64,26.83,22.01s-9.24,21.9-26.73,21.9h-9.85v14.77c0,4.22-2.21,6.73-6.43,6.73h-2.21Zm18.19-32.66c8.24,0,12.56-3.72,12.56-10.65s-4.32-10.55-12.56-10.55h-9.75v21.2h9.75Z"/>
          <path class="cls-2" d="m104.05,147.43c-4.82,0-7.74-2.91-7.74-8.14v-50.54c0-4.52,2.21-6.73,6.23-6.73h2.11c4.32,0,6.53,2.21,6.53,6.73v45.62h24.32c4.52,0,6.93,2.11,6.93,6.23v.4c0,4.12-2.41,6.43-6.93,6.43h-31.45Z"/>
          <path class="cls-2" d="m145.44,143.61l22.21-57.38c.9-2.71,3.01-4.42,9.75-4.42s8.64,1.71,9.55,4.42l22.61,57.27c.5,1.21-3.52,4.62-7.94,4.62-3.22,0-6.53-1.71-8.64-7.03l-3.92-10.15h-23.71l-4.02,10.35c-1.81,5.12-4.92,6.83-8.04,6.83-4.22,0-8.24-3.22-7.84-4.52Zm22.81-23.81h17.78l-8.94-23.61-8.84,23.61Z"/>
          <path class="cls-2" d="m239.79,147.83c-4.12,0-6.33-2.31-6.33-6.73v-19.8l-22.71-33.46c-.5-.9,2.11-5.83,9.45-5.83,2.61,0,5.12,1.61,7.03,5.22l13.67,22.21,13.87-22.21c2.21-3.82,4.72-5.22,7.13-5.22,6.63,0,9.55,5.02,9.04,5.83l-22.61,33.46v19.8c0,4.42-2.21,6.73-6.53,6.73h-2.01Z"/>
          <path class="cls-2" d="m289.23,143.61l22.21-57.38c.9-2.71,3.01-4.42,9.75-4.42s8.64,1.71,9.55,4.42l22.61,57.27c.5,1.21-3.52,4.62-7.94,4.62-3.22,0-6.53-1.71-8.64-7.03l-3.92-10.15h-23.71l-4.02,10.35c-1.81,5.12-4.92,6.83-8.04,6.83-4.22,0-8.24-3.22-7.84-4.52Zm22.81-23.81h17.78l-8.94-23.61-8.84,23.61Z"/>
          <path class="cls-2" d="m415.83,111.86c4.62,0,6.13,2.41,6.13,7.03v27.53c0,.4-2.21,1.41-4.92,1.41-3.31,0-6.43-1.41-7.23-7.74l-.3-1.41c-3.62,6.13-10.65,9.85-20.5,9.85-18.49,0-30.75-14.07-30.75-33.56s13.97-33.96,34.36-33.96c8.04,0,14.27,1.91,18.59,4.62,4.32,2.71,6.53,6.23,6.53,9.65,0,5.83-7.13,7.54-7.64,7.03-3.72-5.53-10.25-8.54-16.78-8.54-11.56,0-20,8.74-20,21.7s7.44,21.81,19.09,21.81c8.44,0,14.57-4.42,15.98-10.95l.3-3.22h-11.25c-4.72,0-7.13-1.31-7.13-5.33v-.6c0-4.22,2.41-5.32,7.13-5.32h18.39Z"/>
          <path class="cls-2" d="m427.99,143.61l22.21-57.38c.9-2.71,3.01-4.42,9.75-4.42s8.64,1.71,9.55,4.42l22.61,57.27c.5,1.21-3.52,4.62-7.94,4.62-3.22,0-6.53-1.71-8.64-7.03l-3.92-10.15h-23.71l-4.02,10.35c-1.81,5.12-4.92,6.83-8.04,6.83-4.22,0-8.24-3.22-7.84-4.52Zm22.81-23.81h17.78l-8.94-23.61-8.84,23.61Z"/>
          <path class="cls-2" d="m499.73,88.75c0-4.52,2.21-6.73,6.33-6.73h2.01c4.32,0,6.53,2.21,6.53,6.73v52.35c0,4.42-2.21,6.73-6.53,6.73h-2.01c-4.12,0-6.33-2.31-6.33-6.73v-52.35Z"/>
          <path class="cls-2" d="m533.19,147.83c-4.02,0-6.13-2.31-6.13-6.73v-51.75c0-4.72,2.41-7.34,6.43-7.34h1.81c3.92,0,5.22,1.31,7.54,4.22l28.14,38.79v-36.27c0-4.42,2.11-6.73,6.33-6.73h1.51c4.02,0,6.13,2.31,6.13,6.73v51.75c0,4.82-2.41,7.34-6.43,7.34h-1.1c-3.92,0-5.02-1.01-7.03-3.72l-29.34-40.09v37.08c0,4.42-2.11,6.73-6.43,6.73h-1.41Z"/>
        </g>
      </g>
    </g>
  </g>
</svg>