<?xml version="1.0" encoding="UTF-8"?>
<svg id="Layer_2" data-name="Layer 2" xmlns="http://www.w3.org/2000/svg" viewBox="0 0 610.89 199.51">
  <defs>
    <style>
      .cls-1 {
        opacity: .91;
      }

      .cls-1, .cls-2, .cls-3, .cls-4, .cls-5 {
        stroke-width: 0px;
      }

      .cls-1, .cls-4 {
        fill: #f4f9ff;
      }

      .cls-3 {
        fill: #cd212a;
      }

      .cls-5 {
        fill: #008c45;
      }
    </style>
  </defs>
  <g id="Layer_3" data-name="Layer 3">
    <g id="play_knap">
      <g id="play_knap-2" data-name="play_knap">
        <g>
          <path id="grøn" class="cls-5" d="m203.87,0v199.51H17.47c-9.61,0-17.47-7.86-17.47-17.47V17.47C0,7.86,7.86,0,17.47,0h186.4Z"/>
          <rect id="hvid" class="cls-4" x="203.87" width="203.87" height="199.51"/>
          <path id="rød" class="cls-3" d="m610.89,17.47v164.56c0,9.61-7.86,17.47-17.47,17.47h-185.67V0h185.67c9.61,0,17.47,7.86,17.47,17.47Z"/>
          <rect class="cls-1" x="21.12" y="51.7" width="562.11" height="100.48" rx="12" ry="12"/>
        </g>
        <g>
          <path class="cls-2" d="m193.9,133.07c-3.92,0-6.23-2.31-6.23-6.73v-50.45c0-5.23,2.91-8.24,7.74-8.24h16.88c17.28,0,26.83,7.64,26.83,22.01s-9.25,21.91-26.73,21.91h-9.85v14.77c0,4.22-2.21,6.73-6.43,6.73h-2.21Zm18.19-32.66c8.24,0,12.56-3.72,12.56-10.65s-4.32-10.55-12.56-10.55h-9.75v21.2h9.75Z"/>
          <path class="cls-2" d="m254.99,132.67c-4.82,0-7.74-2.91-7.74-8.14v-50.55c0-4.52,2.21-6.73,6.23-6.73h2.11c4.32,0,6.53,2.21,6.53,6.73v45.62h24.32c4.52,0,6.93,2.11,6.93,6.23v.4c0,4.12-2.41,6.43-6.93,6.43h-31.45Z"/>
          <path class="cls-2" d="m296.38,128.85l22.21-57.38c.9-2.71,3.01-4.42,9.75-4.42s8.64,1.71,9.55,4.42l22.61,57.28c.5,1.21-3.52,4.62-7.94,4.62-3.22,0-6.53-1.71-8.64-7.03l-3.92-10.15h-23.71l-4.02,10.35c-1.81,5.13-4.92,6.83-8.04,6.83-4.22,0-8.24-3.21-7.84-4.52Zm22.81-23.82h17.79l-8.94-23.62-8.84,23.62Z"/>
          <path class="cls-2" d="m390.74,133.07c-4.12,0-6.33-2.31-6.33-6.73v-19.8l-22.71-33.46c-.5-.9,2.11-5.83,9.45-5.83,2.61,0,5.12,1.61,7.03,5.23l13.67,22.21,13.87-22.21c2.21-3.82,4.72-5.23,7.13-5.23,6.63,0,9.55,5.02,9.04,5.83l-22.61,33.46v19.8c0,4.42-2.21,6.73-6.53,6.73h-2.01Z"/>
        </g>
      </g>
    </g>
  </g>
</svg>