<?xml version="1.0" encoding="UTF-8"?>
<svg id="Layer_2" data-name="Layer 2" xmlns="http://www.w3.org/2000/svg" viewBox="0 0 1920.11 1080.55">
  <defs>
    <style>
      .cls-1 {
        fill: #4e403b;
      }

      .cls-1, .cls-2, .cls-3, .cls-4, .cls-5, .cls-6, .cls-7, .cls-8, .cls-9 {
        stroke-width: 0px;
      }

      .cls-2 {
        fill: #28231d;
      }

      .cls-3 {
        fill: #dead75;
      }

      .cls-4 {
        fill: #cd212a;
      }

      .cls-5 {
        fill: #dbe0e5;
      }

      .cls-6 {
        fill: #bfbfbd;
      }

      .cls-7 {
        fill: #d8d9d7;
      }

      .cls-8 {
        fill: #73706a;
      }

      .cls-9 {
        fill: #f4f9ff;
      }
    </style>
  </defs>
  <g id="Layer_110" data-name="Layer 110">
    <rect id="baggrund" class="cls-9" x=".07" width="1920" height="1080"/>
    <path class="cls-5" d="m0,.55v1080h848.57V.55H0Z"/>
    <path id="rund" class="cls-5" d="m734.75,1079.55h591.24s591.84,0,591.84,0c5.26-185.22.11-347.11-2.29-484.6-13.2-754.2-1108.76-823.69-1180.54.3-4.95,56.87-10.28,202.76-.24,484.3Z"/>
    <g id="under">
      <rect class="cls-2" x="49.06" y="639.78" width="740.99" height="438.22" rx="12" ry="12"/>
      <rect class="cls-6" x="68.93" y="715.55" width="689.1" height="361.45" rx="12" ry="12"/>
      <rect class="cls-2" x="162.93" y="793.55" width="496.9" height="284.45" rx="12" ry="12"/>
    </g>
    <g id="ovn">
      <path class="cls-2" d="m330.41,298.55l-2.16-124.54h178.52v122.32c-59.02-11.51-117.82-11.86-176.36,2.22Z"/>
      <rect class="cls-2" x="303.14" y="67.24" width="227.79" height="106.77" rx="12.02" ry="12.02"/>
      <rect class="cls-6" x="312.93" y="79.9" width="206.18" height="80.65" rx="9.4" ry="9.4"/>
      <path class="cls-6" d="m342.95,291.45l-1.84-113.89h151.86v111.86c-50.2-10.53-100.22-10.84-150.02,2.03Z"/>
      <path class="cls-2" d="m421.91,283.8c-6.33,0-12.63.15-18.87.44-2.71.12-5.42.26-8.17.47-.79.06-1.61.12-2.42.17-.79.06-1.61.12-2.42.18-1.37.12-2.74.23-4.11.35-.32.03-.64.06-.96.09-2.33.2-4.64.47-6.94.7-2.3.26-4.61.53-6.91.82-3.44.44-6.88.93-10.33,1.46-2.01.32-4.02.64-6.04.99-4.14.7-8.31,1.46-12.48,2.3-2.42.5-4.81.99-7.23,1.52-1.43.32-2.89.64-4.29.96v.03C172.26,331.31,55.12,462.75,55.12,619.14h733.58c0-185.19-164.22-335.35-366.79-335.35Zm52.82,100.08v.03l-22.78,88.73-1.49,5.89-.03.09c-.79,2.01-2.1,3.73-3.73,5.02l-.03.03c-2.65,2.98-6.53,4.87-10.82,4.87h-32.08c-7.41,0-13.56-5.6-14.44-12.78-.06-.03-.09-.06-.15-.09l-19.1-93.1c-.85-1.92-1.31-4.08-1.31-6.33.23-3.12.96-5.89,2.28-8.2.15-.26.29-.52.47-.76.29-.44.58-.85.93-1.25.32-.38.67-.76,1.02-1.14.29-.29.58-.55.88-.79.29-.23.58-.47.9-.7,2.42-1.66,5.6-2.77,9.57-3.21h75.84c1.6,0,3.15.23,4.61.67,2.22.9,4.14,1.93,5.78,3.18.06,0,.09.03.15.09,3.38,2.95,5.51,7.29,5.51,12.1,0,2.77-.7,5.37-1.95,7.64Z"/>
      <rect class="cls-8" x="37.66" y="619.16" width="768.5" height="76.85" rx="5" ry="5"/>
      <g>
        <rect class="cls-6" x="56.54" y="634.96" width="81.84" height="46.85" rx="8.91" ry="8.91"/>
        <rect class="cls-6" x="701.82" y="634.92" width="81.84" height="46.85" rx="8.91" ry="8.91"/>
        <rect class="cls-6" x="596.6" y="634.97" width="81.84" height="46.85" rx="8.91" ry="8.91"/>
        <rect class="cls-6" x="162.6" y="634.97" width="81.84" height="46.85" rx="8.91" ry="8.91"/>
        <rect class="cls-6" x="487.6" y="634.77" width="81.84" height="46.85" rx="8.91" ry="8.91"/>
        <rect class="cls-6" x="379.36" y="635.25" width="81.84" height="46.85" rx="8.91" ry="8.91"/>
        <rect class="cls-6" x="269.86" y="634.61" width="81.84" height="46.85" rx="8.91" ry="8.91"/>
      </g>
      <path class="cls-6" d="m421.91,301.27c-190.99,0-345.79,142.31-345.82,317.87v.03h691.63v-.03c-.03-175.56-154.82-317.87-345.82-317.87Zm-50.87,66.77c.15-.26.29-.52.47-.76.29-.44.58-.85.93-1.25.32-.38.67-.76,1.02-1.14.29-.29.58-.55.88-.79.29-.23.58-.47.9-.7,2.42-1.66,5.6-2.77,9.57-3.21h75.84c1.6,0,3.15.23,4.61.67,2.22.9,4.14,1.93,5.78,3.18.06,0,.09.03.15.09,3.38,2.95,5.51,7.29,5.51,12.1,0,2.77-.7,5.37-1.95,7.64v.03l-22.78,88.73-1.49,5.89-.03.09c-.79,2.01-2.1,3.73-3.73,5.02l-.03.03c-2.65,2.98-6.53,4.87-10.82,4.87h-32.08c-7.41,0-13.56-5.6-14.44-12.78-.06-.03-.09-.06-.15-.09l-19.1-93.1c-.85-1.92-1.31-4.08-1.31-6.33.23-3.12.96-5.89,2.28-8.2Z"/>
      <g id="sten">
        <path class="cls-8" d="m560.07,438.51c-.56,1.32-1.59,2.33-2.96,3.03h0s-34.46,35.15-34.46,35.15l-2.27,2.34-.04.03c-.98.71-2.28,1.13-3.73,1.23h-.03c-2.53.6-5.74.3-8.87-1.02l-23.39-9.9c-5.4-2.29-8.76-6.85-7.95-10.53-.04-.03-.05-.05-.09-.09l4.81-50.14c-.23-1.18-.14-2.35.32-3.41.8-1.41,1.89-2.5,3.31-3.19.16-.08.32-.16.49-.22.3-.12.6-.22.93-.31.31-.08.64-.15.97-.23.27-.05.54-.08.8-.1.26-.02.52-.04.8-.05,2.1-.04,4.64.41,7.62,1.43l55.28,23.4c1.17.49,2.25,1.08,3.22,1.74,1.43,1.11,2.63,2.19,3.57,3.29.04.02.06.04.09.09,1.87,2.44,2.55,5.17,1.58,7.45Z"/>
        <path class="cls-8" d="m635.63,515.47c-1.03,1-2.37,1.53-3.91,1.64h-.01s-45.4,19.01-45.4,19.01l-3,1.28-.05.02c-1.18.28-2.54.15-3.92-.31h-.03c-2.57-.44-5.41-1.96-7.77-4.39l-17.71-18.21c-4.09-4.2-5.41-9.71-3.24-12.79-.02-.04-.03-.07-.05-.11l23.9-44.34c.25-1.17.79-2.21,1.62-3.02,1.28-.99,2.71-1.57,4.29-1.66.18-.01.35-.02.54,0,.32,0,.63.03.98.08.32.05.65.11.98.17.27.06.53.13.77.21.25.08.49.16.76.26,1.95.78,4.12,2.18,6.47,4.27l41.85,43.03c.89.91,1.65,1.87,2.3,2.86.89,1.58,1.57,3.04,2.01,4.42.03.03.04.06.05.11.78,2.98.35,5.75-1.44,7.48Z"/>
        <path class="cls-8" d="m209.67,515.97c1.03,1,2.37,1.53,3.91,1.64h.01s45.4,19.01,45.4,19.01l3,1.28.05.02c1.18.28,2.54.15,3.92-.31h.03c2.57-.44,5.41-1.96,7.77-4.39l17.71-18.21c4.09-4.2,5.41-9.71,3.24-12.79.02-.04.03-.07.05-.11l-23.9-44.34c-.25-1.17-.79-2.21-1.62-3.02-1.28-.99-2.71-1.57-4.29-1.66-.18-.01-.35-.02-.54,0-.32,0-.63.03-.98.08-.32.05-.65.11-.98.17-.27.06-.53.13-.77.21-.25.08-.49.16-.76.26-1.95.78-4.12,2.18-6.47,4.27l-41.85,43.03c-.89.91-1.65,1.87-2.3,2.86-.89,1.58-1.57,3.04-2.01,4.42-.03.03-.04.06-.05.11-.78,2.98-.35,5.75,1.44,7.48Z"/>
        <path class="cls-8" d="m280.13,437.8c.56,1.32,1.59,2.33,2.96,3.03h0s34.46,35.15,34.46,35.15l2.27,2.34.04.03c.98.71,2.28,1.13,3.73,1.23h.03c2.53.6,5.74.3,8.87-1.02l23.39-9.9c5.4-2.29,8.76-6.85,7.95-10.53.04-.03.05-.05.09-.09l-4.81-50.14c.23-1.18.14-2.35-.32-3.41-.8-1.41-1.89-2.5-3.31-3.19-.16-.08-.32-.16-.49-.22-.3-.12-.6-.22-.93-.31-.31-.08-.64-.15-.97-.23-.27-.05-.54-.08-.8-.1-.26-.02-.52-.04-.8-.05-2.1-.04-4.64.41-7.62,1.43l-55.28,23.4c-1.17.49-2.25,1.08-3.22,1.74-1.43,1.11-2.63,2.19-3.57,3.29-.04.02-.06.04-.09.09-1.87,2.44-2.55,5.17-1.58,7.45Z"/>
        <path class="cls-8" d="m174.93,613.06c1.37.42,2.81.28,4.22-.32h.01s49.07-3.76,49.07-3.76l3.25-.23h.05c1.18-.3,2.33-1.03,3.34-2.07l.02-.02c2.09-1.56,3.92-4.2,4.92-7.45l7.47-24.27c1.72-5.61.4-11.11-2.94-12.86,0-.05,0-.07,0-.12l-41.47-28.59c-.75-.93-1.71-1.61-2.82-1.95-1.59-.3-3.13-.17-4.57.48-.16.07-.33.14-.48.24-.28.15-.55.31-.84.52-.26.19-.53.39-.8.6-.21.18-.41.36-.59.54-.18.18-.37.37-.56.58-1.38,1.58-2.67,3.82-3.81,6.75l-17.66,57.37c-.37,1.21-.62,2.42-.74,3.59-.07,1.81-.01,3.43.22,4.85-.01.04,0,.07,0,.12.66,3.01,2.31,5.28,4.69,6.01Z"/>
        <path class="cls-8" d="m665.71,614.76c-1.37.42-2.81.28-4.22-.32h-.01s-49.07-3.76-49.07-3.76l-3.25-.23h-.05c-1.18-.3-2.33-1.03-3.34-2.07l-.02-.02c-2.09-1.56-3.92-4.2-4.92-7.45l-7.47-24.27c-1.72-5.61-.4-11.11,2.94-12.86,0-.05,0-.07,0-.12l41.47-28.59c.75-.93,1.71-1.61,2.82-1.95,1.59-.3,3.13-.17,4.57.48.16.07.33.14.48.24.28.15.55.31.84.52.26.19.53.39.8.6.21.18.41.36.59.54.18.18.37.37.56.58,1.38,1.58,2.67,3.82,3.81,6.75l17.66,57.37c.37,1.21.62,2.42.74,3.59.07,1.81.01,3.43-.22,4.85.01.04,0,.07,0,.12-.66,3.01-2.31,5.28-4.69,6.01Z"/>
        <path class="cls-8" d="m476.69,376.23c0,2.77-.7,5.37-1.95,7.64v.03l-22.78,88.73-1.49,5.89-.03.09c-.79,2.01-2.1,3.73-3.73,5.02l-.03.03c-2.65,2.98-6.53,4.87-10.82,4.87h-32.08c-7.41,0-13.56-5.6-14.44-12.78-.06-.03-.09-.06-.15-.09l-19.1-93.1c-.85-1.92-1.31-4.08-1.31-6.33.23-3.12.96-5.89,2.28-8.2.15-.26.29-.52.47-.76.29-.44.58-.85.93-1.25.32-.38.67-.76,1.02-1.14.29-.29.58-.55.88-.79.29-.23.58-.47.9-.7,2.42-1.66,5.6-2.77,9.57-3.21h75.84c1.6,0,3.15.23,4.61.67,2.22.9,4.14,1.93,5.78,3.18.06,0,.09.03.15.09,3.38,2.95,5.51,7.29,5.51,12.1Z"/>
      </g>
    </g>
    <path id="bord" class="cls-1" d="m1884.2,1079.55H557.84c-11.75,0-17.82-9.48-13.54-20.93l146.41-391.47c2.6-6.95,12.09-12.59,21.11-12.59h1018.38c9.02,0,18.51,5.64,21.11,12.59l146.41,391.47c4.28,11.45-1.79,20.93-13.54,20.93Z"/>
    <g id="pizza">
      <path class="cls-2" d="m1735.05,798.46l-276.6,92.48c-11.31-22.04-26.09-41.8-43.53-58.95,3.6-3.23,8.06-5.84,13.17-7.51l274.38-88.92c6.99-2.25,14.5-2.32,21.68-.54,11.44,2.83,21.98,10.35,27.54,20.9,9.08,17.25,1.65,36.42-16.64,42.54Z"/>
      <path class="cls-7" d="m818.94,1079.55h335.26s335.6,0,335.6,0c41.73-207.92-124.72-359.25-335.43-346-195.87,12.32-353.96,156.88-335.43,346Z"/>
      <path class="cls-3" d="m884.11,1079.55h267.7s267.97,0,267.97,0c53.43-183.49-90.06-311.57-267.83-297.11-166.32,13.53-296.27,136.7-267.83,297.11Z"/>
    </g>
    <polygon class="cls-4" points="421.97 498.28 447.69 581.58 517.51 547.28 486.89 597.5 539.56 593.83 510.16 619.55 332.55 619.55 301.93 592.6 356.44 595.66 323.37 545.44 394.41 582.19 421.97 498.28"/>
  </g>
</svg>