<?xml version="1.0" encoding="UTF-8"?>
<svg id="Layer_2" data-name="Layer 2" xmlns="http://www.w3.org/2000/svg" viewBox="0 0 1920.11 1080.55">
  <defs>
    <style>
      .cls-1 {
        fill: #dcd9c4;
        stroke: #000;
        stroke-miterlimit: 10;
      }

      .cls-2, .cls-3, .cls-4, .cls-5, .cls-6, .cls-7, .cls-8, .cls-9, .cls-10, .cls-11, .cls-12, .cls-13, .cls-14, .cls-15, .cls-16, .cls-17, .cls-18, .cls-19, .cls-20, .cls-21, .cls-22, .cls-23 {
        stroke-width: 0px;
      }

      .cls-3 {
        fill: #4a3728;
      }

      .cls-4 {
        fill: #4e403b;
      }

      .cls-5 {
        fill: #28231d;
      }

      .cls-6 {
        fill: #372f12;
      }

      .cls-7 {
        fill: #111820;
      }

      .cls-8 {
        fill: #c3b9ad;
      }

      .cls-9 {
        fill: #dead75;
      }

      .cls-10 {
        fill: #cd212a;
      }

      .cls-11 {
        fill: #dbe0e5;
      }

      .cls-12 {
        fill: #bfbfbd;
      }

      .cls-13 {
        fill: #d8d9d7;
      }

      .cls-14 {
        fill: #b2560d;
      }

      .cls-15 {
        fill: #73706a;
      }

      .cls-16 {
        fill: #85807d;
      }

      .cls-17 {
        fill: #ffffa7;
      }

      .cls-18 {
        fill: #eed9c4;
      }

      .cls-19 {
        fill: gold;
      }

      .cls-20 {
        fill: #e8ccb0;
      }

      .cls-21 {
        fill: #f4f9ff;
      }

      .cls-22 {
        fill: #6a2b1a;
      }

      .cls-23 {
        fill: #008c45;
      }
    </style>
  </defs>
  <g id="spil4">
    <rect id="baggrund" class="cls-21" x=".07" width="1920" height="1080"/>
    <path class="cls-11" d="m0,.55v1080h848.57V.55H0Z"/>
    <path id="rund" class="cls-11" d="m734.75,1079.55h591.24s591.84,0,591.84,0c5.26-185.22.11-347.11-2.29-484.6-13.2-754.2-1108.76-823.69-1180.54.3-4.95,56.87-10.28,202.76-.24,484.3Z"/>
    <g id="under">
      <rect class="cls-5" x="49.06" y="639.78" width="740.99" height="438.22" rx="12" ry="12"/>
      <rect class="cls-12" x="68.93" y="715.55" width="689.1" height="361.45" rx="12" ry="12"/>
      <rect class="cls-5" x="162.93" y="793.55" width="496.9" height="284.45" rx="12" ry="12"/>
    </g>
    <g id="ovn">
      <path class="cls-5" d="m330.41,298.55l-2.16-124.54h178.52v122.32c-59.02-11.51-117.82-11.86-176.36,2.22Z"/>
      <rect class="cls-5" x="303.14" y="67.24" width="227.79" height="106.77" rx="12.02" ry="12.02"/>
      <rect class="cls-12" x="312.93" y="79.9" width="206.18" height="80.65" rx="9.4" ry="9.4"/>
      <path class="cls-12" d="m342.95,291.45l-1.84-113.89h151.86v111.86c-50.2-10.53-100.22-10.84-150.02,2.03Z"/>
      <path class="cls-5" d="m421.91,283.8c-6.33,0-12.63.15-18.87.44-2.71.12-5.42.26-8.17.47-.79.06-1.61.12-2.42.17-.79.06-1.61.12-2.42.18-1.37.12-2.74.23-4.11.35-.32.03-.64.06-.96.09-2.33.2-4.64.47-6.94.7-2.3.26-4.61.53-6.91.82-3.44.44-6.88.93-10.33,1.46-2.01.32-4.02.64-6.04.99-4.14.7-8.31,1.46-12.48,2.3-2.42.5-4.81.99-7.23,1.52-1.43.32-2.89.64-4.29.96v.03C172.26,331.31,55.12,462.75,55.12,619.14h733.58c0-185.19-164.22-335.35-366.79-335.35Zm52.82,100.08v.03l-22.78,88.73-1.49,5.89-.03.09c-.79,2.01-2.1,3.73-3.73,5.02l-.03.03c-2.65,2.98-6.53,4.87-10.82,4.87h-32.08c-7.41,0-13.56-5.6-14.44-12.78-.06-.03-.09-.06-.15-.09l-19.1-93.1c-.85-1.92-1.31-4.08-1.31-6.33.23-3.12.96-5.89,2.28-8.2.15-.26.29-.52.47-.76.29-.44.58-.85.93-1.25.32-.38.67-.76,1.02-1.14.29-.29.58-.55.88-.79.29-.23.58-.47.9-.7,2.42-1.66,5.6-2.77,9.57-3.21h75.84c1.6,0,3.15.23,4.61.67,2.22.9,4.14,1.93,5.78,3.18.06,0,.09.03.15.09,3.38,2.95,5.51,7.29,5.51,12.1,0,2.77-.7,5.37-1.95,7.64Z"/>
      <rect class="cls-15" x="37.66" y="619.16" width="768.5" height="76.85" rx="5" ry="5"/>
      <g>
        <rect class="cls-12" x="56.54" y="634.96" width="81.84" height="46.85" rx="8.91" ry="8.91"/>
        <rect class="cls-12" x="701.82" y="634.92" width="81.84" height="46.85" rx="8.91" ry="8.91"/>
        <rect class="cls-12" x="596.6" y="634.97" width="81.84" height="46.85" rx="8.91" ry="8.91"/>
        <rect class="cls-12" x="162.6" y="634.97" width="81.84" height="46.85" rx="8.91" ry="8.91"/>
        <rect class="cls-12" x="487.6" y="634.77" width="81.84" height="46.85" rx="8.91" ry="8.91"/>
        <rect class="cls-12" x="379.36" y="635.25" width="81.84" height="46.85" rx="8.91" ry="8.91"/>
        <rect class="cls-12" x="269.86" y="634.61" width="81.84" height="46.85" rx="8.91" ry="8.91"/>
      </g>
      <path class="cls-12" d="m421.91,301.27c-190.99,0-345.79,142.31-345.82,317.87v.03h691.63v-.03c-.03-175.56-154.82-317.87-345.82-317.87Zm-50.87,66.77c.15-.26.29-.52.47-.76.29-.44.58-.85.93-1.25.32-.38.67-.76,1.02-1.14.29-.29.58-.55.88-.79.29-.23.58-.47.9-.7,2.42-1.66,5.6-2.77,9.57-3.21h75.84c1.6,0,3.15.23,4.61.67,2.22.9,4.14,1.93,5.78,3.18.06,0,.09.03.15.09,3.38,2.95,5.51,7.29,5.51,12.1,0,2.77-.7,5.37-1.95,7.64v.03l-22.78,88.73-1.49,5.89-.03.09c-.79,2.01-2.1,3.73-3.73,5.02l-.03.03c-2.65,2.98-6.53,4.87-10.82,4.87h-32.08c-7.41,0-13.56-5.6-14.44-12.78-.06-.03-.09-.06-.15-.09l-19.1-93.1c-.85-1.92-1.31-4.08-1.31-6.33.23-3.12.96-5.89,2.28-8.2Z"/>
      <g id="sten">
        <path class="cls-15" d="m560.07,438.51c-.56,1.32-1.59,2.33-2.96,3.03h0s-34.46,35.15-34.46,35.15l-2.27,2.34-.04.03c-.98.71-2.28,1.13-3.73,1.23h-.03c-2.53.6-5.74.3-8.87-1.02l-23.39-9.9c-5.4-2.29-8.76-6.85-7.95-10.53-.04-.03-.05-.05-.09-.09l4.81-50.14c-.23-1.18-.14-2.35.32-3.41.8-1.41,1.89-2.5,3.31-3.19.16-.08.32-.16.49-.22.3-.12.6-.22.93-.31.31-.08.64-.15.97-.23.27-.05.54-.08.8-.1.26-.02.52-.04.8-.05,2.1-.04,4.64.41,7.62,1.43l55.28,23.4c1.17.49,2.25,1.08,3.22,1.74,1.43,1.11,2.63,2.19,3.57,3.29.04.02.06.04.09.09,1.87,2.44,2.55,5.17,1.58,7.45Z"/>
        <path class="cls-15" d="m635.63,515.47c-1.03,1-2.37,1.53-3.91,1.64h-.01s-45.4,19.01-45.4,19.01l-3,1.28-.05.02c-1.18.28-2.54.15-3.92-.31h-.03c-2.57-.44-5.41-1.96-7.77-4.39l-17.71-18.21c-4.09-4.2-5.41-9.71-3.24-12.79-.02-.04-.03-.07-.05-.11l23.9-44.34c.25-1.17.79-2.21,1.62-3.02,1.28-.99,2.71-1.57,4.29-1.66.18-.01.35-.02.54,0,.32,0,.63.03.98.08.32.05.65.11.98.17.27.06.53.13.77.21.25.08.49.16.76.26,1.95.78,4.12,2.18,6.47,4.27l41.85,43.03c.89.91,1.65,1.87,2.3,2.86.89,1.58,1.57,3.04,2.01,4.42.03.03.04.06.05.11.78,2.98.35,5.75-1.44,7.48Z"/>
        <path class="cls-15" d="m209.67,515.97c1.03,1,2.37,1.53,3.91,1.64h.01s45.4,19.01,45.4,19.01l3,1.28.05.02c1.18.28,2.54.15,3.92-.31h.03c2.57-.44,5.41-1.96,7.77-4.39l17.71-18.21c4.09-4.2,5.41-9.71,3.24-12.79.02-.04.03-.07.05-.11l-23.9-44.34c-.25-1.17-.79-2.21-1.62-3.02-1.28-.99-2.71-1.57-4.29-1.66-.18-.01-.35-.02-.54,0-.32,0-.63.03-.98.08-.32.05-.65.11-.98.17-.27.06-.53.13-.77.21-.25.08-.49.16-.76.26-1.95.78-4.12,2.18-6.47,4.27l-41.85,43.03c-.89.91-1.65,1.87-2.3,2.86-.89,1.58-1.57,3.04-2.01,4.42-.03.03-.04.06-.05.11-.78,2.98-.35,5.75,1.44,7.48Z"/>
        <path class="cls-15" d="m280.13,437.8c.56,1.32,1.59,2.33,2.96,3.03h0s34.46,35.15,34.46,35.15l2.27,2.34.04.03c.98.71,2.28,1.13,3.73,1.23h.03c2.53.6,5.74.3,8.87-1.02l23.39-9.9c5.4-2.29,8.76-6.85,7.95-10.53.04-.03.05-.05.09-.09l-4.81-50.14c.23-1.18.14-2.35-.32-3.41-.8-1.41-1.89-2.5-3.31-3.19-.16-.08-.32-.16-.49-.22-.3-.12-.6-.22-.93-.31-.31-.08-.64-.15-.97-.23-.27-.05-.54-.08-.8-.1-.26-.02-.52-.04-.8-.05-2.1-.04-4.64.41-7.62,1.43l-55.28,23.4c-1.17.49-2.25,1.08-3.22,1.74-1.43,1.11-2.63,2.19-3.57,3.29-.04.02-.06.04-.09.09-1.87,2.44-2.55,5.17-1.58,7.45Z"/>
        <path class="cls-15" d="m174.93,613.06c1.37.42,2.81.28,4.22-.32h.01s49.07-3.76,49.07-3.76l3.25-.23h.05c1.18-.3,2.33-1.03,3.34-2.07l.02-.02c2.09-1.56,3.92-4.2,4.92-7.45l7.47-24.27c1.72-5.61.4-11.11-2.94-12.86,0-.05,0-.07,0-.12l-41.47-28.59c-.75-.93-1.71-1.61-2.82-1.95-1.59-.3-3.13-.17-4.57.48-.16.07-.33.14-.48.24-.28.15-.55.31-.84.52-.26.19-.53.39-.8.6-.21.18-.41.36-.59.54-.18.18-.37.37-.56.58-1.38,1.58-2.67,3.82-3.81,6.75l-17.66,57.37c-.37,1.21-.62,2.42-.74,3.59-.07,1.81-.01,3.43.22,4.85-.01.04,0,.07,0,.12.66,3.01,2.31,5.28,4.69,6.01Z"/>
        <path class="cls-15" d="m665.71,614.76c-1.37.42-2.81.28-4.22-.32h-.01s-49.07-3.76-49.07-3.76l-3.25-.23h-.05c-1.18-.3-2.33-1.03-3.34-2.07l-.02-.02c-2.09-1.56-3.92-4.2-4.92-7.45l-7.47-24.27c-1.72-5.61-.4-11.11,2.94-12.86,0-.05,0-.07,0-.12l41.47-28.59c.75-.93,1.71-1.61,2.82-1.95,1.59-.3,3.13-.17,4.57.48.16.07.33.14.48.24.28.15.55.31.84.52.26.19.53.39.8.6.21.18.41.36.59.54.18.18.37.37.56.58,1.38,1.58,2.67,3.82,3.81,6.75l17.66,57.37c.37,1.21.62,2.42.74,3.59.07,1.81.01,3.43-.22,4.85.01.04,0,.07,0,.12-.66,3.01-2.31,5.28-4.69,6.01Z"/>
        <path class="cls-15" d="m476.69,376.23c0,2.77-.7,5.37-1.95,7.64v.03l-22.78,88.73-1.49,5.89-.03.09c-.79,2.01-2.1,3.73-3.73,5.02l-.03.03c-2.65,2.98-6.53,4.87-10.82,4.87h-32.08c-7.41,0-13.56-5.6-14.44-12.78-.06-.03-.09-.06-.15-.09l-19.1-93.1c-.85-1.92-1.31-4.08-1.31-6.33.23-3.12.96-5.89,2.28-8.2.15-.26.29-.52.47-.76.29-.44.58-.85.93-1.25.32-.38.67-.76,1.02-1.14.29-.29.58-.55.88-.79.29-.23.58-.47.9-.7,2.42-1.66,5.6-2.77,9.57-3.21h75.84c1.6,0,3.15.23,4.61.67,2.22.9,4.14,1.93,5.78,3.18.06,0,.09.03.15.09,3.38,2.95,5.51,7.29,5.51,12.1Z"/>
      </g>
    </g>
    <path id="bord" class="cls-4" d="m1884.2,1079.55H557.84c-11.75,0-17.82-9.48-13.54-20.93l146.41-391.47c2.6-6.95,12.09-12.59,21.11-12.59h1018.38c9.02,0,18.51,5.64,21.11,12.59l146.41,391.47c4.28,11.45-1.79,20.93-13.54,20.93Z"/>
    <g id="pizza">
      <path class="cls-5" d="m1735.05,798.46l-276.6,92.48c-11.31-22.04-26.09-41.8-43.53-58.95,3.6-3.23,8.06-5.84,13.17-7.51l274.38-88.92c6.99-2.25,14.5-2.32,21.68-.54,11.44,2.83,21.98,10.35,27.54,20.9,9.08,17.25,1.65,36.42-16.64,42.54Z"/>
      <path class="cls-13" d="m818.94,1079.55h335.26s335.6,0,335.6,0c41.73-207.92-124.72-359.25-335.43-346-195.87,12.32-353.96,156.88-335.43,346Z"/>
      <path class="cls-9" d="m884.11,1079.55h267.7s267.97,0,267.97,0c53.43-183.49-90.06-311.57-267.83-297.11-166.32,13.53-296.27,136.7-267.83,297.11Z"/>
    </g>
    <g>
      <rect class="cls-5" x="1378.05" y="289.21" width="257.02" height="210.71"/>
      <rect class="cls-4" x="1389.63" y="300.78" width="233.09" height="187.55"/>
      <rect class="cls-8" x="1399.28" y="311.2" width="212.25" height="165.17"/>
      <path class="cls-5" d="m1514.66,260.65c0,2.08-.75,3.99-1.99,5.46-1.09,1.3-2.55,2.25-4.23,2.72-.72.2-1.48.31-2.27.31-.85,0-1.67-.12-2.44-.36-1.7-.51-3.17-1.53-4.24-2.89-1.13-1.44-1.81-3.26-1.81-5.25,0-4.69,3.8-8.49,8.49-8.49s8.49,3.8,8.49,8.49Z"/>
      <path class="cls-5" d="m1536.82,288.99l-61.61.07,24.17-22.39h.12c1.07,1.36,2.54,2.38,4.24,2.89l-2.97-.03-19.67,19.3,50.17-.05-19.75-19.13-3.06-.03c1.67-.46,3.14-1.42,4.23-2.72l24.15,22.11Z"/>
      <path class="cls-11" d="m1531.26,288.77l-50.17.05,19.67-19.3,2.97.03c.77.23,1.59.36,2.44.36.79,0,1.55-.11,2.27-.31l3.06.03,19.75,19.13Z"/>
    </g>
    <g id="mand">
      <path id="bukser" class="cls-6" d="m1439.11,451.92c.05,5.77,1.02,12.12,2.7,18.93,3.81.66,7.35,1.69,10.46,3.29.35-4.01.97-6.92,1.76-9.05,3.36-5.52,6.52-4.99,9.52.12,1.07,2.5,1.69,5.27,2,8.23,3.12-1.7,7.22-2.39,10.23-2.12,1.92-6.02,2.82-12.4,2.94-19.05-11.71,3.79-24.69,4.27-39.63-.35Z"/>
      <path id="venstre_sko" data-name="venstre sko" class="cls-7" d="m1438.88,476.02h13.49l-.08-1.88c-3.23-1.56-6.68-2.72-10.46-3.29-2.14.97-3.12,2.69-2.94,5.17Z"/>
      <path id="højre_sko" data-name="højre sko" class="cls-7" d="m1465.61,474.14v1.86s13.72.02,13.72.02c-.07-2.17-1.02-3.86-3.53-4.7-4.08.46-7.87.66-10.19,2.82Z"/>
      <path class="cls-3" d="m1428.65,441.22c.03.16-.94,26.57-.71,33.86,1.79,2.13,3.4,2.05,4.82,0,.58-4.05.16-20.57,0-33.86-.57-1.25-1.54-1.98-2.94-2.12-1.59-.42-2.85-1.29-3.76-2.65-1.3-.63-2.55-.32-3.32,0-.97.41-1.58,1.4-2.02,2.62-.31,1.29-.56,3.15,0,5.24,1.42,2.49,2.65,1.88,3.7-.04.15-1.37-.04-2.7.59-3.53,1.39-1.21,2.57-.78,3.65.47Z"/>
      <path class="cls-18" d="m1426.06,436.46c.3,1.01,2.04,2.13,3.76,2.65,2.06.62,3.85-1.22,3.76-2.65-.1-1.7-1.69-3.07-3.76-2.65-2.04.42-4.18,1.25-3.76,2.65Z"/>
      <path class="cls-23" d="m1485.44,436.86c-.3,1.01-.8,1.96-1.55,2.84-1.7.66-3.46,1.14-5.27,1.43,0-2.14-.12-4.14,0-5.87.71-.5,1.18-.97,1.29-1.68-.47-1.41-1.38-2.49-2.35-3.76.75,7.13,1.41,14.46,1.06,21.87-3.63,1.54-8.08,2.55-12.94,3.3h0c-.33.05-.66.1-1,.15-.96.04-1.9.08-2.84.09-.05,0-.1,0-.16,0-4.21.07-8.2-.17-11.87-.84-4.29-.7-8.11-1.64-10.58-3.29-.79-3.53-.21-11.48,1.03-17.57-1.14,1.66-2.89,2.95-5,4-1.73-1.64-2.97-3.44-3.44-5.48,2.02-2.98,4.33-5.56,6.89-7.79,3.09,1.52,6.2,2.68,9.34,3.47,1.25.31,2.49.56,3.75.75,2.43.37,4.87.5,7.32.4,1.23-.05,2.46-.17,3.7-.34,1.83-.26,3.68-.66,5.53-1.2,3.39-.99,6.81-2.45,10.27-4.42,2.9,3.49,5.46,6.93,6.82,10.18.27,1.11.22,2.39,0,3.75Z"/>
      <path class="cls-21" d="m1457.61,428.94c-1.8,1.45-3.68,2.99-6.35,4.04-1.68-1.53-2.56-3.29-3.2-5.14,3.09.82,6.27,1.17,9.55,1.1Z"/>
      <path class="cls-21" d="m1468.37,427.29s-.01.03-.02.05c-.01.03-.03.07-.04.1-.86,2.16-2.14,4.03-3.94,5.55-2.12-.85-4.24-2.43-6.76-4.04.5-.01,1.01-.03,1.52-.07.47-.03.94-.07,1.41-.11,2.56-.25,5.17-.75,7.83-1.48Z"/>
      <g>
        <path class="cls-21" d="m1428.96,373.27c-.87-.7-2.03-1.12-3.3-1.12-1.39,0-2.64.51-3.53,1.32-.84.77-1.36,1.81-1.36,2.96v.02c-2.58.12-4.63,1.99-4.63,4.27,0,.64.16,1.25.45,1.8-1.47.74-2.46,2.12-2.46,3.71,0,1.34,1.07,2.35,2.24,3.06-.76.69-1.24,1.68-1.24,2.79,0,2.08,1.71,3.47,3.76,3.76,1.05.15,2.7-1.36,3.45-2.91,1.08-5.47,3.84-10.44,7.8-14.52.27-.49.42-1.21.41-1.98-.03-1.78-1.39-2.99-1.59-3.15Z"/>
        <path class="cls-21" d="m1498.07,388.59c1.17-.71,2.24-1.72,2.24-3.06,0-1.59-.99-2.97-2.46-3.71.29-.55.45-1.16.45-1.8,0-2.29-2.05-4.15-4.63-4.27v-.02c0-1.15-.52-2.19-1.36-2.96-.89-.81-2.14-1.32-3.53-1.32-1.27,0-2.43.43-3.3,1.12-.2.16-1.56,1.38-1.59,3.15-.01.93.21,1.8.58,2.25.06.07.11.13.18.18.03.02.05.04.08.06.02.01.06.06.11.14,4.08,4.18,6.9,9.32,7.92,14.96.83,1.09,1.98,1.94,2.78,1.83,2.06-.29,3.76-1.68,3.76-3.76,0-1.11-.48-2.1-1.24-2.79Z"/>
      </g>
      <path class="cls-18" d="m1492.76,393.31c-1.03-5.65-3.84-10.78-7.92-14.96-.06-.06-.13-.13-.19-.19-.06-.05-.12-.11-.18-.18-6.54-6.5-16.19-10.6-26.96-10.6s-20.83,4.29-27.38,11.02c-3.96,4.08-6.72,9.05-7.8,14.52-.34,1.69-.51,3.43-.51,5.2,0,11.04,6.75,20.71,16.88,26.14,3.09,1.52,6.2,2.68,9.34,3.47,1.25.31,2.49.56,3.75.75,1.86.26,3.77.39,5.71.39,1.02,0,2.03-.04,3.03-.11,2.56-.25,5.17-.75,7.83-1.48,0,.02-.01.03-.02.05,3.39-.99,6.81-2.45,10.27-4.42,8.84-5.6,14.58-14.62,14.58-24.8,0-1.64-.15-3.25-.44-4.81Zm-8.03.52c0,.78-.63,1.41-1.41,1.41h-19.4s-.07,0-.11,0c2.63,1.24,4.34,3.25,4.34,5.53,0,.84-.23,1.65-.66,2.4,1.9,1.1,3.56,2.21,4.52,3.34,1.22,1.07,2.11,2.36,2.97,3.67.33.8.47,1.53,0,2.22-10.33,6.68-24.3,7.48-34.57,0-.37-.85-.39-1.7,0-2.49.45-1.4,1.45-2.71,2.71-3.97,1.4-1.11,3.01-2.02,4.78-2.78-.43-.75-.66-1.55-.66-2.4,0-2.28,1.71-4.29,4.34-5.53-.04,0-.07,0-.11,0h-19.4c-.78,0-1.41-.63-1.41-1.41v-11.64c0-.78.63-1.41,1.41-1.41h19.4c.78,0,1.41.63,1.41,1.41v3.55c.08-.01.16-.02.24-.02h8.82c.21,0,.41.05.59.13v-3.66c0-.78.63-1.41,1.41-1.41h19.4c.78,0,1.41.63,1.41,1.41v11.64Z"/>
      <path class="cls-18" d="m1484.73,382.19v11.64c0,.78-.63,1.41-1.41,1.41h-19.4s-.07,0-.11,0c2.63,1.24,4.34,3.25,4.34,5.53,0,.84-.23,1.65-.66,2.4,1.9,1.1,3.56,2.21,4.52,3.34,1.22,1.07,2.11,2.36,2.97,3.67.33.8.47,1.53,0,2.22-10.33,6.68-24.3,7.48-34.57,0-.37-.85-.39-1.7,0-2.49.45-1.4,1.45-2.71,2.71-3.97,1.4-1.11,3.01-2.02,4.78-2.78-.43-.75-.66-1.55-.66-2.4,0-2.28,1.71-4.29,4.34-5.53-.04,0-.07,0-.11,0h-19.4c-.78,0-1.41-.63-1.41-1.41v-11.64c0-.78.63-1.41,1.41-1.41h19.4c.78,0,1.41.63,1.41,1.41v3.55c.08-.01.16-.02.24-.02h8.82c.21,0,.41.05.59.13v-3.66c0-.78.63-1.41,1.41-1.41h19.4c.78,0,1.41.63,1.41,1.41Z"/>
      <path class="cls-20" d="m1468.16,400.77c0,.84-.23,1.65-.66,2.4-1.49,2.59-5.31,4.42-9.8,4.42s-8.31-1.84-9.8-4.42c-.43-.75-.66-1.55-.66-2.4,0-2.28,1.71-4.29,4.34-5.53.27-.12.54-.24.82-.35,1.55-.6,3.37-.94,5.3-.94s3.74.34,5.3.94c.28.11.56.22.82.35,2.63,1.24,4.34,3.25,4.34,5.53Z"/>
      <g>
        <path class="cls-2" d="m1484.73,382.19v11.64c0,.78-.63,1.41-1.41,1.41h-19.4s-.07,0-.11,0c-.32-.02-.6-.15-.82-.35-.29-.26-.48-.64-.48-1.06v-3.66c-.18.08-.38.13-.59.13h-8.82c-.08,0-.16,0-.24-.02v3.55c0,.42-.18.8-.48,1.06-.22.2-.51.33-.82.35-.04,0-.07,0-.11,0h-19.4c-.78,0-1.41-.63-1.41-1.41v-11.64c0-.78.63-1.41,1.41-1.41h19.4c.78,0,1.41.63,1.41,1.41v3.55c.08-.01.16-.02.24-.02h8.82c.21,0,.41.05.59.13v-3.66c0-.78.63-1.41,1.41-1.41h19.4c.78,0,1.41.63,1.41,1.41Z"/>
        <rect class="cls-1" x="1464.57" y="382.43" width="18.81" height="11.52" rx="1.9" ry="1.9"/>
        <rect class="cls-1" x="1431.91" y="382.57" width="18.81" height="11.52" rx="1.9" ry="1.9"/>
      </g>
      <path class="cls-21" d="m1474.98,412.4c-10.33,6.68-24.3,7.48-34.57,0-.37-.85-.39-1.7,0-2.49.45-1.4,1.45-2.71,2.71-3.97,1.4-1.11,3.01-2.02,4.78-2.78,5.84,6.6,15.91,4.85,19.6,0,1.9,1.1,3.56,2.21,4.52,3.34,1.22,1.07,2.11,2.36,2.97,3.67.33.8.47,1.53,0,2.22Z"/>
      <g>
        <path class="cls-7" d="m1441.87,392.75s.45-2.41,3.66-2.41c3.21,0,3.67,2.41,3.67,2.41,0-2.02-1.64-3.67-3.67-3.67s-3.67,1.64-3.67,3.67Z"/>
        <path class="cls-7" d="m1465.5,392.75s.45-2.41,3.66-2.41c3.21,0,3.67,2.41,3.67,2.41,0-2.02-1.64-3.67-3.67-3.67s-3.67,1.64-3.67,3.67Z"/>
      </g>
    </g>
    <g id="dame">
      <path class="cls-13" d="m1532.28,471.17c.01-.3-.07-.58-.21-.84l10.85.43c-.72.96-.57,2.28-.18,3.71l-10.46-3.29Z"/>
      <path class="cls-13" d="m1556.08,474.46c.16-1.39.1-2.62-.23-3.68l10.23-.5c-.08.52-.05.99.19,1.36l-10.19,2.82Z"/>
      <path id="venstre_sko-2" data-name="venstre sko" class="cls-22" d="m1529.34,476.34h13.49l-.08-1.88c-3.23-1.56-6.68-2.72-10.46-3.29-2.14.97-3.12,2.69-2.94,5.17Z"/>
      <path id="højre_sko-2" data-name="højre sko" class="cls-22" d="m1556.08,474.46v1.86s13.72.02,13.72.02c-.07-2.17-1.02-3.86-3.53-4.7-4.08.46-7.87.66-10.19,2.82Z"/>
      <path class="cls-18" d="m1582.68,405.72c-1.28.67-2.61.46-3.95-.06-2.25,6.8-7.47,12.51-14.37,16.02-1.56.76-3.11,1.41-4.65,1.94,0,0,0,0,0,0-.56.18-1.11.36-1.68.51,0,0,0-.01,0-.02-.84.23-1.67.44-2.5.61,0,0,0,0,0,0-2.28.46-4.67.7-7.12.7-14.52,0-26.76-8.49-30.43-20.06-2.1.53-3.85.18-5.07-1.42-1.37-2.32-1.59-4.51-.09-6.5.49.23,1.04.35,1.62.35.65,0,1.59-.84,2.33-1.9l.11.87c.06-1.1.2-2.17.41-3.23.77-2.97,1.95-5.9,3.47-8.63,1.95-3.06,4.55-5.75,7.65-7.95,2.5-1.77,5.32-3.22,8.37-4.27,1.16-.4,2.35-.74,3.57-1.01h0c.4-.1.81-.18,1.23-.26,2.19-.42,4.48-.64,6.82-.64,2.81,0,5.53.32,8.13.91.72.17,1.43.35,2.13.56.58.17,1.16.36,1.72.56,3.58,1.41,6.93,3.41,9.92,5.87.52.43,1.03.87,1.53,1.33t0,0c.4.41.79.84,1.17,1.28,1.96,2.28,3.61,4.86,4.85,7.7,0,.01.01.02.02.04.52,1.07.99,2.19,1.39,3.34.25,1,.43,2.01.55,3.05.42-.07.84-.08,1.26-.03.64.47,1.29.77,1.81.75,3.56,3.12,3.51,6.55-.2,9.57Z"/>
      <path class="cls-21" d="m1586.72,391.22c.33,2.43-1.35,4.3-3.58,4.9-.08.02-.18.04-.27.04-.52.02-1.17-.27-1.81-.75-.41-.3-.82-.68-1.19-1.09-.19-.65-.39-1.3-.62-1.93-.41-1.16-.87-2.27-1.39-3.34,0-.01-.01-.03-.02-.04-1.24-2.84-2.89-5.43-4.85-7.7-.38-.44-.77-.86-1.17-1.28t0,0c-.5-.46-1.01-.9-1.53-1.33-2.98-2.46-6.33-4.46-9.92-5.87-.57-.2-1.14-.39-1.72-.56-.7-.21-1.41-.4-2.13-.56-2.59-.6-5.32-.91-8.13-.91-2.34,0-4.63.22-6.82.64-.41.08-.82.16-1.23.26h0c-1.22.27-2.41.61-3.57,1.01-3.05,1.05-5.87,2.5-8.37,4.27-3.09,2.2-5.7,4.89-7.65,7.95-1.52,2.73-2.71,5.65-3.47,8.63-.2.78-.37,1.57-.52,2.36-.75,1.05-1.68,1.9-2.33,1.9-.58,0-1.14-.12-1.62-.35-1.08-.51-1.82-1.55-1.8-3.07.02-1.21.52-2.35,1.29-3.17-1.16-.74-2.26-1.87-2.25-3.47.02-1.94,1.11-3.66,2.68-4.52-.28-.7-.44-1.49-.42-2.31.06-2.61,1.75-4.63,3.89-4.99.08-.58.46-1.65.46-1.65,0,0,.92-1.65,1.59-2.27,1.04-.97,2.35-1.54,3.71-1.51h.03c-.47-3.81,2.84-5.15,5.38-5.01.7.04,1.34.25,1.89.6.95-1.55,2.51-2.52,4.13-2.41,1.02.07,1.78.78,2.33,1.67.11-.24.24-.47.39-.7.8-1.24,1.98-2.09,3.23-2.45,1.17-.33,2.4-.24,3.43.37h.02c1.53-2.19,4.3-2.97,6.32-1.78.57.34,1.02.79,1.35,1.33,1.42-.88,3.14-1.01,4.53-.19,1.16.69,1.5,2.13,1.53,3.51.34-.5.77-.95,1.29-1.31,1.1-.77,2.37-1.02,3.52-.78,1.1.23,2.08.89,2.71,1.94v.02c2.24-1.35,5.02-.79,6.3,1.36.36.6.56,1.27.61,1.95,1.71-.13,3.38.63,4.29,2.15.15.25.25.51.32.77.52.14,1,.36,1.42.65.93.64,1.56,1.61,1.69,2.78v.02c2.64-.28,4.99,1.33,5.31,3.74.09.69,0,1.36-.23,1.99,1.66.58,2.92,1.94,3.16,3.7.21,1.49-.8,2.78-1.95,3.75.93.67,1.6,1.75,1.77,3.03Z"/>
      <path class="cls-9" d="m1551.47,408.63c0,.81-3.51.81-3.51,0s.79-1.46,1.75-1.46,1.75.65,1.75,1.46Z"/>
      <path class="cls-14" d="m1558.19,415.93c-.7.09-1.3.02-1.75-.29-.11.25-.24.48-.38.69-.41.59-.94,1.01-1.66,1.36-.77.49-2.26.51-4.09.29-1.38-.33-2.55-.82-3.09-1.79-.04-.08-.08-.17-.12-.25-.1-.52-.01-.94.88-.88.52.4,1.15.77,1.86,1.11.25.12.51.24.77.35.78.51,1.94.35,3.21,0,.15-.09.31-.18.46-.28.5-.33.95-.72,1.3-1.18-.51-.24-.75-.67-.88-1.17.14-.48.4-.66.88-.29.19,1.14,1.17,1.65,2.63,1.75.58.24.46.42,0,.58Z"/>
      <path class="cls-22" d="m1542.7,401.61c0,4.84-3.92,8.77-8.77,8.77s-8.77-3.92-8.77-8.77c0-.89.13-1.75.38-2.56,1.1-3.59,4.44-6.2,8.39-6.2s7.57,2.84,8.51,6.66c.17.67.25,1.38.25,2.1Z"/>
      <circle class="cls-22" cx="1562.86" cy="401.61" r="8.77"/>
      <path class="cls-22" d="m1554.1,401.61c-3.7-2.03-7.5-2.04-11.4,0l-.25-2.1c4.02-1.55,8-1.59,11.94-.06l-.29,2.16Z"/>
      <path class="cls-21" d="m1541.68,401.51c0,4.27-3.46,7.73-7.73,7.73s-7.73-3.46-7.73-7.73,3.46-7.73,7.73-7.73c3.63,0,6.67,2.5,7.5,5.87.15.59.22,1.21.22,1.85Z"/>
      <path class="cls-21" d="m1570.48,401.67c0,4.27-3.46,7.73-7.73,7.73s-7.73-3.46-7.73-7.73,3.46-7.73,7.73-7.73c3.63,0,6.67,2.5,7.5,5.87.15.59.22,1.21.22,1.85Z"/>
      <path class="cls-22" d="m1517.23,393.87c2.75.91,5.53,2.78,8.32,5.18l-.38,1.1c-3.12-1.98-6.22-3.93-8.4-4.25l.46-2.03Z"/>
      <path class="cls-22" d="m1571.57,400.68c2.75-2.32,5.49-4.15,8.23-5.23l-.18-1.57c-2.95,1.52-5.73,3.34-8.31,5.49l.26,1.31Z"/>
      <ellipse class="cls-5" cx="1537.73" cy="401.76" rx="1.75" ry="2.48"/>
      <ellipse class="cls-2" cx="1558.77" cy="401.18" rx="1.75" ry="2.48"/>
      <path class="cls-19" d="m1558.02,424.13c-.38,8.06-.03,18.17.6,29.05l13.73-.88c-.03-4.51-.51-8.76-1.75-12.56l2.92,4.09c1.71-.2,2.83-1.03,3.51-2.34-1.93-9.08-8.69-14.63-19.01-17.36Z"/>
      <path class="cls-19" d="m1540.51,452.89c.18-9.68,0-19.24-.67-28.64-8.75,3.14-15.61,8.43-18.61,16.36.26,1.23,1.37,2.15,2.92,2.92,1.43-.5,2.56-1.64,3.51-3.21-1.08,2.44-1.57,7.35-2.05,12.27,4.76.71,9.71.84,14.9.29"/>
      <path class="cls-17" d="m1558.62,453.19l13.73-.88c.62,6.5.25,12.65-1.61,18.26-15.59.58-30.11.67-42.37-.29-2.48-5.64-3.35-11.54-2.78-17.68,4.42.73,9.49.71,14.9.29l-.59-23.35c5.68.7,11.69.8,17.97.42l.73,23.23Z"/>
      <path class="cls-18" d="m1539.92,429.54c5.71.61,11.72.72,17.97.42l.13-5.82c-6.28,1.62-12.36,1.79-18.19.12l.09,5.28Z"/>
      <path class="cls-18" d="m1524.15,443.54l-2.07,2.62c-.18.98-1.37,2.05-2.75,1.67-1.29-.36-2.6-1.17-2.84-1.92-.32-.99,1.12-1.62,2.57-1.97l-.31-.25,2.48-3.07,2.92,2.92Z"/>
      <path class="cls-18" d="m1580.86,446.25c-.24.75-1.55,1.56-2.84,1.92-1.54.43-2.85-.96-2.77-2.02,0-.09.02-.18.04-.27l-1.77-2.04,3.51-2.34,1.61,2.78-.11.06c1.36.36,2.63.98,2.33,1.91Z"/>
    </g>
    <g id="lys">
      <g id="lys-2" data-name="lys">
        <path class="cls-16" d="m1157.74,199.55h93.68s93.77,0,93.77,0c0-51.76-41.96-93.73-93.73-93.73-51.76,0-93.73,41.96-93.73,93.73Z"/>
        <path class="cls-19" d="m1228.83,199.55h22.73s22.75,0,22.75,0c0,10.3-10.18,18.65-22.74,18.65-12.56,0-22.74-8.35-22.74-18.65Z"/>
      </g>
      <g id="lys-3" data-name="lys">
        <path class="cls-16" d="m918.62,382.55h93.68s93.77,0,93.77,0c0-51.76-41.96-93.73-93.73-93.73-51.76,0-93.73,41.96-93.73,93.73Z"/>
        <path class="cls-19" d="m989.71,382.55h22.73s22.75,0,22.75,0c0,10.3-10.18,18.65-22.74,18.65-12.56,0-22.74-8.35-22.74-18.65Z"/>
      </g>
    </g>
    <polygon class="cls-10" points="421.97 498.28 447.69 581.58 517.51 547.28 486.89 597.5 539.56 593.83 510.16 619.55 332.55 619.55 301.93 592.6 356.44 595.66 323.37 545.44 394.41 582.19 421.97 498.28"/>
  </g>
</svg>