<?xml version="1.0" encoding="UTF-8"?>
<svg id="Layer_2" data-name="Layer 2" xmlns="http://www.w3.org/2000/svg" viewBox="0 0 630 219">
  <defs>
    <style>
      .cls-1 {
        opacity: .91;
      }

      .cls-1, .cls-2, .cls-3, .cls-4, .cls-5, .cls-6 {
        stroke-width: 0px;
      }

      .cls-1, .cls-5 {
        fill: #f4f9ff;
      }

      .cls-3 {
        fill: #cd212a;
      }

      .cls-4 {
        fill: #fff;
      }

      .cls-6 {
        fill: #008c45;
      }
    </style>
  </defs>
  <g id="Layer_3" data-name="Layer 3">
    <g id="start_knap">
      <g>
        <path id="grøn" class="cls-4" d="m210.25,0v219H18.02c-9.91,0-18.02-8.63-18.02-19.18V19.18C0,8.63,8.11,0,18.02,0h192.23Z"/>
        <rect id="hvid" class="cls-4" x="210.25" width="210.25" height="219"/>
        <path id="rød" class="cls-4" d="m630,19.18v180.64c0,10.55-8.11,19.18-18.02,19.18h-191.48V0h191.48c9.91,0,18.02,8.63,18.02,19.18Z"/>
      </g>
      <g id="start_knap-2" data-name="start_knap">
        <g>
          <path id="grøn-2" data-name="grøn" class="cls-6" d="m213.43,9.75v199.51H27.03c-9.61,0-17.47-7.86-17.47-17.47V27.22c0-9.61,7.86-17.47,17.47-17.47h186.4Z"/>
          <rect id="hvid-2" data-name="hvid" class="cls-5" x="213.43" y="9.75" width="203.87" height="199.51"/>
          <path id="rød-2" data-name="rød" class="cls-3" d="m620.45,27.22v164.56c0,9.61-7.86,17.47-17.47,17.47h-185.67V9.75h185.67c9.61,0,17.47,7.86,17.47,17.47Z"/>
          <rect class="cls-1" x="30.67" y="61.44" width="562.11" height="100.48" rx="12" ry="12"/>
        </g>
        <g>
          <path class="cls-2" d="m155.62,133.31c0-4.12,5.13-7.84,5.63-7.34,3.92,4.72,11.35,8.84,19.39,8.84s11.86-2.81,11.86-7.94c0-5.83-6.53-7.03-14.17-8.74-10.35-2.31-21.1-6.13-21.1-19.49,0-12.06,9.75-20,25.32-20,8.84,0,15.07,2.11,18.79,4.82,3.11,2.11,4.62,4.72,4.62,7.13,0,4.62-5.63,8.04-5.93,7.74-3.82-4.52-10.35-8.04-17.28-8.04s-11.25,3.01-11.25,7.74c0,5.63,5.73,6.43,13.77,8.24,11.86,2.61,22.11,7.43,22.11,19.69,0,12.96-9.45,20.5-26.63,20.5-10.15,0-17.08-2.61-21.1-5.93-2.81-2.21-4.02-4.82-4.02-7.23Z"/>
          <path class="cls-2" d="m233.29,93.02h-14.57c-4.52,0-6.93-2.31-6.93-6.43v-.4c0-4.02,2.41-6.13,6.93-6.13h44.01c4.52,0,6.73,2.11,6.73,6.13v.4c0,4.12-2.21,6.43-6.73,6.43h-14.57v45.72c0,4.42-2.31,6.73-6.53,6.73h-2.11c-4.12,0-6.23-2.31-6.23-6.73v-45.72Z"/>
          <path class="cls-2" d="m272.07,141.25l22.21-57.38c.9-2.71,3.01-4.42,9.75-4.42s8.64,1.71,9.55,4.42l22.61,57.27c.5,1.21-3.52,4.62-7.94,4.62-3.22,0-6.53-1.71-8.64-7.03l-3.92-10.15h-23.71l-4.02,10.35c-1.81,5.12-4.92,6.83-8.04,6.83-4.22,0-8.24-3.22-7.84-4.52Zm22.81-23.81h17.78l-8.94-23.61-8.84,23.61Z"/>
          <path class="cls-2" d="m349.24,145.47c-4.02,0-6.23-3.01-6.23-8.14v-49.03c0-5.22,2.91-8.24,7.74-8.24h19.19c16.88,0,25.52,7.03,25.52,20.3,0,9.34-4.72,15.88-13.87,18.39-1.01.3-2.11.5-3.22.6l17.18,20.7c.6.7-2.21,5.43-8.44,5.43-4.42,0-6.73-1.81-9.85-6.03l-14.27-17.78h-5.22v17.08c0,4.22-2.21,6.73-6.43,6.73h-2.11Zm8.34-34.37h11.25c8.04,0,11.86-3.72,11.86-9.75,0-6.43-4.02-9.75-12.06-9.75h-11.05v19.49Z"/>
          <path class="cls-2" d="m422.09,93.02h-14.57c-4.52,0-6.93-2.31-6.93-6.43v-.4c0-4.02,2.41-6.13,6.93-6.13h44.01c4.52,0,6.73,2.11,6.73,6.13v.4c0,4.12-2.21,6.43-6.73,6.43h-14.57v45.72c0,4.42-2.31,6.73-6.53,6.73h-2.11c-4.12,0-6.23-2.31-6.23-6.73v-45.72Z"/>
        </g>
      </g>
    </g>
  </g>
</svg>