<?xml version="1.0" encoding="UTF-8"?>
<svg id="Layer_2" data-name="Layer 2" xmlns="http://www.w3.org/2000/svg" viewBox="0 0 857.44 1023.86">
  <defs>
    <style>
      .cls-1 {
        fill: none;
      }

      .cls-1, .cls-2, .cls-3, .cls-4, .cls-5 {
        stroke-width: 0px;
      }

      .cls-2 {
        fill: #eacbc6;
      }

      .cls-3 {
        fill: #eed9c4;
      }

      .cls-4 {
        fill: #e3c09c;
      }

      .cls-5 {
        fill: #e8ccb0;
      }
    </style>
  </defs>
  <g id="Layer_1-2" data-name="Layer 1">
    <g>
      <rect class="cls-1" width="857.44" height="1023.86"/>
      <g>
        <path class="cls-3" d="m21.11,637.67l1.2,16.79,1.2,22.78,1.2,9.45,1.2,12.13-4.8-61.15Zm21.58-57.55l-1.2,6,10.79-33.14-9.59,27.15Zm11.99-51.56l-2.4,19.18v5.23l7.19-53.19-4.8,28.78Zm9.59-64.75l-4.8,35.97,10.58-64.03-5.78,28.06Zm8.39-40.77l-2.61,12.71,9.81-31.89-7.19,19.18Zm11.99-57.55l-4.8,38.37,6.91-51.73-2.11,13.36Zm3.6-22.78l-1.49,9.42,5.68-16.58-4.2,7.16Zm77.56-204.61l-4.78,16.52-1.76,4.99,7.51-20.08-.96-1.43Zm10.62-31.8l-2.85,7.4,10.59-20.38-7.73,12.99Zm27.66-29.06l-1.94.49,14.39-1.2-12.45.71Zm13.46,336.49c.12-2.66.18-5.35.18-8.07l-.18,8.07Zm-2.73-39.72l2.91,31.65c0-11.15-1.03-21.82-2.91-31.65Zm3.25-37.34l-3.25,37.34c2.73-10.08,3.85-24.1,3.25-37.34Zm0,0c2.65-8.9,4.71-20.96,4.98-29.52l-4.98,29.52Zm12.03,177.55c.54-2.52.83-5.14.83-7.84l-.83,7.84Zm-27.95-40.81l20.98,10.59,7.79,22.39c0-18.21-12.89-32.97-28.78-32.97Zm27.95,40.81l1.34,26.31c.19-10.01-.3-19.08-1.34-26.31Zm-4.87-432.96l-8.69-4.72,16.26,11.85,2.94,6.87c-1.85-6.63-5.71-11.81-10.5-13.99Zm10.5,13.99l10.25,24.05c-2.65-10-6.16-18.27-10.25-24.05Zm10.72,423.19c-5.86,7.31-10.9,14.78-15.01,22.09l22.47-30.79c-2.53,2.76-5.02,5.67-7.46,8.7Zm22.46-23.08l24.28-15.35c-7.6,3.14-15.92,8.38-24.28,15.35Zm24.28-15.35h25.81c-5.94-4.75-15.17-4.42-25.81,0Z"/>
        <path class="cls-3" d="m300.68,442.77c4.18,11.33,11.2,24.26,18.33,37.24l-18.33-37.24Z"/>
        <path class="cls-4" d="m262.11,94.52c-.04,2.55-.76,4.61-2.4,6-1.74,4.37-7.79,11.62-13.72,18.79l-10.25-24.05-2.94-6.87-16.26-11.85-7.19-9.59c-3.01-4.21-9.08-9.54-16.79-15.59l-21.58-3.6c-6.02,1.48-10.47,4.22-13.15,8.38l-2.43-5.98c2.82-4.26,6.86-7,11.99-8.39,6.31-.4,12.71.02,19.18,1.2,6.23,1.6,11.72,4.76,16.62,9.2,4.66,3.4,9.76,12.39,12.16,12.39s12.75-1.18,20.38,1.2c7.54,4.38,12.83,8.71,15.59,12.96,5.05,4.3,8.24,9.85,10.79,15.81Z"/>
        <path class="cls-5" d="m216.55,76.53l-14.39,1.2-17.99,15.59-10.59,20.38-6.81,25.83-7.51,20.08-22.91,64.7-16.23,45.85-16.28,45.98-11.38,19.39v.02s-5.7,16.58-5.7,16.58c-2.85,17.97-5.19,35.25-6.91,51.73-1.3,4.23-4.96,16.13-9.81,31.89l-10.58,64.03-7.19,53.19-10.79,33.14c-8.33,12.32-16.19,24.32-17.99,32.37l-2.4,19.18,4.8,61.15c-3.57-2.53-6.52-5.28-8.39-8.39-5.23-7.91-8.5-15.58-9.59-19.18-1.91-7.6-3.66-14.91-3.6-19.18-.31-7.46-.06-15.78,2.4-22.78,3.17-10.76,7.34-21.08,11.99-31.17,5.96-11.12,11.67-20.36,16.79-25.18,1.86-10.37,4.53-18.68,8.39-23.98.08-9.74,3.09-68.87,3.6-68.34,1.61-16.67,3.37-31.58,6-37.17,2.11-17.86,4.34-39.4,6-41.97,3.55-16.92,7.15-31.65,10.79-44.36l4.8-21.58c2.06-6.85,5.23-15.43,8.39-23.98l16.79-61.15c5.06-14.77,22.51-56.41,22.51-56.41l7.13-36.41,7.49-38.25.2-5.43-.73-16.01,1.91-17.34,6.47-19.9,12.6-4.5c3.61-3.68,10.12-7.61,13.15-8.38,2.6-.66,15.62.38,21.58,3.6,6.87,5.36,12.88,10.61,16.79,15.59l7.19,9.59Z"/>
        <path class="cls-5" d="m248.5,409.14c-1.4,18.79-13.05,37.63-25.48,56.47h-10.93c-4.51-6.74-.76-28.68,1.16-47.25l.2-8.42-3.32-33.03,3.7-38.96,5.67-30.8c5.91,3.89,13.62,13.14,21.82,23.83.64,8.8.75,17.45,0,25.85,5.11,16.79,6.53,34.45,7.17,52.31Z"/>
        <path class="cls-5" d="m263.91,503.76l-7.62,10.16-25.84,34.42-1.54-29.41.95-8.77-8.96-25.03c-3.75-5.87-12.83-9.35-24.13-11.84,5.38-7.58,10.74-15.38,16.54-16.09h11.03c8.97,2.26,15.45,5.56,20.68,9.38,9.95,11.17,16.65,23.42,18.89,37.16Z"/>
        <path class="cls-4" d="m293.2,480.01l-24.28,15.35-8.37,5.29c-2.06-12.61-7.95-23.5-16.43-33.24,9.16-.97,18.77-2.22,22.78,0l9.76,4.68c5.76-.48,11.11,4.19,16.53,7.93Z"/>
        <path class="cls-5" d="m319.02,480.01h-25.81c-5.59-3.25-11.11-5.99-16.53-7.93,5.03-10.48,12.25-23.35,20.22-37.05,1.72,1.73,2.81,4.64,3.8,7.73,6.44,11.01,12.48,23.7,18.33,37.24Z"/>
        <path class="cls-3" d="m849.62,828.31l-11.99-38.37-19.08-37.64c-7.47-10.13-15.92-19.46-26.49-27.11-9.6-7.81-20.67-13.57-33.57-16.79-10.88-2.52-87.67-6.81-87.67-6.81-3.39.6-75.12-20.37-78.99-21.97.7-14-3.27-32.25-8.39-51.56l-16.79-47.96c-6.86-16.46-30.93-61.68-37.17-68.34l-25.18-38.37-13.19-25.18-6-19.18c-4.48-9.51-10.68-18.02-19.18-25.18l-32.37-26.38c-9.74-11.66-22.56-26.5-37.17-43.16l-27.58-52.76-23.98-43.16-16.79-32.37-5.18-11.95c-.55,3.93-1.42,7.48-2.59,10.56-1.52,4.03-3.57,7.23-6.13,9.4-1.46,1.27-3.11,2.18-4.9,2.71-.59.17-1.19.3-1.79.38-.31.05-.61.07-.92.1-.05.01-.1.01-.16.01-1.1.06-2.23-.01-3.38-.23-.73-.13-1.49-.32-2.23-.58-.24-.07-.49-.16-.73-.25-.91-.32-1.82-.73-2.75-1.21-.73-.38-1.45-.82-2.18-1.28-2.09-1.34-4.18-3.06-6.25-5.1l-.05-.04-.49-.49c-4.7-2.73-13.43-18.45-20.32-33.44l-7.3-27.97-1.26-6.99-.54-17.13,1.91-10.36,3.62-8.06,10.1-5.72,6.37.13,7,2.91,3.25,2.67,4.72,3.79,3.03,3.33,3.77,4.87,3.06,4.63,4.39,7.87,4.2,9.39,1.79,4.75c-.93-3.37-1.99-8-3.63-18.24-.01-7.8-19.69-25.58-21.32-26.38-3.08-1.98-6.72-3.75-12.25-4.8-2.37-.19-4.63-.39-10.13,0l-6.65,1.2c-.16,1.95-1.19,4.17-2.4,6-1.86,3.98-8.14,11.68-13.72,18.79,2.99-12.94-19.66-43.82-29.45-42.77l-14.39,1.2-17.99,15.59-10.59,20.38,4.63-6.5,9.62-13.48.04-.06.02-.02,10.12-8.51,3.49-.1,1.69,3.18-1.29,9.64c-.89,3.12-2.21,6.62-3.89,10.35-1.45,3.23-3.19,6.62-5.18,10.06-.97,1.68-1.95,3.3-2.95,4.86-4.05,6.29-8.28,11.51-12,14.98t-.02.01c-.48.46-.95.88-1.42,1.26h-.01c-3.13,2.64-5.8,3.85-7.6,3.2-.14-.05-.29-.11-.42-.19-.85-.5-1.39-1.47-1.63-2.84l-7.51,20.08-22.91,64.7-16.23,45.85-16.28,45.98-11.38,19.39v.02s-5.7,16.58-5.7,16.58l-6.91,51.73-9.81,31.89-10.58,64.03-7.19,53.19-10.79,33.14c-8.34,12.18-15.92,23.91-17.99,32.37-1.32,6.67-2.14,13.08-2.4,19.18-1.5,16.14,1.04,37.81,4.8,61.15,6.38,7.96,14.51,14.66,23.98,20.38l394.47,193.04,35.97,13.19c.14.04,97.96,29.89,99.84,30.08,47.14,10.4,142.21,18.51,236.89,26.64,6.65.76,12.79-3.21,15.07-9.21h0s.62-2.12.62-2.12v-.02l4.88-16.59,11.99-50.36,3.6-40.77-3.6-34.77ZM250.16,142.5l.04.18v.14c.72,6.76,1.13,13.86,1.13,21.23,0,5.59-.22,11.03-.65,16.28l-.48-37.52c-.01-.11-.02-.22-.04-.32l-4.16-23.19c1.85,6.97,3.25,14.8,4.16,23.19Zm.5,37.92c-.78,9.84-2.28,19-4.33,27.1l4.33-27.1Zm-4.36,27.21c-1.18,4.66-2.55,8.97-4.09,12.84l4.09-12.84Zm46.91,272.38l-24.28,15.35c-7.32,3.08-11.97,8.1-15,14.38l-22.47,30.79-.52-34.15c-.67-8.54-2.74-16.29-7.79-22.39-4.2-5.28-11.25-8.77-20.98-10.59h-.07c8.63-14.74,14.4-35.85,15.48-59.67l.18-8.07-2.91-31.65,3.25-37.34,4.98-29.52s0-.02,0-.02c4.8-16.71,7.84-41.35,7.88-68.86,4.24-3.62,8.08-9.74,11.23-17.7l-6.44,20.23c-4.15,16.86-6.54,64.46-6,67.14,1.88,8.02,6.86,15.13,12.47,22.05,14.27,39.97,32.91,75.21,54.67,96.65-.13,4.8,1.23,10.25,3.8,16.13,7.23,12.99,13.46,25.46,18.33,37.24-8.22-2.42-16.87-2.14-25.81,0Z"/>
        <ellipse class="cls-2" cx="150.22" cy="90.51" rx="40.55" ry="12.82" transform="translate(45.98 231.55) rotate(-84.6)"/>
        <path class="cls-2" d="m203.19,88.21l-1.29,9.64c-.89,3.12-2.21,6.62-3.89,10.35-1.45,3.23-3.19,6.62-5.18,10.06-.97,1.68-1.95,3.3-2.95,4.86-4.05,6.29-8.28,11.51-12,14.98t-.02.01c-.48.46-.95.88-1.42,1.26h-.01c-3.13,2.64-5.8,3.85-7.6,3.2-.14-.05-.29-.11-.42-.19-.85-.5-1.39-1.47-1.63-2.84-1-5.58,2.95-17.66,10.29-30.37.38-.66.77-1.31,1.15-1.95l9.62-13.48.04-.06.02-.02c3.62-3.83,7.04-6.89,10.12-8.51,3.15-1.16,4.75.06,5.18,3.08Z"/>
        <path class="cls-2" d="m324.3,196.75c-.6,4.12-1.54,7.83-2.83,11.06-1.66,4.22-3.9,7.57-6.69,9.84-1.6,1.33-3.39,2.28-5.35,2.84-.64.18-1.29.31-1.95.4-.34.05-.67.08-1.01.1-.05.01-.1.01-.17.01-1.19.05-2.39-.04-3.61-.24h-.08l-.07-.02c-.79-.14-1.58-.33-2.37-.58-.26-.08-.54-.16-.8-.26-.99-.34-1.99-.77-3-1.27-.8-.4-1.58-.85-2.38-1.34-2.28-1.41-4.57-3.2-6.82-5.33l-.05-.04-.54-.51c-11.19-8.93-18.67-25.15-25.02-44.71-11.65-35.9-9.99-66.21,9.96-70.08,16.31-3.16,37.38,19.6,47.85,53.8,5.26,17.18,6.75,33.64,4.91,46.35Z"/>
      </g>
    </g>
  </g>
</svg>