<?xml version="1.0" encoding="UTF-8"?>
<svg id="Layer_2" data-name="Layer 2" xmlns="http://www.w3.org/2000/svg" xmlns:xlink="http://www.w3.org/1999/xlink" viewBox="0 0 857.44 1023.86">
  <defs>
    <style>
      .cls-1 {
        fill: none;
      }

      .cls-1, .cls-2, .cls-3, .cls-4, .cls-5, .cls-6, .cls-7, .cls-8, .cls-9, .cls-10, .cls-11 {
        stroke-width: 0px;
      }

      .cls-2 {
        fill: url(#linear-gradient);
      }

      .cls-3 {
        fill: url(#linear-gradient-2);
      }

      .cls-4 {
        fill: url(#linear-gradient-3);
      }

      .cls-5 {
        fill: #0b6623;
      }

      .cls-6 {
        fill: #0b5723;
      }

      .cls-7 {
        fill: #dead75;
      }

      .cls-8 {
        fill: #cc9c6d;
      }

      .cls-9 {
        fill: #cd212a;
      }

      .cls-10 {
        fill: #ba8e67;
      }

      .cls-11 {
        fill: #ffecd3;
      }
    </style>
    <linearGradient id="linear-gradient" x1="318.03" y1="323.72" x2="382.67" y2="323.72" gradientUnits="userSpaceOnUse">
      <stop offset="0" stop-color="#0b5723"/>
      <stop offset="1" stop-color="#0b5723"/>
    </linearGradient>
    <linearGradient id="linear-gradient-2" x1="651.86" y1="394.27" x2="716.5" y2="394.27" xlink:href="#linear-gradient"/>
    <linearGradient id="linear-gradient-3" x1="-338.61" y1="386.51" x2="-273.27" y2="386.51" gradientTransform="translate(333.89 41.07) rotate(-48.33)" xlink:href="#linear-gradient"/>
  </defs>
  <g id="Layer_1-2" data-name="Layer 1">
    <g>
      <rect class="cls-1" width="857.44" height="1023.86"/>
      <g>
        <circle class="cls-8" cx="428.72" cy="511.93" r="428.72"/>
        <ellipse class="cls-10" cx="428.72" cy="510.94" rx="421.81" ry="419.83"/>
        <circle class="cls-7" cx="428.72" cy="511.93" r="410.45"/>
        <circle class="cls-9" cx="428.72" cy="511.44" r="381.8"/>
        <path class="cls-11" d="m314.13,224c0-20.35-4.85-55.66,30.01-63.32,53.44-11.73,81.8,37.5,81.8,68.53s-64.18,42.09-83.39,37.88c-16.57-3.64-28.43-22.74-28.43-43.09Z"/>
        <path class="cls-11" d="m106.42,429.66c-7.99-18.69-29.21-49.12,14.57-67.83,47.13-20.14,80.12,5.27,88.11,23.96,7.99,18.69-33.71,54.43-53.1,62.71-19.39,8.29-41.59-.15-49.58-18.84Z"/>
        <path class="cls-11" d="m292.86,403.96c-12.22-30.17-9.64-53.11,17.22-72.28,28.92-20.63,50.8,10,58.28,26.3,7.47,16.3-21.44,49.5-36.35,62.1-14.91,12.6-26.92,14.05-39.14-16.12Z"/>
        <path class="cls-11" d="m489.44,644.94c-21.13-28.92-24.2-57.14,15.68-74.55,42.93-18.74,95.54-11.83,109.6,22.64,14.06,34.46-40.97,62.78-63.56,72.39-22.58,9.6-40.59,8.45-61.72-20.47Z"/>
        <path class="cls-11" d="m454.14,827.44c-12.28-12.48-39.86-29.24-4.34-64.17,38.23-37.61,75.35-30.24,87.63-17.76,12.28,12.48-16.85,61.03-32.58,76.51-15.73,15.47-38.44,17.9-50.71,5.42Z"/>
        <path class="cls-11" d="m492.08,438.27c-5.42-16.65-22.63-43.94,24.74-59.37,50.99-16.61,80.93,6.55,86.35,23.19,5.42,16.65-42.3,47.11-63.28,53.94-20.98,6.83-42.39-1.12-47.81-17.77Z"/>
        <path class="cls-11" d="m550.41,287.64c-24.51-27.3-42.78-71.56-1.89-86.37,44.02-15.95,90.78-8.01,102.42,26.18,11.64,34.19-28.73,44.14-43.53,73.49-14.8,29.34-32.49,14-57-13.3Z"/>
        <path class="cls-11" d="m315.24,574.72c1.73-24.45-2.65-68.68,44.35-65.36,50.58,3.57,67.58,48.69,65.85,73.14-1.73,24.45-54.82,40.62-75.64,39.15-20.81-1.47-36.29-22.48-34.56-46.93Z"/>
        <path class="cls-11" d="m669,652.5c-5.18-29.59-8.94-74.8,32.09-79.32,44.17-4.86,73.55,27.67,77.02,60.65,3.47,32.98-41.15,55.15-65.55,59.82-24.4,4.67-38.38-11.56-43.56-41.15Z"/>
        <path class="cls-11" d="m139.11,579.38c15.83-18.71,38.42-56.99,74.38-26.56,38.71,32.75,25.78,79.2,9.95,97.91-15.83,18.71-68.23.41-84.16-13.07-15.93-13.48-16.01-39.57-.17-58.28Z"/>
        <path class="cls-11" d="m701.85,426.12c-9.1-21.29-33.68-57.81,10.78-65.98,32.83-6.04,53.92,17.45,59.99,31.65s-13.22,43.2-25.7,52.22c-14.67,10.6-35.96,3.4-45.06-17.89Z"/>
        <path class="cls-11" d="m259.15,797.29c-7.69-18-26.28-47.48,6.43-65.56,42.04-23.24,78.06,5.69,87.51,27.8,9.45,22.11-33.44,55.81-51.14,61.34-16.41,5.13-35.11-5.57-42.8-23.57Z"/>
        <path class="cls-5" d="m174.67,315.98c4.04-14.01,18.68-22.09,32.69-18.05,14.01,4.04,45.54,25.44,41.49,39.45-4.04,14.01-42.12,15.33-56.13,11.29-14.01-4.04-22.09-18.68-18.05-32.69Z"/>
        <path class="cls-5" d="m493.61,311.76c-6.26-12.88.14-28.9,14.3-35.78,14.16-6.88,54.39-13.51,60.65-.63,6.26,12.88-23.82,40.41-37.98,47.29-14.16,6.88-30.7,2.01-36.96-10.88Z"/>
        <path class="cls-5" d="m611.81,603.66c11.75-11.69,30.81-11.59,42.56.23,11.75,11.82,31.43,50.64,19.68,62.33-11.75,11.69-50.47-8.18-62.23-20-11.75-11.82-11.76-30.87,0-42.56Z"/>
        <path class="cls-5" d="m270.04,714.88c-14.47-3.15-23.49-18.17-20.14-33.55,3.35-15.38,23.39-51.02,37.86-47.87,14.47,3.15,17.89,43.9,14.54,59.27-3.35,15.38-17.79,25.29-32.26,22.14Z"/>
        <path class="cls-6" d="m237.46,702.56c11.75-11.69,30.81-11.59,42.56.23,11.75,11.82,31.43,50.64,19.68,62.33-11.75,11.69-50.47-8.18-62.23-20-11.75-11.82-11.76-30.87,0-42.56Z"/>
        <path class="cls-5" d="m520.29,733.35c-13.62-4.45-20.69-20.18-15.81-35.14,4.88-14.96,28.06-48.51,41.67-44.07,13.62,4.45,12.52,45.21,7.64,60.17-4.88,14.96-19.88,23.48-33.5,19.04Z"/>
        <path class="cls-2" d="m324.57,346.77c-9.42-10.29-8.55-26.4,1.94-36,10.48-9.6,44.16-25.09,53.57-14.81,9.42,10.29-8.99,42.46-19.48,52.06-10.48,9.6-26.62,9.04-36.03-1.25Z"/>
        <path class="cls-3" d="m679.87,449.95c-19.82-2.71-27.51-23.13-27.99-39.51-.48-16.37,8.4-68.59,28.42-71.98,20.02-3.39,40.86,60.52,35.28,78.02-5.58,17.5-15.89,36.17-35.71,33.47Z"/>
        <path class="cls-4" d="m420.73,563.66c-13.85-.14-24.11-11.53-24.51-24.73-.4-13.2,1.24-51.03,16.83-55.47,15.59-4.44,37.23,42.12,34.95,56.39-2.29,14.27-13.41,23.95-27.26,23.81Z"/>
        <path class="cls-5" d="m504.11,421.72c-20.15-2.89-37.64,12.62-34.38,35.32,3.26,22.69,29.86,70.63,48.38,62.19,15.03-6.85,19.75-50.01,17.53-65.5-2.23-15.5-15.18-29.66-31.53-32Z"/>
      </g>
    </g>
  </g>
</svg>