<?xml version="1.0" encoding="UTF-8"?>
<svg id="Layer_2" data-name="Layer 2" xmlns="http://www.w3.org/2000/svg" viewBox="0 0 858.44 1023.86">
  <defs>
    <style>
      .cls-1 {
        fill: none;
      }

      .cls-1, .cls-2 {
        stroke-width: 0px;
      }

      .cls-3 {
        fill: #f4f9ff;
      }

      .cls-3, .cls-4 {
        stroke: #000;
        stroke-miterlimit: 10;
      }

      .cls-4 {
        fill: #111820;
      }

      .cls-2 {
        fill: #001300;
      }
    </style>
  </defs>
  <g id="Layer_1-2" data-name="Layer 1">
    <g>
      <rect class="cls-1" x=".5" width="857.44" height="1023.86"/>
      <g>
        <circle class="cls-4" cx="429.22" cy="511.93" r="428.72"/>
        <circle class="cls-3" cx="429.22" cy="511.93" r="393.05"/>
        <g>
          <rect class="cls-2" x="416.12" y="140.71" width="29.12" height="61.14" rx="10" ry="10"/>
          <rect class="cls-2" x="416.12" y="822.01" width="29.12" height="61.14" rx="10" ry="10"/>
          <rect class="cls-2" x="244.34" y="776.88" width="29.12" height="61.14" rx="10" ry="10" transform="translate(79.38 1636.17) rotate(-150)"/>
          <rect class="cls-2" x="75.47" y="481.36" width="29.12" height="61.14" rx="10" ry="10" transform="translate(-421.9 601.96) rotate(-90)"/>
          <rect class="cls-2" x="755.31" y="481.36" width="29.12" height="61.14" rx="10" ry="10" transform="translate(257.94 1281.8) rotate(-90)"/>
          <rect class="cls-2" x="245.78" y="186.74" width="29.12" height="61.14" rx="10" ry="10" transform="translate(-73.77 159.28) rotate(-30)"/>
          <rect class="cls-2" x="120.77" y="311.89" width="29.12" height="61.14" rx="10" ry="10" transform="translate(-228.92 288.43) rotate(-60)"/>
          <rect class="cls-2" x="121.2" y="652.45" width="29.12" height="61.14" rx="10" ry="10" transform="translate(-387.88 1142.11) rotate(-120)"/>
          <rect class="cls-2" x="585.01" y="187.05" width="29.12" height="61.14" rx="10" ry="10" transform="translate(189.14 -270.63) rotate(30)"/>
          <rect class="cls-2" x="710.21" y="310.79" width="29.12" height="61.14" rx="10" ry="10" transform="translate(658.01 -456.99) rotate(60)"/>
          <rect class="cls-2" x="711.13" y="653.07" width="29.12" height="61.14" rx="10" ry="10" transform="translate(1680.58 397) rotate(120)"/>
          <rect class="cls-2" x="586.13" y="776.87" width="29.12" height="61.14" rx="10" ry="10" transform="translate(1524.62 1206.35) rotate(150)"/>
        </g>
      </g>
    </g>
  </g>
</svg>